<svg width="449" height="529" viewBox="0 0 449 529" fill="none" xmlns="http://www.w3.org/2000/svg">
<path d="M406.762 404.134C406.497 401.956 406.151 399.741 405.602 397.6C405.154 395.806 404.279 393.957 402.509 392.914C400.514 391.742 398.336 391.926 396.098 392.2C393.411 392.53 390.725 392.859 388.059 393.207C383.093 393.866 378.148 394.58 373.202 395.348C371.35 395.641 370.333 397.673 370.781 399.174C371.574 401.865 372.388 404.555 373.182 407.246C373.365 407.868 373.691 408.344 374.118 408.692C375.502 417.222 371.941 426.337 368.257 434.025C364.146 442.609 358.61 450.7 351.874 457.838C344.853 465.27 336.672 471.401 327.656 476.764C318.213 482.366 309.482 488.442 302.278 496.35C294.524 504.861 288.602 514.544 284.898 525.032C284.267 526.808 286.017 529.205 288.235 528.986C297.169 528.089 306.083 527.21 315.018 526.313C319.373 525.874 323.728 525.453 328.083 525.014C330.261 524.794 332.439 524.575 334.616 524.355C336.957 524.117 339.541 524.117 341.841 523.604C343.774 523.165 345.138 521.92 345.545 520.182C345.952 518.424 345.24 516.448 345.219 514.654C345.179 511.377 345.952 508.174 347.234 505.117C349.941 498.583 355.09 493.128 360.422 488.186C365.896 483.098 371.615 478.265 376.845 472.957C382.035 467.686 386.899 462.121 391.132 456.209C399.822 444.092 405.785 430.346 407.006 415.904C407.311 412.005 407.25 408.051 406.762 404.134Z" fill="#ADADAD"/>
<path d="M391.6 513.354C391.417 510.993 391.051 508.65 390.521 506.326C388.425 497.009 383.622 488.296 378.046 480.297C367.26 464.775 352.362 451.176 344.873 433.933C340.966 424.946 338.279 413.671 343.55 404.683C345.443 401.48 340.721 398.588 338.259 400.693C337.933 400.602 337.567 400.547 337.18 400.547C335.491 400.547 333.476 401.974 333.721 403.658C335.043 412.755 328.633 420.937 324.99 429.009C321.469 436.825 319.312 445.117 318.538 453.518C317.765 461.865 318.518 470.413 321.042 478.503C323.647 486.777 328.205 494.062 334.128 500.761C340.253 507.698 347.722 514.269 350.673 522.964C351.793 526.24 357.593 525.746 357.471 522.14C357.45 521.243 357.41 520.328 357.389 519.431C357.349 518.04 356.473 517.125 355.375 516.704C352.24 510.664 347.437 505.484 342.675 500.358C336.956 494.19 331.848 487.82 328.897 480.169C322.934 464.721 324.542 447.57 330.912 432.432C331.97 429.906 333.293 427.38 334.636 424.854C336.549 433.622 341.067 442.243 345.85 449.4C355.497 463.805 368.44 476.252 377.069 491.243C379.43 495.361 381.424 499.626 382.808 504.074C383.5 506.307 384.09 508.613 384.416 510.92C384.558 511.963 384.66 513.025 384.721 514.086C384.762 514.581 384.782 515.075 384.782 515.569C384.05 516.173 383.561 517.07 383.602 518.205C383.663 521.371 387.937 522.689 390.338 520.493C392.292 518.717 391.783 515.642 391.6 513.354Z" fill="#C8C9C7"/>
<path d="M383.622 521.993C381.831 512.292 377.639 502.884 371.432 494.775C365.123 486.539 356.779 479.986 348.577 473.323C340.823 467.027 333.558 460.455 328.124 452.383C322.955 444.696 319.373 436.258 317.419 427.453C315.262 417.734 315.241 407.612 317.48 397.911C317.867 396.263 316.951 394.543 315.058 394.085C313.349 393.664 311.171 394.598 310.805 396.263C306.572 414.622 309.645 433.951 319.108 450.626C323.952 459.138 330.546 466.606 338.198 473.195C346.257 480.132 355.151 486.337 362.253 494.116C369.987 502.573 374.932 512.896 376.926 523.659C377.232 525.325 379.511 526.24 381.18 525.837C383.154 525.343 383.927 523.659 383.622 521.993Z" fill="#F6F5F4"/>
<path d="M378.636 382.773C377.191 377.776 374.525 373.091 371.493 368.734C369.967 366.52 368.318 364.378 366.649 362.255C365.062 360.205 363.474 357.935 360.89 356.8C357.959 355.501 354.805 355.976 351.752 356.635C349.412 357.13 347.03 357.532 344.629 357.789C333.13 359.033 320.574 358.667 310.683 364.964C309.156 365.934 308.444 367.691 309.441 369.229C309.584 369.448 309.767 369.65 309.971 369.833C310.235 371.846 310.581 373.859 310.988 375.855C311.517 378.472 312.535 380.998 315.262 382.389C317.785 383.652 320.94 383.853 323.728 384.329C326.944 384.878 330.139 385.428 333.354 385.977C339.663 387.057 345.972 388.118 352.261 389.198C358.468 390.26 364.736 391.687 371.025 392.328C373.589 392.584 376.296 392.127 377.985 390.241C379.918 388.027 379.349 385.263 378.636 382.773Z" fill="#ADADAD"/>
<path d="M402.671 361.815C401.755 358.228 401.694 355.134 399.049 352.444C398.662 351.181 396.281 349.826 395.528 348.71C393.371 345.488 389.606 343.768 385.576 343.219C382.014 342.743 378.331 342.523 375.543 344.408C367.178 346.715 359.547 351.766 355.965 359.051C351.365 368.332 353.441 379.424 362.64 385.739C371.004 391.486 382.91 391.651 391.722 386.562C400.819 381.327 405.052 371.242 402.671 361.815Z" fill="#C8C9C7"/>
<path d="M411.748 386.635C411.219 383.615 409.265 380.778 406.273 379.241C402.366 377.227 397.787 377.721 393.656 378.838C389.484 379.973 385.495 381.272 381.18 381.858C377.11 382.425 372.917 382.48 368.806 382.316C349.371 381.565 330.485 375.397 310.886 376.824C309.279 376.934 307.895 377.831 307.528 379.222C304.415 381.181 302.4 384.549 303.417 388.173C304.435 391.779 307.956 394.122 311.476 395.696C315.445 397.471 319.576 399.009 323.748 400.363C340.498 405.855 358.631 408.179 376.418 407.099C384.762 406.605 393.839 405.855 401.491 402.633C408.41 399.686 413.01 393.646 411.748 386.635Z" fill="#DDE1DF"/>
<path d="M171.621 272.858C170.36 269.49 167.388 267.111 164.6 264.749C161.405 262.04 158.23 259.331 155.035 256.622C148.746 251.278 142.458 245.915 136.149 240.57L125.403 231.418C122.005 228.526 118.687 225.469 115.146 222.723C111.992 220.289 107.596 218.276 103.627 220.49C102.895 220.893 102.264 221.424 101.735 222.01C100.798 222.376 100.025 223.053 99.8623 223.986C98.743 230.924 97.8272 237.916 99.1093 244.89C100.432 251.973 104.767 257.666 110.201 262.736C121.394 273.206 133.788 282.706 146.793 291.29C149.805 293.285 153.163 295.189 157.07 294.969C160.326 294.768 163.257 293.249 165.353 291.016C167.51 288.728 168.935 286.092 170.156 283.328C171.581 280.033 172.924 276.354 171.621 272.858Z" fill="#C8C9C7"/>
<path d="M138.51 173.98C135.559 167.647 131.448 159.538 123.328 157.598C118.606 156.463 113.437 158 112.928 162.869C112.745 164.736 113.233 166.677 113.498 168.525C113.844 170.923 114.21 173.321 114.577 175.719C115.94 184.486 117.507 193.217 119.237 201.93C118.158 203.028 117.874 204.694 119.441 205.975C123.185 209.032 126.686 212.345 129.82 215.933C132.547 219.044 134.989 223.968 140.138 223.84C141.583 223.803 143.17 222.906 143.476 221.552C147.159 205.682 145.49 188.953 138.51 173.98Z" fill="#ADADAD"/>
<path d="M175.142 195.963C175.081 193.108 174.654 189.941 172.782 187.543C170.441 184.541 165.699 182.656 162.117 185.2C160.693 186.207 159.96 187.58 159.309 189.081C158.475 191.021 157.742 192.998 156.969 194.956C155.483 198.727 153.997 202.516 152.532 206.305C149.215 214.889 146.02 223.51 142.885 232.15C142.234 233.962 143.394 235.298 144.961 235.774C145.206 235.921 145.47 236.03 145.755 236.14C152.328 238.501 158.597 241.54 164.458 245.109C166.228 246.189 169.118 245.146 169.546 243.242C171.316 235.39 172.68 227.464 173.616 219.502C174.552 211.723 175.305 203.797 175.142 195.963Z" fill="#ADADAD"/>
<path d="M127.317 214.651C125.485 197.647 123.592 180.35 117.304 164.114C114.251 156.243 110.262 148.318 104.604 141.655C101.511 138.012 97.5831 135.12 92.3731 134.626C87.9365 134.205 83.683 136.237 81.4444 139.66C79.2057 143.046 78.9004 147.293 79.1039 151.136C79.3889 156.536 80.0605 161.936 80.5285 167.335C80.5489 167.573 80.5896 167.811 80.671 168.049C80.4064 168.964 80.6099 169.99 81.5665 170.85C96.5451 184.578 109.733 199.788 120.865 216.207C122.534 218.678 127.663 217.873 127.317 214.651Z" fill="#C8C9C7"/>
<path d="M378.982 307.123C376.438 299.252 373.691 291.436 370.943 283.621C365.428 267.934 359.913 252.211 356.066 236.122C354.174 228.159 352.688 220.124 351.874 211.997C351.101 204.291 351.202 196.018 345.423 189.758C340.396 184.303 331.807 182.528 325.193 186.829C317.846 191.625 316.381 199.642 316.239 207.293C316.076 215.658 315.648 223.95 314.468 232.26C313.288 240.57 311.578 248.825 309.726 257.025C308.973 260.375 308.2 263.724 307.406 267.074C295.562 266.616 283.717 265.994 271.893 265.207C259.947 264.401 247.899 263.669 236.034 262.113C230.295 261.363 224.576 260.375 218.979 258.947C216.252 258.251 213.545 257.446 210.9 256.512C208.356 255.615 205.853 254.151 203.207 253.547C200.052 252.833 197.142 253.968 195.636 256.567C194.252 258.965 193.214 261.601 192.034 264.09C189.531 269.307 186.763 274.469 184.545 279.777C183.079 283.273 185.196 285.744 187.597 288.306C189.917 290.759 192.217 293.212 194.537 295.665L205.425 307.214C207.277 312.925 213.077 316.074 218.959 318.636C225.247 321.382 231.129 324.622 236.726 328.392C248 336.025 257.871 345.159 268.82 353.139C280.257 361.449 292.957 368.551 307.671 370.821C316.686 372.212 325.845 372.102 334.901 371.095C343.286 370.162 351.935 368.954 359.831 366.117C367.402 363.408 373.976 359.179 378.229 352.828C382.34 346.678 384.07 339.338 384.05 332.218C384.009 323.651 381.607 315.268 378.982 307.123ZM201.355 259.533C201.375 259.551 201.396 259.569 201.436 259.569C201.07 260.063 201.212 259.313 201.355 259.533Z" fill="#DDE1DF"/>
<path d="M322.955 345.562C319.821 341.681 316.035 338.093 312.535 334.469C309.055 330.863 305.534 327.312 301.911 323.835C294.605 316.861 286.831 310.29 278.344 304.506C269.329 298.374 259.397 293.596 249.425 288.874C239.595 284.225 229.643 279.63 219.061 276.537C216.395 275.768 213.708 275.091 210.981 274.542C208.763 274.084 206.646 275.457 206.585 277.544C206.443 282.889 206.646 288.252 207.196 293.56C207.053 300.223 206.911 306.885 206.768 313.53C206.707 316.257 206.646 319.002 206.585 321.73C206.545 324.164 206.524 326.708 207.338 329.051C209.007 333.92 213.749 336.666 218.084 339.503C237.072 351.895 256.467 363.792 276.248 375.141C278.609 376.495 281.051 378.179 283.86 378.655C286.831 379.149 289.538 378.362 292.061 376.971C296.783 374.39 301.219 371.315 305.534 368.222C309.808 365.165 313.919 361.907 317.826 358.484C319.759 356.8 322.039 355.08 323.463 353.011C325.112 350.632 324.766 347.831 322.955 345.562Z" fill="#F6F5F4"/>
<path d="M384.436 302.474C383.846 299.948 383.134 297.385 382.198 294.914C382.686 284.371 377.68 274.542 372.246 265.28C369.254 260.192 366.14 255.121 364.024 249.667C361.887 244.176 360.625 238.446 359.587 232.717C359.079 229.825 358.61 226.952 358.122 224.059C357.674 221.369 357.512 218.367 356.514 215.786C355.191 212.29 351.65 212.272 348.191 212.345C344.71 212.418 341.251 212.491 337.771 212.565C334.392 212.638 330.831 212.418 327.514 212.967C324.339 213.48 322.059 215.64 321.449 218.458C320.859 221.204 320.92 224.133 320.899 226.915C320.859 229.862 320.94 232.827 321.103 235.774C321.815 247.781 324.217 259.697 328.246 271.156C327.188 271.028 326.109 270.918 325.051 270.79C319.963 270.204 314.57 269.124 309.421 269.618C304.618 270.094 300.019 272.181 297.841 276.244C295.887 279.905 295.908 284.005 296.783 287.94C297.719 292.187 299.856 296.214 302.074 300.021C304.557 304.322 307.427 308.441 310.459 312.449C316.035 319.844 321.856 327.221 328.226 334.103C334.087 340.436 340.823 346.385 348.923 350.339C356.616 354.091 366.507 356.69 375.054 353.707C379.491 352.151 382.93 349.314 384.803 345.36C386.695 341.351 386.879 336.94 386.858 332.639C386.838 322.572 386.716 312.395 384.436 302.474Z" fill="#F6F5F4"/>
<path d="M350.144 194.553C347.783 188.897 346.054 183.04 344.975 177.073C343.937 171.252 344.181 165.413 343.449 159.574C343.103 156.701 342.716 153.186 339.684 151.521C337.119 150.111 333.334 150.294 330.403 150.386C324.237 150.587 319.108 152.93 315.649 157.561C312.576 161.661 311.415 166.658 310.744 171.49C309.93 177.366 309.869 183.315 310.561 189.19C310.968 192.631 311.578 196.054 312.453 199.441C313.267 202.571 314.082 206.067 315.75 208.94C317.317 211.631 320.167 212.381 323.138 212.107C323.748 212.345 324.461 212.418 325.275 212.253C328.816 211.539 332.357 210.826 335.898 210.112C339.195 209.435 342.614 208.922 345.87 208.062C348.618 207.33 351.365 205.884 352.261 203.284C353.299 200.228 351.284 197.299 350.144 194.553Z" fill="#F6F5F4"/>
<path d="M198.2 252.65C198.18 252.65 198.16 252.65 198.16 252.632C198.038 252.485 197.895 252.357 197.753 252.229C196.328 251.039 194.171 250.289 192.482 249.447L173.372 239.837C167.002 236.634 160.632 233.431 154.262 230.228C151.677 228.928 148.869 227.061 145.938 226.256C141.237 218.44 135.681 211.063 129.372 204.199C126.075 200.612 122.575 197.171 118.891 193.913C117.019 192.247 115.085 190.636 113.111 189.08C111.096 187.488 109.041 185.786 106.456 184.999C106.151 184.907 105.866 184.834 105.561 184.779C100.168 169.751 88.5267 156.719 73.4666 148.629C69.5795 146.542 65.4482 144.803 61.1744 143.412C58.6915 142.607 55.883 142.149 53.7054 143.815C51.5278 145.48 51.3854 148.299 51.6092 150.697C52.0773 155.877 54.6009 160.563 57.0431 165.175C59.5463 169.879 62.1513 174.547 64.7969 179.178C66.3233 181.832 67.8497 184.504 69.3964 187.158C70.7192 189.465 71.981 191.826 73.7109 193.913C76.092 196.805 79.5314 198.983 83.2557 199.404C82.9504 200.191 82.7265 200.996 82.6655 201.838C82.462 204.492 83.9476 206.872 85.2705 209.142C86.6544 211.521 88.0586 213.882 89.4629 216.243C92.251 220.874 95.1002 225.487 98.0105 230.045C101.104 234.895 104.014 240.094 107.84 244.523C110.221 247.269 113.885 249.465 117.67 249.703C117.629 249.978 117.629 250.271 117.65 250.545C117.853 253.529 121.374 255.817 123.551 257.757C132.893 266.03 143.109 273.535 153.936 280.161C156.989 282.028 160.103 283.822 163.257 285.542C166.473 287.3 169.729 289.112 173.229 290.356C179.029 292.425 186.926 291.418 189.734 286.055C190.365 285.487 190.732 284.682 190.833 283.822C191.912 274.194 198.587 265.884 200.643 256.457C200.968 254.828 200.093 253.108 198.2 252.65ZM58.5084 148.354C58.5084 148.189 58.5084 148.079 58.5084 148.079C58.7322 148.116 58.6712 148.226 58.5084 148.354Z" fill="#DFE3E0"/>
<path d="M143.842 224.371C143.618 224.371 143.394 224.371 143.17 224.352C142.01 224.334 141.339 225.011 141.155 225.817C131.936 232.772 123.165 240.185 114.862 248.038C112.969 249.831 115.981 252.559 117.874 250.747C126.523 242.565 135.701 234.859 145.348 227.647C146.854 226.549 145.572 224.407 143.842 224.371Z" fill="#C8C9C7"/>
<path d="M106.904 184.834C106.355 184.01 104.93 183.534 103.974 184.138C96.4435 189.025 88.6693 193.583 80.6508 197.793C78.2697 199.038 80.427 202.369 82.8081 201.106C90.8265 196.896 98.6008 192.338 106.131 187.451C107.067 186.865 107.535 185.786 106.904 184.834Z" fill="#C8C9C7"/>
<path d="M200.052 251.113C198.852 250.82 197.814 251.479 197.427 252.449C193.703 261.546 188.758 270.204 182.754 278.258C182.103 279.118 182.571 280.381 183.527 280.894C184.586 281.443 185.807 281.077 186.458 280.198C192.665 271.87 197.712 262.882 201.558 253.474C201.945 252.504 201.111 251.369 200.052 251.113Z" fill="#C8C9C7"/>
<path d="M204.448 301.961C203.573 295.646 200.704 289.771 196.674 284.572C192.522 279.209 187.434 274.414 181.919 270.167C179.07 267.989 176.058 266.012 172.497 264.877C168.854 263.724 164.763 263.889 161.161 265.079C157.091 266.433 153.61 268.684 150.212 271.064C146.894 273.407 143.923 275.951 142.438 279.612C142.112 280.417 141.868 281.223 141.705 282.01C139.751 287.226 140.667 293.23 143.659 298.026C143.679 298.062 143.699 298.081 143.72 298.117C145.063 301.961 147.831 305.366 151.351 307.965C157.029 312.12 164.03 314.682 171.092 316.257C178.785 317.977 186.885 318.416 194.7 317.025C198.424 316.366 201.843 314.792 203.471 311.552C204.916 308.587 204.896 305.146 204.448 301.961Z" fill="#F6F5F4"/>
<path d="M353.665 206.616C352.016 205.847 349.717 206.707 348.028 207C345.952 207.366 343.876 207.714 341.8 208.025C333.66 209.252 325.438 209.984 317.175 210.277C314.428 210.368 314.428 214.212 317.175 214.12C323.179 213.901 329.162 213.461 335.125 212.766C338.137 212.418 341.128 212.015 344.1 211.558C345.524 211.338 346.949 211.1 348.373 210.844C349.147 210.716 349.92 210.569 350.694 210.423C350.877 210.386 351.06 210.35 351.223 210.313C351.63 210.588 352.179 210.771 352.79 210.752C355.456 210.716 355.802 207.622 353.665 206.616Z" fill="#C8C9C7"/>
<path d="M383.744 293.121C382.686 292.572 381.465 292.938 380.814 293.816C378.941 296.342 375.502 297.642 372.225 297.861C367.931 298.154 363.8 296.781 360.076 294.951C356.168 293.047 352.444 290.759 348.842 288.398C345.362 286.128 342.044 283.639 339.012 280.875C335.654 277.818 332.764 274.432 330.525 270.625C329.243 268.447 325.539 270.387 326.842 272.565C331.34 280.18 338.381 286.183 346.033 291.254C349.88 293.798 353.889 296.287 358.102 298.319C362.335 300.369 367.097 301.943 371.961 301.687C376.927 301.431 381.709 299.509 384.518 295.72C385.169 294.878 384.701 293.615 383.744 293.121Z" fill="#DDE1DF"/>
<path d="M122.799 179.874C122.249 179.013 120.845 178.611 119.868 179.178C119.278 179.544 117.996 179.361 117.222 179.416C115.981 179.508 114.739 179.654 113.518 179.837C111.117 180.185 108.776 180.752 106.497 181.503C105.418 181.85 104.686 182.802 105.011 183.864C105.296 184.797 106.558 185.566 107.637 185.2C110.038 184.413 112.501 183.827 115.024 183.48C116.184 183.315 117.365 183.223 118.545 183.187C119.766 183.132 121.008 183.132 122.045 182.491C122.982 181.924 123.409 180.807 122.799 179.874Z" fill="#ADADAD"/>
<path d="M110.445 247.013C109.896 246.171 108.471 245.731 107.515 246.317C105.398 247.653 103.282 248.971 101.165 250.307C100.229 250.893 99.7811 251.991 100.392 252.943C100.941 253.785 102.366 254.224 103.322 253.639C105.439 252.303 107.555 250.985 109.672 249.648C110.628 249.044 111.056 247.946 110.445 247.013Z" fill="#979996"/>
<path d="M142.682 197.738C137.757 197.812 132.852 198.013 127.927 198.361C126.767 198.434 125.79 199.184 125.79 200.283C125.79 201.253 126.767 202.278 127.927 202.205C132.832 201.857 137.757 201.656 142.682 201.582C145.429 201.527 145.429 197.683 142.682 197.738Z" fill="#979996"/>
<path d="M173.25 218.404C165.109 218.989 157.518 215.182 149.479 214.596C148.319 214.505 147.342 215.548 147.342 216.518C147.342 217.635 148.319 218.349 149.479 218.44C157.559 219.026 165.007 222.852 173.25 222.248C174.41 222.174 175.386 221.424 175.386 220.326C175.386 219.356 174.41 218.33 173.25 218.404Z" fill="#979996"/>
<path d="M223.538 259.276C222.622 258.8 221.096 259.02 220.607 259.972C218.369 264.438 217.168 269.215 217.229 274.121C217.249 276.592 221.523 276.592 221.503 274.121C221.462 269.929 222.378 265.738 224.311 261.912C224.78 260.96 224.617 259.844 223.538 259.276Z" fill="#C8C9C7"/>
<path d="M310.927 265.573C310.907 265.573 310.886 265.573 310.866 265.573C310.825 265.555 310.805 265.536 310.764 265.518C310.459 264.548 309.238 263.852 308.139 264.182C307.04 264.493 306.307 265.518 306.653 266.543C307.203 268.227 308.973 269.472 310.947 269.435C312.067 269.417 313.145 268.556 313.084 267.513C313.003 266.47 312.108 265.555 310.927 265.573Z" fill="#C8C9C7"/>
<path d="M321.917 344.28C317.582 343.603 314 345.525 310.215 347.081C308.607 347.74 306.857 348.307 305.106 348.106C303.234 347.886 301.586 346.806 300.202 345.708C296.722 342.962 293.526 339.887 290.209 336.995C286.892 334.085 283.554 331.175 280.196 328.283C266.805 316.824 252.803 305.75 237.031 296.983C228.219 292.077 218.857 287.977 209.027 284.994C206.422 284.207 205.303 287.904 207.888 288.691C225.166 293.944 240.735 302.895 254.859 313.163C269.288 323.67 282.313 335.531 295.623 347.117C297.475 348.728 299.449 350.284 301.85 351.199C301.932 351.236 302.033 351.254 302.115 351.291C300.222 356.617 298.268 361.998 294.829 366.721C293.14 369.046 291.064 371.059 288.622 372.761C285.976 374.628 283.249 376.312 281.377 378.875C279.871 380.943 283.554 382.883 285.06 380.815C286.81 378.417 289.721 376.88 292.143 375.104C294.727 373.219 296.884 370.913 298.675 368.405C302.237 363.408 304.313 357.679 306.307 352.059C306.328 352.005 306.327 351.968 306.348 351.913C307.264 351.876 308.159 351.748 309.055 351.51C311.253 350.943 313.288 349.936 315.364 349.076C317.053 348.362 319.006 347.685 320.777 347.959C321.917 348.142 323.077 347.685 323.402 346.623C323.687 345.726 323.056 344.463 321.917 344.28Z" fill="#DDE1DF"/>
<path d="M200.948 312.285C197.142 304.213 191.831 296.763 185.359 290.21C182.184 287.007 178.724 284.023 175 281.333C172.436 279.466 169.77 277.69 166.9 276.281C168.935 272.803 170.828 269.252 172.578 265.628C173.046 264.676 172.883 263.56 171.805 262.992C170.909 262.516 169.342 262.718 168.874 263.688C167.083 267.385 165.15 271.028 163.054 274.597C163.054 274.615 163.033 274.615 163.033 274.633C162.687 274.505 162.321 274.395 161.975 274.286C156.643 272.657 150.436 272.766 145.612 275.585C143.313 276.921 145.45 280.253 147.77 278.898C155.931 274.139 165.516 279.338 171.988 284.042C179.03 289.149 185.155 295.244 190.08 302.053C192.869 305.915 195.27 309.978 197.264 314.207C197.712 315.159 199.279 315.378 200.195 314.902C201.294 314.335 201.416 313.237 200.948 312.285Z" fill="#DDE1DF"/>
<path d="M384.843 337.837C384.294 337.014 382.869 336.538 381.913 337.142C376.133 340.876 368.745 342.541 361.683 341.553C353.889 340.455 347.722 336.208 342.207 331.394C336.529 326.434 331.075 321.236 325.865 315.872C320.675 310.546 315.75 304.982 311.436 299.033C306.612 292.425 302.542 285.36 299.713 277.855C298.838 275.531 294.707 276.519 295.602 278.88C300.934 293.066 310.378 305.531 321.143 316.806C326.557 322.48 332.296 327.953 338.198 333.206C344.039 338.405 350.633 343.31 358.834 344.939C367.463 346.66 376.886 345.086 384.09 340.436C385.026 339.851 385.474 338.789 384.843 337.837Z" fill="#DDE1DF"/>
<path d="M396.586 347.74C396.301 346.825 395.039 346.001 393.961 346.404C388.161 348.49 381.648 351.016 378.473 356.196C376.621 359.235 376.438 362.713 376.316 366.099C376.194 369.558 376.397 373.256 378.372 376.312C380.305 379.314 384.05 381.712 388.038 381.309C389.178 381.2 390.175 380.504 390.175 379.387C390.175 378.436 389.199 377.356 388.038 377.466C385.535 377.722 383.398 376.386 382.137 374.482C380.529 372.084 380.488 369.119 380.57 366.41C380.651 363.738 380.61 360.791 382.014 358.356C383.154 356.379 384.986 354.86 387.041 353.67C389.545 352.206 392.312 351.108 395.08 350.119C396.159 349.717 396.912 348.82 396.586 347.74Z" fill="#ADADAD"/>
<path d="M400.209 355.391C399.659 354.53 398.255 354.128 397.278 354.695C392.109 357.825 386.777 361.559 386.003 367.526C385.311 372.908 390.236 378.216 396.505 377.136C397.644 376.935 398.296 375.708 397.99 374.775C397.665 373.713 396.505 373.237 395.365 373.438C393.879 373.695 392.292 372.889 391.335 371.828C390.094 370.455 389.972 368.57 390.44 366.922C391.6 362.822 395.752 360.26 399.435 358.045C400.392 357.441 400.819 356.324 400.209 355.391Z" fill="#ADADAD"/>
<path d="M237.377 310.985C237.153 309.1 235.912 307.617 233.917 306.904C231.007 305.86 227.995 306.757 225.899 308.569C225.614 308.716 225.37 308.935 225.207 309.228C224.963 309.503 224.718 309.796 224.494 310.088C223.273 311.809 222.663 313.804 222.073 315.744C221.36 318.124 220.628 320.503 219.915 322.901C219.508 324.274 219.101 325.628 218.674 327.001C217.697 329.216 216.741 331.449 215.947 333.719C214.746 337.252 213.301 342.596 217.656 344.957C219.59 346.019 222.012 345.836 223.66 344.427C225.125 343.164 226.061 341.278 227.018 339.704C231.373 332.584 234.589 324.896 236.441 316.971C236.909 315.067 237.601 312.926 237.377 310.985Z" fill="#8B5CF0"/>
<path d="M249.628 338.753C249.282 337.728 248.55 336.867 247.492 336.245C247.39 336.19 247.268 336.117 247.166 336.062C246.494 335.494 245.721 335.019 244.907 334.671C243.258 333.939 240.857 333.243 239.066 333.92C236.563 334.872 236.665 337.709 237.642 339.595C238.537 341.315 240.267 342.45 242.16 343.164C243.34 343.75 244.703 344.079 245.965 343.841C247.166 343.786 248.306 343.402 249.181 342.505C250.32 341.37 250.361 339.906 249.628 338.753Z" fill="#955CF0"/>
<path d="M265.93 346.111C263.976 344.866 260.7 343.53 258.258 344.152C257.728 344.28 257.321 344.482 256.996 344.738C256.446 344.921 255.978 345.323 255.775 345.964C254.94 348.527 256.772 350.778 258.949 352.242C259.987 352.938 261.086 353.487 262.267 353.926C263.162 354.274 264.098 354.622 265.075 354.713C265.788 354.897 266.541 354.97 267.314 354.732C268.616 354.366 269.553 353.304 269.837 352.114C270.448 349.57 268.047 347.447 265.93 346.111Z" fill="#945CF0"/>
<path d="M376.855 75.6943C375.797 71.3746 368.796 70.2947 366.191 74.0287C365.581 74.889 365.275 75.9506 365.316 76.9756C353.166 81.8262 341.179 87.0611 329.437 92.6621C322.517 95.9569 315.679 99.398 308.922 102.949C300.761 93.2662 292.58 83.5834 284.419 73.9006C282.811 71.9786 281.183 70.075 279.576 68.1531C279.718 67.6955 279.82 67.2379 279.84 66.762C279.942 63.3392 276.197 61.3806 272.88 61.8931C272.371 61.8016 271.822 61.8748 271.313 62.0762C267.467 63.5954 267.121 68.8487 270.051 71.2648C272.208 73.0403 274.956 72.7474 276.991 71.4112C284.297 80.069 291.603 88.7451 298.93 97.4029C301.046 99.9105 303.163 102.418 305.259 104.907C301.026 107.177 296.813 109.483 292.641 111.863C289.609 113.584 286.577 115.341 283.585 117.116C282.12 117.995 280.634 118.873 279.169 119.752C277.805 120.576 276.38 121.381 275.22 122.443C272.595 124.859 272.453 127.97 272.453 131.155C272.453 134.615 272.473 138.093 272.473 141.552C272.514 152.974 272.534 164.377 272.575 175.799C254.686 163.627 236.777 151.455 218.888 139.301C213.861 135.878 208.834 132.455 203.807 129.05C203.828 128.922 203.848 128.776 203.828 128.611C203.197 116.347 203.034 104.084 203.339 91.8201C204.682 91.0148 205.7 89.7701 206.209 88.4156C208.081 83.2905 200.877 79.831 196.196 81.7713C193.978 82.6865 192.594 84.8097 192.716 87.0062C192.838 89.0379 194.262 90.8683 196.42 91.3625C197.152 92.0032 198.068 92.4425 199.065 92.6255C198.78 104.633 198.964 116.64 199.574 128.629C199.615 129.288 199.941 129.764 200.388 130.075C200.164 130.899 200.612 131.686 201.385 132.199C219.559 144.554 237.733 156.909 255.907 169.264C261.035 172.742 266.144 176.238 271.272 179.716C271.659 179.972 272.147 180.045 272.615 179.972V182.644C272.656 196.391 272.697 210.119 272.738 223.865C272.738 225.567 272.738 227.27 272.758 228.972C272.758 231.443 277.032 231.443 277.032 228.972C276.991 215.482 276.95 201.973 276.91 188.483C276.869 174.92 276.828 161.375 276.787 147.812L276.767 137.598C276.767 135.951 276.767 134.322 276.747 132.675C276.747 131.119 276.604 129.508 276.849 127.952C277.276 125.115 280.186 123.815 282.588 122.369C285.478 120.631 288.367 118.928 291.298 117.244C303.143 110.417 315.252 103.992 327.625 97.9886C339.938 92.0032 352.495 86.4205 365.255 81.2771C365.886 81.0208 366.537 80.7645 367.168 80.5083C367.514 80.8561 367.901 81.1489 368.308 81.4235C372.582 83.9494 377.914 79.9775 376.855 75.6943Z" fill="#ABD0EF"/>
<path d="M352.596 126.708C340.386 126.324 328.154 126.452 315.944 127.111C314.784 127.166 313.807 127.953 313.807 129.033C313.807 130.021 314.784 131.009 315.944 130.954C328.134 130.296 340.365 130.149 352.596 130.552C355.364 130.643 355.344 126.799 352.596 126.708Z" fill="#ABD0EF"/>
<path d="M375.39 116.238C365.906 116.018 356.402 115.78 346.919 115.561C344.171 115.487 344.171 119.331 346.919 119.404C356.402 119.624 365.906 119.862 375.39 120.082C378.137 120.137 378.137 116.293 375.39 116.238Z" fill="#ABD0EF"/>
<path d="M385.159 125.097C380.559 125.408 375.94 125.719 371.34 126.049C370.18 126.122 369.203 126.872 369.203 127.971C369.203 128.941 370.18 129.966 371.34 129.893C375.94 129.581 380.559 129.27 385.159 128.941C386.319 128.868 387.296 128.117 387.296 127.019C387.296 126.049 386.319 125.024 385.159 125.097Z" fill="#ABD0EF"/>
<path d="M375.451 135.146C369.488 135.567 363.485 135.64 357.501 135.365C354.754 135.237 354.754 139.081 357.501 139.209C363.485 139.466 369.468 139.392 375.451 138.99C376.611 138.917 377.588 138.166 377.588 137.068C377.588 136.079 376.591 135.054 375.451 135.146Z" fill="#ABD0EF"/>
<path d="M205.578 178.068C205.476 177.995 205.375 177.922 205.273 177.849C205.09 177.647 204.866 177.483 204.601 177.373C188.931 166.244 173.484 154.859 158.261 143.236C154.272 140.179 150.283 137.122 146.315 134.029C146.457 133.773 146.539 133.48 146.518 133.132C146.132 120.539 145.765 107.964 145.379 95.3709C145.114 86.6399 144.849 77.9272 144.585 69.1962C144.87 69.1596 145.155 69.0681 145.44 68.9034C152.44 64.8216 159.38 60.63 166.239 56.3651C169.637 54.2419 173.036 52.1003 176.394 49.9404C179.833 47.7257 183.415 45.5841 186.712 43.1863C186.753 43.1497 186.794 43.1314 186.834 43.0947C187.648 43.4425 188.524 43.6256 189.48 43.589C194.466 43.351 196.298 37.8781 194.283 34.3638C191.902 30.227 184.372 29.9891 181.909 34.1807C180.566 36.4687 181.156 39.2509 182.886 41.0081C182.296 41.3925 181.706 41.7769 181.116 42.1795C179.793 43.0581 178.45 43.9184 177.127 44.7787C174.461 46.4993 171.795 48.2199 169.108 49.9221C163.674 53.3633 158.2 56.7312 152.685 60.0442C149.958 61.6733 147.231 63.3024 144.483 64.9131C144.402 62.4238 144.341 59.9344 144.259 57.4451C144.076 51.3865 143.893 45.3461 143.71 39.2875C144.076 39.1777 144.422 39.0496 144.768 38.8665C147.129 37.6219 148.411 34.803 147.434 32.4601C146.376 29.8976 142.794 28.36 140.067 29.8976C139.497 30.227 139.049 30.648 138.744 31.1239C137.157 32.2039 136.261 34.016 136.831 35.9928C137.218 37.3107 138.194 38.3174 139.416 38.9214C139.762 50.5811 140.108 62.2224 140.474 73.8821C140.474 74.0834 140.494 74.2847 140.494 74.5044C133.29 69.0315 126.065 63.5403 118.861 58.0674C114.729 54.9191 110.578 51.7708 106.446 48.6226C105.612 47.9819 104.716 47.3779 104.004 46.6091C103.333 45.877 103.048 44.9801 102.905 44.0466C102.518 41.7219 102.478 39.3058 102.315 36.9446C102.05 32.8262 101.928 28.7078 101.908 24.5711C102.05 24.4796 102.172 24.3881 102.315 24.2782C103.495 23.2715 104.045 21.8072 104.208 20.3795C104.37 18.8237 104.045 17.1214 102.661 16.0781C101.399 15.1446 99.6285 14.8883 98.0818 15.3825C98.0615 15.3825 98.0411 15.4008 98.0004 15.4008C97.6138 15.4557 97.2678 15.6205 96.9625 15.895C95.599 16.7553 94.9681 18.1647 95.0088 19.5924C94.8867 20.1232 94.8256 20.6541 94.907 21.2215C95.0698 22.7224 96.006 24.205 97.5323 24.9006C97.573 24.9189 97.6138 24.9372 97.6545 24.9555C97.6748 28.5248 97.7969 32.0941 98.0004 35.6633C98.1429 38.1161 98.3057 40.5688 98.5296 43.0215C98.6924 44.7055 98.9977 46.2796 99.8117 47.7074C99.7303 47.7623 99.6489 47.8172 99.5675 47.8904C83.5306 62.1492 66.5982 75.566 48.8314 88.0676C44.4355 91.161 39.9989 94.1995 35.5012 97.1647C31.0443 100.13 26.4449 102.93 21.9675 105.877C19.8714 107.269 17.8973 108.824 16.839 111.021C15.7197 113.382 15.7807 116 15.7197 118.507C15.5569 123.98 15.4144 129.471 15.2516 134.944C14.9667 145.249 14.6614 155.536 14.3765 165.841C14.3358 165.86 14.2951 165.86 14.2747 165.878C10.8353 167.177 8.88159 170.271 8.55597 173.492C7.6198 175.085 7.39594 177.025 8.2914 178.746C10.3876 182.791 16.4116 183.633 20.3598 181.436C24.5318 179.112 27.7066 173.529 25.3459 169.282C24.0841 167.013 21.4384 165.64 18.6706 165.347C18.9148 156.671 19.1591 147.995 19.4236 139.319C19.5864 133.956 19.7289 128.611 19.8917 123.248C19.9731 120.557 19.9324 117.83 20.1563 115.121C20.3394 112.943 21.2553 111.369 23.0665 109.959C24.9389 108.495 27.1368 107.305 29.1516 106.006C31.3903 104.578 33.6289 103.132 35.8676 101.668C40.4059 98.684 44.9036 95.6272 49.3606 92.5338C58.132 86.4386 66.7 80.1054 75.0644 73.5709C84.4871 66.1944 93.6452 58.5616 102.539 50.6726C104.024 51.899 105.673 52.9972 107.179 54.1504C109.295 55.7611 111.432 57.3719 113.549 58.9826C117.802 62.2041 122.035 65.4256 126.289 68.6654C131.092 72.3079 135.895 75.9687 140.698 79.6112C140.983 88.8364 141.247 98.0616 141.532 107.269C132.293 100.222 123.44 92.7718 115.035 84.9194C115.36 84.5716 115.625 84.1689 115.849 83.7479C117.355 80.6728 114.933 77.0303 111.29 76.5178C109.316 76.2433 107.199 76.8839 106.161 78.4947C105.225 79.9224 105.123 81.7528 105.429 83.3452C105.775 85.1024 107.077 86.6948 108.99 87.244C109.906 87.5002 110.822 87.5185 111.677 87.2989C121.018 96.0482 130.909 104.322 141.288 112.082C141.41 112.174 141.552 112.266 141.695 112.339C141.898 119.166 142.102 125.994 142.305 132.821C142.204 132.876 142.122 132.949 142.041 133.022C141.268 133.718 141.166 135.054 142.041 135.731C157.447 147.739 173.097 159.508 188.971 171.021C193.103 174.023 197.275 177.007 201.447 179.972C201.06 192.016 200.673 204.078 200.287 216.122C200.205 218.593 204.479 218.593 204.56 216.122C204.927 204.353 205.313 192.565 205.68 180.796C206.331 180.082 206.473 178.709 205.578 178.068ZM21.8047 172.833C21.6826 173.895 21.1738 174.993 20.5226 175.927C21.2553 174.206 21.4588 172.303 20.9703 170.454C20.9703 170.417 20.9703 170.362 20.9703 170.326C21.6419 170.966 21.9268 171.753 21.8047 172.833Z" fill="#ABD0EF"/>
<path d="M99.2622 110.399C93.747 110.197 88.2725 110.509 82.8183 111.259C81.6786 111.424 81.0477 112.705 81.3326 113.62C81.6582 114.718 82.8183 115.121 83.958 114.956C89.0255 114.261 94.154 114.041 99.2622 114.243C102.01 114.352 102.01 110.509 99.2622 110.399Z" fill="#ABD0EF"/>
<path d="M86.2169 102.949C80.9255 103.571 75.5934 103.7 70.2817 103.315C69.1216 103.224 68.1448 104.267 68.1448 105.237C68.1448 106.354 69.1216 107.067 70.2817 107.159C75.5934 107.543 80.9255 107.415 86.2169 106.793C87.3566 106.665 88.3538 106.006 88.3538 104.871C88.3538 103.937 87.3769 102.821 86.2169 102.949Z" fill="#ABD0EF"/>
<path d="M117.009 119.514C112.653 119.807 108.298 120.118 103.923 120.411C102.763 120.484 101.786 121.235 101.786 122.333C101.786 123.303 102.763 124.328 103.923 124.255C108.278 123.962 112.633 123.651 117.009 123.358C118.169 123.285 119.145 122.534 119.145 121.436C119.145 120.466 118.169 119.441 117.009 119.514Z" fill="#ABD0EF"/>
<path d="M76.8147 118.782C72.5613 118.782 68.3282 119.093 64.1358 119.605C62.9961 119.752 62.3652 121.07 62.6501 121.967C62.9961 123.083 64.1358 123.449 65.2755 123.303C69.1015 122.827 72.9683 122.626 76.8351 122.607C79.5622 122.607 79.5622 118.763 76.8147 118.782Z" fill="#ABD0EF"/>
<path d="M396.637 160.223C395.864 159.527 394.378 159.435 393.625 160.223C392.139 161.778 390.308 162.785 388.09 163.243C385.403 163.792 386.543 167.507 389.229 166.94C392.099 166.354 394.724 164.945 396.657 162.932C397.39 162.163 397.492 161.01 396.637 160.223Z" fill="#ABD0EF"/>
<path d="M414.383 158.19C412.531 157.879 410.659 157.568 408.807 157.257C407.667 157.074 406.507 157.531 406.182 158.593C405.897 159.526 406.528 160.771 407.667 160.954C409.519 161.265 411.392 161.576 413.244 161.888C414.383 162.071 415.544 161.613 415.869 160.551C416.174 159.618 415.523 158.391 414.383 158.19Z" fill="#ABD0EF"/>
<path d="M430.828 175.396C429.891 172.742 427.938 170.527 425.231 169.173C422.829 167.965 420.672 171.278 423.074 172.486C424.804 173.365 426.106 174.701 426.717 176.421C427.551 178.764 431.662 177.757 430.828 175.396Z" fill="#ABD0EF"/>
<path d="M424.254 191.778C423.257 193.425 422.28 195.091 421.283 196.738C419.98 198.917 423.664 200.857 424.966 198.679C425.963 197.031 426.94 195.366 427.937 193.718C429.24 191.54 425.556 189.6 424.254 191.778Z" fill="#ABD0EF"/>
<path d="M414.79 207.776C414.18 206.824 412.898 206.623 411.86 207.081C409.988 207.923 408.115 208.765 406.263 209.607C405.225 210.064 404.94 211.382 405.49 212.242C406.1 213.194 407.382 213.395 408.42 212.938C410.293 212.096 412.165 211.254 414.017 210.412C415.055 209.936 415.34 208.618 414.79 207.776Z" fill="#ABD0EF"/>
<path d="M331.736 35.0962C331.187 31.4537 330.637 27.7929 330.088 24.1504C329.925 23.1253 328.46 22.5579 327.463 22.8142C326.221 23.1253 325.814 24.1504 325.977 25.1754C326.526 28.8179 327.076 32.4787 327.625 36.1212C327.788 37.1462 329.254 37.7136 330.251 37.4574C331.472 37.1645 331.879 36.1395 331.736 35.0962Z" fill="#ABD0EF"/>
<path d="M342.706 0.556512C341.932 -0.139039 340.447 -0.230559 339.694 0.556512C337.822 2.51504 335.949 4.47356 334.057 6.43208C333.304 7.21916 333.202 8.37231 334.057 9.14108C334.83 9.83663 336.316 9.92815 337.069 9.14108C338.941 7.18255 340.813 5.22402 342.706 3.2655C343.459 2.47843 343.561 1.32528 342.706 0.556512Z" fill="#ABD0EF"/>
<path d="M367.962 3.50309C365.764 3.04549 363.546 2.56958 361.348 2.11198C358.682 1.54455 357.522 5.26029 360.208 5.80942C362.406 6.26702 364.624 6.74293 366.822 7.20054C369.509 7.78627 370.648 4.07052 367.962 3.50309Z" fill="#ABD0EF"/>
<path d="M387.377 21.5877C387.031 19.6292 386.685 17.6707 386.36 15.7121C386.176 14.6871 384.752 14.1197 383.734 14.3759C382.513 14.6688 382.065 15.7121 382.249 16.7372C382.594 18.6957 382.94 20.6542 383.266 22.6127C383.449 23.6378 384.874 24.2052 385.891 23.9489C387.092 23.6561 387.56 22.6127 387.377 21.5877Z" fill="#ABD0EF"/>
<path d="M380.58 38.0798C379.644 37.5856 378.178 37.8418 377.649 38.7753C376.591 40.6972 375.024 42.2164 372.928 43.2597C370.526 44.4678 372.684 47.7808 375.085 46.5727C377.771 45.2366 379.969 43.1865 381.333 40.7155C381.862 39.782 381.618 38.6289 380.58 38.0798Z" fill="#ABD0EF"/>
<path d="M359.007 51.2949H353.411C350.664 51.2949 350.664 55.1388 353.411 55.1388H359.007C361.755 55.1388 361.755 51.2949 359.007 51.2949Z" fill="#ABD0EF"/>
<path d="M339.429 46.646L334.81 44.0651C332.469 42.7472 330.312 46.0785 332.652 47.3781L337.272 49.959C339.633 51.2586 341.77 47.9456 339.429 46.646Z" fill="#ABD0EF"/>
<path d="M17.2868 25.7244C13.766 29.2571 12.321 33.9063 13.1758 38.5738C13.3589 39.5988 14.7835 40.1663 15.8011 39.91C17.0018 39.6171 17.4903 38.5738 17.2868 37.5488C16.6966 34.309 17.8769 30.8678 20.2988 28.4334C22.1304 26.603 19.1184 23.8757 17.2868 25.7244Z" fill="#ABD0EF"/>
<path d="M41.2606 18.6043C40.6297 17.6159 39.4086 17.506 38.33 17.9087C36.6001 18.586 34.7278 18.6958 32.8758 18.4945C31.7361 18.3663 30.7389 19.4646 30.7389 20.4164C30.7389 21.5512 31.7158 22.2102 32.8758 22.3383C35.5215 22.6312 38.0654 22.1736 40.4872 21.2217C41.5659 20.8191 41.7897 19.4096 41.2606 18.6043Z" fill="#ABD0EF"/>
<path d="M56.1783 36.3224C54.9165 34.6567 53.6344 32.9911 52.3726 31.3254C51.7214 30.4652 50.5003 30.0808 49.442 30.6299C48.5058 31.1241 48.0174 32.4054 48.6687 33.2657C49.9304 34.9313 51.2126 36.597 52.4744 38.2626C53.1256 39.1229 54.3467 39.5073 55.405 38.9582C56.3411 38.4457 56.8296 37.1827 56.1783 36.3224Z" fill="#ABD0EF"/>
<path d="M47.5493 49.3183C46.8166 51.35 44.639 52.9242 42.2376 53.0706C41.0776 53.1438 40.1007 53.9126 40.1007 54.9925C40.1007 55.9809 41.0776 56.9877 42.2376 56.9145C46.5928 56.6582 50.317 54.0956 51.6806 50.3433C52.5353 47.9821 48.404 46.9753 47.5493 49.3183Z" fill="#ABD0EF"/>
<path d="M28.7852 53.034L24.1044 51.35C23.0258 50.9656 21.764 51.771 21.4791 52.6862C21.1535 53.7844 21.8861 54.663 22.9647 55.0474L27.6456 56.7314C28.7242 57.1158 29.986 56.3104 30.2709 55.3952C30.6169 54.3152 29.8639 53.4367 28.7852 53.034Z" fill="#ABD0EF"/>
<path d="M377.018 175.231C376.509 176.806 375.716 178.288 374.576 179.569C373.864 180.375 373.701 181.491 374.576 182.278C375.329 182.956 376.876 183.084 377.588 182.278C379.196 180.466 380.417 178.471 381.129 176.238C381.903 173.877 377.792 172.852 377.018 175.231Z" fill="#ABD0EF"/>
<path d="M382.615 199.118C382.269 197.672 381.903 196.226 381.557 194.78C381.312 193.774 379.99 193.17 378.931 193.444C377.771 193.737 377.181 194.799 377.446 195.805C377.792 197.251 378.158 198.697 378.504 200.143C378.748 201.15 380.071 201.754 381.129 201.48C382.269 201.187 382.859 200.125 382.615 199.118Z" fill="#ABD0EF"/>
<path d="M395.904 209.478C393.483 208.087 390.572 207.428 387.723 207.721C386.583 207.831 385.586 208.526 385.586 209.643C385.586 210.595 386.563 211.675 387.723 211.565C389.901 211.345 391.895 211.73 393.747 212.791C396.067 214.146 398.225 210.815 395.904 209.478Z" fill="#ABD0EF"/>
<path d="M447.455 102.876C446.071 102.674 444.687 102.473 443.303 102.272C443.69 100.313 443.751 98.2996 443.445 96.3594C443.364 95.8835 443.282 95.4076 443.16 94.9317C443.812 94.712 444.443 94.5107 445.094 94.291C446.213 93.9067 447.292 93.4491 447.658 92.3325C447.984 91.3441 447.577 90.4106 447.149 89.4954C446.722 88.5802 446.274 87.7016 445.704 86.8413C444.707 85.3404 443.181 82.9426 440.861 83.5283C439.823 83.7846 438.968 84.6265 438.154 85.2123C437.971 85.3404 437.808 85.4685 437.625 85.5967C437.482 85.4685 437.36 85.3404 437.218 85.2123C436.465 84.5533 435.671 83.9493 434.674 83.748C433.738 83.1073 432.659 82.668 431.54 82.3935C431.54 82.3752 431.54 82.3752 431.54 82.3568C431.377 80.4349 431.112 78.5313 430.746 76.6277C430.563 75.7308 429.566 75.3098 428.691 75.2183C427.205 75.0536 425.74 75.0719 424.254 75.2366C422.728 75.4196 420.774 75.6027 419.614 76.6277C418.454 77.6527 418.433 79.2635 418.494 80.6363C418.556 81.9725 418.8 83.3087 419.207 84.5899C418.779 84.8279 418.352 85.0841 417.945 85.3587C415.991 84.2971 413.264 83.4185 411.087 83.9859C409.784 84.3337 409.072 85.3587 408.38 86.3288C407.668 87.3355 406.955 88.3606 406.304 89.4039C405.673 90.4472 405.103 91.5455 404.635 92.662C404.187 93.7236 403.679 94.9317 404.106 96.0665C404.594 97.4027 406.182 97.9885 407.525 98.4461C408.237 98.7023 408.99 98.867 409.743 98.9952C409.642 100.88 409.845 102.766 410.374 104.633C408.237 105.493 406.345 106.719 405.531 108.879C405.022 110.27 405.327 111.625 405.877 112.961C406.487 114.499 407.098 116.018 407.708 117.555C408.278 119.001 409.988 119.331 411.27 118.397C413.264 116.97 415.32 115.615 417.416 114.334C418.332 114.956 419.329 115.505 420.367 115.926C421.14 116.238 421.934 116.494 422.728 116.659C422.667 117.702 422.687 118.745 422.809 119.77C422.931 120.887 423.074 122.022 424.05 122.827C425.78 124.255 429.118 123.541 431.112 122.973C433.229 122.351 435.956 121.381 436.017 119.02C436.058 117.555 435.305 116.036 434.389 114.718C435.834 113.895 437.116 112.906 438.235 111.771C439.172 112.687 440.494 113.51 441.695 113.529C443.71 113.529 444.626 111.478 445.542 110.179C446.6 108.696 447.638 107.214 448.696 105.731C449.408 104.724 448.818 103.077 447.455 102.876ZM428.141 102.4C426.635 103.663 424.457 104.102 422.626 103.168C420.428 102.052 420.57 99.709 421.222 97.7871C421.914 95.7188 423.806 93.2843 426.533 94.1629C426.92 94.291 427.327 94.2727 427.714 94.1629C428.813 94.7486 429.728 95.7371 430.095 96.7804C430.807 98.7755 429.79 101.009 428.141 102.4Z" fill="#ABD0EF"/>
<path d="M156.49 352.853C155.106 352.652 153.723 352.451 152.339 352.249C152.725 350.291 152.786 348.277 152.481 346.337C152.4 345.861 152.318 345.385 152.196 344.909C152.847 344.69 153.478 344.488 154.13 344.269C155.249 343.884 156.328 343.427 156.694 342.31C157.019 341.322 156.612 340.388 156.185 339.473C155.758 338.558 155.31 337.679 154.74 336.819C153.743 335.318 152.217 332.92 149.896 333.506C148.859 333.762 148.004 334.604 147.19 335.19C147.007 335.318 146.844 335.446 146.661 335.574C146.518 335.446 146.396 335.318 146.254 335.19C145.501 334.531 144.707 333.927 143.71 333.726C142.773 333.085 141.695 332.646 140.576 332.371C140.576 332.353 140.576 332.353 140.576 332.335C140.413 330.413 140.148 328.509 139.782 326.605C139.599 325.709 138.601 325.288 137.726 325.196C136.241 325.031 134.775 325.05 133.29 325.214C131.763 325.397 129.81 325.58 128.65 326.605C127.49 327.631 127.469 329.241 127.53 330.614C127.591 331.95 127.836 333.286 128.243 334.568C127.815 334.806 127.388 335.062 126.981 335.336C125.027 334.275 122.3 333.396 120.122 333.964C118.82 334.311 118.108 335.336 117.416 336.307C116.703 337.313 115.991 338.338 115.34 339.382C114.709 340.425 114.139 341.523 113.671 342.64C113.223 343.701 112.714 344.909 113.142 346.044C113.63 347.38 115.218 347.966 116.561 348.424C117.273 348.68 118.026 348.845 118.779 348.973C118.677 350.858 118.881 352.744 119.41 354.611C117.273 355.471 115.38 356.697 114.566 358.857C114.058 360.248 114.363 361.603 114.912 362.939C115.523 364.476 116.133 365.996 116.744 367.533C117.314 368.979 119.023 369.309 120.306 368.375C122.3 366.947 124.355 365.593 126.452 364.312C127.367 364.934 128.365 365.483 129.403 365.904C130.176 366.215 130.97 366.472 131.763 366.636C131.702 367.68 131.723 368.723 131.845 369.748C131.967 370.864 132.109 371.999 133.086 372.805C134.816 374.232 138.154 373.519 140.148 372.951C142.265 372.329 144.992 371.359 145.053 368.998C145.094 367.533 144.341 366.014 143.425 364.696C144.87 363.872 146.152 362.884 147.271 361.749C148.207 362.664 149.53 363.488 150.731 363.506C152.746 363.506 153.661 361.456 154.577 360.157C155.636 358.674 156.674 357.191 157.732 355.709C158.444 354.702 157.834 353.055 156.49 352.853ZM137.156 352.377C135.65 353.64 133.473 354.08 131.641 353.146C129.443 352.03 129.586 349.687 130.237 347.765C130.929 345.697 132.822 343.262 135.549 344.141C135.935 344.269 136.342 344.251 136.729 344.141C137.828 344.726 138.744 345.715 139.11 346.758C139.823 348.753 138.805 350.986 137.156 352.377Z" fill="#ABD0EF"/>
<path d="M104.024 315.66C100.158 311.706 96.2705 307.771 92.4037 303.817C91.6304 303.03 90.165 303.121 89.3917 303.817C88.5369 304.586 88.6183 305.757 89.3917 306.526C93.2585 310.48 97.1456 314.415 101.012 318.369C101.786 319.156 103.251 319.064 104.024 318.369C104.879 317.6 104.798 316.447 104.024 315.66Z" fill="#ABD0EF"/>
<path d="M74.4741 283.134C70.9329 279.143 67.4121 275.135 63.871 271.144C63.1587 270.339 61.5917 270.467 60.859 271.144C59.9635 271.95 60.1467 273.048 60.859 273.853C64.4001 277.844 67.9209 281.852 71.4621 285.843C72.1744 286.648 73.7414 286.52 74.4741 285.843C75.3695 285.055 75.2067 283.957 74.4741 283.134Z" fill="#ABD0EF"/>
<path d="M102.396 290.675C98.4074 285.11 93.523 280.095 87.8653 275.867C86.9699 275.208 85.7081 275.08 84.8533 275.867C84.1003 276.544 83.9579 277.917 84.8533 278.576C90.2465 282.603 94.9273 287.307 98.733 292.597C100.198 294.683 103.902 292.761 102.396 290.675Z" fill="#ABD0EF"/>
<path d="M47.6102 203.639C44.5575 198.917 39.897 194.945 34.219 192.931C29.3143 191.174 23.5752 191.064 18.5281 192.51C17.9583 192.345 17.307 192.4 16.6965 192.638C11.5476 194.707 8.04713 199.008 5.60496 203.438C2.81682 208.49 0.191496 214.182 0.00833329 219.893C-0.296937 229.649 7.82327 238.764 18.06 241.492C28.7852 244.365 40.4669 239.735 46.8776 231.827C53.4714 223.645 53.1254 212.205 47.6102 203.639ZM45.0256 227.215C40.7518 234.536 31.2681 239.515 22.0082 238.362C13.2164 237.263 5.58461 230.381 4.42459 222.456C3.63088 217.129 6.11375 211.656 8.53556 206.879C10.123 203.731 12.0971 200.582 14.9259 198.294C14.987 198.276 15.0277 198.239 15.0887 198.221C19.3421 195.732 24.6132 194.78 29.5992 195.713C34.7074 196.665 39.1033 199.502 42.1968 203.236C47.773 209.936 49.4418 219.637 45.0256 227.215Z" fill="#ABD0EF"/>
<path d="M40.3856 216.287C40.3245 213.816 36.0507 213.816 36.1118 216.287C36.2136 219.893 35.0739 223.645 32.0008 226.098C29.1313 228.386 24.9999 228.953 21.703 227.123C14.9667 223.389 13.3385 214.585 17.3478 208.728C19.5457 205.506 23.1276 203.218 27.1979 202.358C29.8843 201.79 28.7446 198.093 26.0582 198.66C21.3163 199.667 17.2257 202.266 14.3968 205.799C11.4459 209.46 10.4079 214.017 11.1202 218.465C11.8529 222.986 14.58 227.269 18.7113 229.96C23.0462 232.779 28.8056 232.742 33.2423 230.088C38.2894 227.05 40.5281 221.595 40.3856 216.287Z" fill="#ABD0EF"/>
</svg>
