<svg width="106" height="107" viewBox="0 0 106 107" fill="none" xmlns="http://www.w3.org/2000/svg">
<ellipse cx="53" cy="53.5" rx="53" ry="53.5" fill="#8573E7"/>
<ellipse cx="53" cy="53.5" rx="53" ry="53.5" fill="#8573E7"/>
<path d="M71.75 53.6683V64.1832C71.75 65.2987 71.311 66.3685 70.5296 67.1573C69.7482 67.946 68.6884 68.3892 67.5833 68.3892H38.4167C37.3116 68.3892 36.2518 67.946 35.4704 67.1573C34.689 66.3685 34.25 65.2987 34.25 64.1832V34.7414C34.25 33.6259 34.689 32.5561 35.4704 31.7673C36.2518 30.9785 37.3116 30.5354 38.4167 30.5354H48.8333V34.7414H38.4167V64.1832H67.5833V53.6683H71.75Z" fill="#FFFBFB"/>
<path d="M71.75 38.9474H63.4167V30.5354H59.25V38.9474H50.9167V43.1533H59.25V51.5653H63.4167V43.1533H71.75" fill="#FFFEFE"/>
</svg>
