<svg width="263" height="54" viewBox="0 0 263 54" fill="none" xmlns="http://www.w3.org/2000/svg">
<g filter="url(#filter0_d)">
<path d="M28.1247 28.3672L23.4138 36.0078C22.3513 35.8203 21.3669 35.6562 20.4606 35.5156C19.57 35.375 18.6872 35.2422 17.8122 35.1172C16.9528 35.0078 16.07 34.8906 15.1638 34.7656C14.2575 34.6406 13.2809 34.4922 12.2341 34.3203C11.8278 34.2422 11.4216 34.1875 11.0153 34.1562C10.6247 34.1094 10.2263 34.0859 9.82001 34.0859C8.96063 34.0859 8.13251 34.2031 7.33563 34.4375C6.55438 34.6719 5.80438 35.0391 5.08563 35.5391L4.35907 34.7656C4.68719 34.4844 4.96844 34.1484 5.20282 33.7578C5.43719 33.3672 5.63251 32.9531 5.78876 32.5156C5.96063 32.0625 6.08563 31.6094 6.16376 31.1562C6.24188 30.7031 6.28094 30.2734 6.28094 29.8672V16.0391C6.28094 13.8516 6.66376 11.8125 7.42938 9.92188C8.19501 8.03125 9.24969 6.39062 10.5934 5C11.9528 3.59375 13.5466 2.49219 15.3747 1.69531C17.2184 0.882812 19.2106 0.476562 21.3513 0.476562C22.0388 0.476562 22.7028 0.554687 23.3434 0.710938C23.9841 0.867188 24.5466 1.11719 25.0309 1.46094C25.5309 1.80469 25.9294 2.25 26.2263 2.79688C26.5231 3.34375 26.6716 4.01562 26.6716 4.8125C26.6716 5.51562 26.5388 6.19531 26.2731 6.85156C26.0075 7.50781 25.6403 8.13281 25.1716 8.72656C24.7184 9.32031 24.1872 9.875 23.5778 10.3906C22.9841 10.8906 22.3591 11.3438 21.7028 11.75C21.0466 12.1562 20.3747 12.5 19.6872 12.7812C18.9997 13.0625 18.3513 13.2812 17.7419 13.4375L17.3669 12.5469C17.8981 12.2344 18.445 11.875 19.0075 11.4688C19.5856 11.0625 20.1091 10.6172 20.5778 10.1328C21.0466 9.63281 21.4294 9.09375 21.7263 8.51562C22.0231 7.92188 22.1716 7.28125 22.1716 6.59375C22.1716 6.04688 22.07 5.54687 21.8669 5.09375C21.6638 4.625 21.3825 4.22656 21.0231 3.89844C20.6794 3.57031 20.2731 3.3125 19.8044 3.125C19.3513 2.9375 18.8591 2.84375 18.3278 2.84375C17.1559 2.84375 16.1247 3.09375 15.2341 3.59375C14.3434 4.09375 13.5934 4.75 12.9841 5.5625C12.3747 6.375 11.9138 7.29688 11.6013 8.32812C11.2888 9.35938 11.1325 10.4063 11.1325 11.4688V26.5625C11.1325 27.1562 11.0466 27.7344 10.8747 28.2969C10.7028 28.8438 10.4684 29.375 10.1716 29.8906C9.89032 30.3906 9.55438 30.8672 9.16376 31.3203C8.77313 31.7734 8.35907 32.1875 7.92157 32.5625C8.42157 32.2031 8.90594 31.875 9.37469 31.5781C9.84344 31.2656 10.32 31 10.8044 30.7812C11.3044 30.5625 11.82 30.3984 12.3513 30.2891C12.8825 30.1641 13.4684 30.1016 14.1091 30.1016C14.8903 30.1016 15.5856 30.1406 16.195 30.2188C16.8044 30.2969 17.3981 30.3828 17.9763 30.4766C18.57 30.5547 19.1716 30.6328 19.7809 30.7109C20.3903 30.7891 21.0856 30.8281 21.8669 30.8281C22.4138 30.8281 22.9372 30.75 23.4372 30.5938C23.9528 30.4219 24.4372 30.1953 24.8903 29.9141C25.3434 29.6328 25.7653 29.3125 26.1559 28.9531C26.5622 28.5781 26.9294 28.1797 27.2575 27.7578L28.1247 28.3672ZM39.2041 35.5391C38.0478 35.5391 36.9619 35.3359 35.9463 34.9297C34.9463 34.5078 34.0713 33.9297 33.3213 33.1953C32.5869 32.4609 32.0009 31.6016 31.5634 30.6172C31.1416 29.6172 30.9306 28.5312 30.9306 27.3594C30.9306 26.0312 31.1494 24.7891 31.5869 23.6328C32.0244 22.4609 32.6259 21.4062 33.3916 20.4688C34.1728 19.5312 35.0869 18.7188 36.1338 18.0312C37.1963 17.3438 38.3447 16.8047 39.5791 16.4141L40.2588 17.2344C39.5556 17.75 38.8994 18.3438 38.29 19.0156C37.6806 19.6719 37.1494 20.3906 36.6963 21.1719C36.2431 21.9375 35.8838 22.75 35.6181 23.6094C35.3525 24.4531 35.2197 25.3203 35.2197 26.2109C35.2197 26.9609 35.3291 27.75 35.5478 28.5781C35.7666 29.4062 36.0947 30.1641 36.5322 30.8516C36.9697 31.5391 37.5166 32.1094 38.1728 32.5625C38.8447 33 39.6181 33.2188 40.4931 33.2188C41.2744 33.2188 41.9463 33.0781 42.5088 32.7969C43.0869 32.5156 43.5634 32.1328 43.9384 31.6484C44.3134 31.1641 44.5947 30.6016 44.7822 29.9609C44.9697 29.3047 45.0634 28.6172 45.0634 27.8984C45.0634 27.0547 44.8994 26.1953 44.5713 25.3203C44.2431 24.4297 43.79 23.6094 43.2119 22.8594C42.6494 22.1094 41.9853 21.4844 41.2197 20.9844C40.4541 20.4844 39.6338 20.1953 38.7588 20.1172C39.3056 19.4922 39.9072 18.9141 40.5634 18.3828C41.2197 17.8516 41.8838 17.3438 42.5556 16.8594C43.4619 17.1562 44.2588 17.5938 44.9463 18.1719C45.6494 18.75 46.2353 19.4141 46.7041 20.1641C47.1884 20.9141 47.5556 21.7344 47.8056 22.625C48.0556 23.5 48.1806 24.3906 48.1806 25.2969C48.1806 26.5312 47.9619 27.7578 47.5244 28.9766C47.1025 30.1953 46.4931 31.2969 45.6963 32.2812C44.915 33.25 43.9697 34.0391 42.8603 34.6484C41.7666 35.2422 40.5478 35.5391 39.2041 35.5391ZM67.7444 33.2656C67.7444 34.1875 67.6194 35.125 67.3694 36.0781C67.1194 37.0469 66.76 37.9922 66.2913 38.9141C65.8381 39.8359 65.2913 40.7031 64.6506 41.5156C64.01 42.3438 63.2913 43.0625 62.4944 43.6719C61.7131 44.2812 60.8616 44.7656 59.9397 45.125C59.0334 45.4844 58.0881 45.6641 57.1038 45.6641C56.4788 45.6641 55.8772 45.5625 55.2991 45.3594C54.7366 45.1562 54.2288 44.8359 53.7756 44.3984L56.8694 41.4688C57.1975 41.9062 57.5803 42.2578 58.0178 42.5234C58.4553 42.7891 58.9475 42.9219 59.4944 42.9219C60.2913 42.9219 60.9397 42.7656 61.4397 42.4531C61.9397 42.1562 62.3381 41.75 62.635 41.2344C62.9319 40.7344 63.1428 40.1562 63.2678 39.5C63.3928 38.8594 63.4709 38.1953 63.5022 37.5078C63.5334 36.8203 63.5334 36.1484 63.5022 35.4922C63.4866 34.8359 63.4788 34.2422 63.4788 33.7109V31.0156C63.1975 31.5469 62.8772 32.0781 62.5178 32.6094C62.1741 33.1406 61.7756 33.6172 61.3225 34.0391C60.885 34.4609 60.3928 34.8047 59.8459 35.0703C59.2991 35.3359 58.6897 35.4688 58.0178 35.4688C57.0022 35.4688 56.1038 35.2734 55.3225 34.8828C54.5413 34.4922 53.885 33.9688 53.3538 33.3125C52.8225 32.6406 52.4241 31.8594 52.1584 30.9688C51.8928 30.0781 51.76 29.1328 51.76 28.1328C51.76 27.2266 51.8694 26.3125 52.0881 25.3906C52.3069 24.4531 52.6116 23.5547 53.0022 22.6953C53.4084 21.8359 53.9006 21.0312 54.4788 20.2812C55.0725 19.5312 55.7288 18.8828 56.4475 18.3359C57.1819 17.7734 57.9866 17.3359 58.8616 17.0234C59.7366 16.6953 60.6663 16.5312 61.6506 16.5312C62.2444 16.5312 62.8381 16.6016 63.4319 16.7422C64.0256 16.8828 64.5881 17.1016 65.1194 17.3984C65.6663 17.6797 66.1584 18.0312 66.5959 18.4531C67.0491 18.875 67.4163 19.3672 67.6975 19.9297L64.2053 21.4062C64.0178 21.1094 63.7991 20.8125 63.5491 20.5156C63.3147 20.2031 63.0491 19.9219 62.7522 19.6719C62.4709 19.4219 62.1584 19.2188 61.8147 19.0625C61.4866 18.9062 61.1428 18.8281 60.7834 18.8281C60.2522 18.8281 59.7522 18.9531 59.2834 19.2031C58.8303 19.4531 58.4084 19.7812 58.0178 20.1875C57.6428 20.5938 57.3069 21.0625 57.01 21.5938C56.7131 22.1094 56.4631 22.6484 56.26 23.2109C56.0569 23.7734 55.9006 24.3281 55.7913 24.875C55.6975 25.4219 55.6506 25.9141 55.6506 26.3516C55.6506 26.9453 55.7053 27.6172 55.8147 28.3672C55.9397 29.1016 56.1506 29.7969 56.4475 30.4531C56.7444 31.1094 57.135 31.6641 57.6194 32.1172C58.1038 32.5703 58.7131 32.7969 59.4475 32.7969C60.0256 32.7969 60.5256 32.6719 60.9475 32.4219C61.3694 32.1562 61.7288 31.8203 62.0256 31.4141C62.3225 30.9922 62.5647 30.5156 62.7522 29.9844C62.9553 29.4375 63.1038 28.8828 63.1975 28.3203C63.3069 27.7578 63.3772 27.2031 63.4084 26.6562C63.4553 26.0938 63.4788 25.5938 63.4788 25.1562V23.5391L67.7444 22.0391V33.2656ZM88.3863 33.2656C88.3863 34.1875 88.2613 35.125 88.0113 36.0781C87.7613 37.0469 87.4019 37.9922 86.9331 38.9141C86.48 39.8359 85.9331 40.7031 85.2925 41.5156C84.6519 42.3438 83.9331 43.0625 83.1363 43.6719C82.355 44.2812 81.5034 44.7656 80.5816 45.125C79.6753 45.4844 78.73 45.6641 77.7456 45.6641C77.1206 45.6641 76.5191 45.5625 75.9409 45.3594C75.3784 45.1562 74.8706 44.8359 74.4175 44.3984L77.5113 41.4688C77.8394 41.9062 78.2222 42.2578 78.6597 42.5234C79.0972 42.7891 79.5894 42.9219 80.1363 42.9219C80.9331 42.9219 81.5816 42.7656 82.0816 42.4531C82.5816 42.1562 82.98 41.75 83.2769 41.2344C83.5738 40.7344 83.7847 40.1562 83.9097 39.5C84.0347 38.8594 84.1128 38.1953 84.1441 37.5078C84.1753 36.8203 84.1753 36.1484 84.1441 35.4922C84.1284 34.8359 84.1206 34.2422 84.1206 33.7109V31.0156C83.8394 31.5469 83.5191 32.0781 83.1597 32.6094C82.8159 33.1406 82.4175 33.6172 81.9644 34.0391C81.5269 34.4609 81.0347 34.8047 80.4878 35.0703C79.9409 35.3359 79.3316 35.4688 78.6597 35.4688C77.6441 35.4688 76.7456 35.2734 75.9644 34.8828C75.1831 34.4922 74.5269 33.9688 73.9956 33.3125C73.4644 32.6406 73.0659 31.8594 72.8003 30.9688C72.5347 30.0781 72.4019 29.1328 72.4019 28.1328C72.4019 27.2266 72.5113 26.3125 72.73 25.3906C72.9488 24.4531 73.2534 23.5547 73.6441 22.6953C74.0503 21.8359 74.5425 21.0312 75.1206 20.2812C75.7144 19.5312 76.3706 18.8828 77.0894 18.3359C77.8238 17.7734 78.6284 17.3359 79.5034 17.0234C80.3784 16.6953 81.3081 16.5312 82.2925 16.5312C82.8863 16.5312 83.48 16.6016 84.0738 16.7422C84.6675 16.8828 85.23 17.1016 85.7613 17.3984C86.3081 17.6797 86.8003 18.0312 87.2378 18.4531C87.6909 18.875 88.0581 19.3672 88.3394 19.9297L84.8472 21.4062C84.6597 21.1094 84.4409 20.8125 84.1909 20.5156C83.9566 20.2031 83.6909 19.9219 83.3941 19.6719C83.1128 19.4219 82.8003 19.2188 82.4566 19.0625C82.1284 18.9062 81.7847 18.8281 81.4253 18.8281C80.8941 18.8281 80.3941 18.9531 79.9253 19.2031C79.4722 19.4531 79.0503 19.7812 78.6597 20.1875C78.2847 20.5938 77.9488 21.0625 77.6519 21.5938C77.355 22.1094 77.105 22.6484 76.9019 23.2109C76.6988 23.7734 76.5425 24.3281 76.4331 24.875C76.3394 25.4219 76.2925 25.9141 76.2925 26.3516C76.2925 26.9453 76.3472 27.6172 76.4566 28.3672C76.5816 29.1016 76.7925 29.7969 77.0894 30.4531C77.3863 31.1094 77.7769 31.6641 78.2613 32.1172C78.7456 32.5703 79.355 32.7969 80.0894 32.7969C80.6675 32.7969 81.1675 32.6719 81.5894 32.4219C82.0113 32.1562 82.3706 31.8203 82.6675 31.4141C82.9644 30.9922 83.2066 30.5156 83.3941 29.9844C83.5972 29.4375 83.7456 28.8828 83.8394 28.3203C83.9488 27.7578 84.0191 27.2031 84.0503 26.6562C84.0972 26.0938 84.1206 25.5938 84.1206 25.1562V23.5391L88.3863 22.0391V33.2656ZM98.9031 4.41406L97.6609 12.9688L95.3641 13.6953L93.9578 6.10156L98.9031 4.41406ZM102.138 32.2578C101.778 33.0234 101.356 33.6094 100.872 34.0156C100.403 34.4219 99.95 34.7188 99.5125 34.9062C98.9969 35.125 98.4734 35.25 97.9422 35.2812C97.2547 35.2812 96.6844 35.1719 96.2313 34.9531C95.7781 34.7344 95.4188 34.4453 95.1531 34.0859C94.8875 33.7266 94.7 33.3203 94.5906 32.8672C94.4969 32.4141 94.45 31.9531 94.45 31.4844V18.3359L98.7625 16.8594V31.6016C98.7625 31.9766 98.8484 32.2734 99.0203 32.4922C99.1922 32.7109 99.4109 32.8281 99.6766 32.8438C99.9578 32.8438 100.255 32.7422 100.567 32.5391C100.895 32.3359 101.208 32.0078 101.505 31.5547L102.138 32.2578ZM125.147 32.2578C124.959 32.6641 124.717 33.0469 124.42 33.4062C124.123 33.7656 123.787 34.0859 123.412 34.3672C123.053 34.6484 122.662 34.8672 122.24 35.0234C121.818 35.1953 121.381 35.2812 120.928 35.2812C119.693 35.2812 118.795 34.9453 118.233 34.2734C117.686 33.5859 117.412 32.6562 117.412 31.4844V21.9453C117.412 21.8359 117.404 21.7109 117.389 21.5703C117.389 21.4141 117.365 21.2734 117.318 21.1484C117.272 21.0078 117.209 20.8906 117.131 20.7969C117.053 20.7031 116.943 20.6562 116.803 20.6562C116.365 20.6562 115.92 20.9219 115.467 21.4531C115.029 21.9844 114.6 22.6719 114.178 23.5156C113.772 24.3594 113.389 25.3047 113.029 26.3516C112.686 27.3984 112.381 28.4375 112.115 29.4688C111.85 30.4844 111.639 31.4375 111.483 32.3281C111.342 33.2188 111.272 33.9297 111.272 34.4609L107.006 35.9609V20.2109C107.006 19.8984 106.928 19.6172 106.772 19.3672C106.615 19.1016 106.373 18.9688 106.045 18.9688C105.654 18.9688 105.295 19.1172 104.967 19.4141C104.654 19.6953 104.404 19.9766 104.217 20.2578L103.584 19.5547C103.772 19.1641 104.006 18.7891 104.287 18.4297C104.584 18.0547 104.912 17.7266 105.272 17.4453C105.647 17.1641 106.045 16.9453 106.467 16.7891C106.904 16.6172 107.358 16.5312 107.826 16.5312C109.045 16.5312 109.92 16.875 110.451 17.5625C110.998 18.2344 111.272 19.1484 111.272 20.3047V27.9453C111.412 27.3047 111.6 26.5781 111.834 25.7656C112.084 24.9375 112.381 24.1016 112.725 23.2578C113.068 22.4141 113.451 21.5938 113.873 20.7969C114.311 19.9844 114.787 19.2656 115.303 18.6406C115.818 18 116.381 17.4922 116.99 17.1172C117.6 16.7266 118.256 16.5312 118.959 16.5312C119.693 16.5312 120.248 16.6953 120.623 17.0234C120.998 17.3359 121.264 17.7422 121.42 18.2422C121.592 18.7266 121.686 19.2656 121.701 19.8594C121.717 20.4531 121.725 21.0234 121.725 21.5703V31.6016C121.725 31.9141 121.803 32.2031 121.959 32.4688C122.115 32.7188 122.358 32.8438 122.686 32.8438C123.045 32.8438 123.381 32.7031 123.693 32.4219C124.022 32.125 124.279 31.8359 124.467 31.5547L125.147 32.2578ZM143.562 33.2656C143.562 34.1875 143.437 35.125 143.187 36.0781C142.937 37.0469 142.578 37.9922 142.109 38.9141C141.656 39.8359 141.109 40.7031 140.468 41.5156C139.828 42.3438 139.109 43.0625 138.312 43.6719C137.531 44.2812 136.679 44.7656 135.757 45.125C134.851 45.4844 133.906 45.6641 132.921 45.6641C132.296 45.6641 131.695 45.5625 131.117 45.3594C130.554 45.1562 130.046 44.8359 129.593 44.3984L132.687 41.4688C133.015 41.9062 133.398 42.2578 133.835 42.5234C134.273 42.7891 134.765 42.9219 135.312 42.9219C136.109 42.9219 136.757 42.7656 137.257 42.4531C137.757 42.1562 138.156 41.75 138.453 41.2344C138.749 40.7344 138.96 40.1562 139.085 39.5C139.21 38.8594 139.288 38.1953 139.32 37.5078C139.351 36.8203 139.351 36.1484 139.32 35.4922C139.304 34.8359 139.296 34.2422 139.296 33.7109V31.0156C139.015 31.5469 138.695 32.0781 138.335 32.6094C137.992 33.1406 137.593 33.6172 137.14 34.0391C136.703 34.4609 136.21 34.8047 135.663 35.0703C135.117 35.3359 134.507 35.4688 133.835 35.4688C132.82 35.4688 131.921 35.2734 131.14 34.8828C130.359 34.4922 129.703 33.9688 129.171 33.3125C128.64 32.6406 128.242 31.8594 127.976 30.9688C127.71 30.0781 127.578 29.1328 127.578 28.1328C127.578 27.2266 127.687 26.3125 127.906 25.3906C128.124 24.4531 128.429 23.5547 128.82 22.6953C129.226 21.8359 129.718 21.0312 130.296 20.2812C130.89 19.5312 131.546 18.8828 132.265 18.3359C132.999 17.7734 133.804 17.3359 134.679 17.0234C135.554 16.6953 136.484 16.5312 137.468 16.5312C138.062 16.5312 138.656 16.6016 139.249 16.7422C139.843 16.8828 140.406 17.1016 140.937 17.3984C141.484 17.6797 141.976 18.0312 142.413 18.4531C142.867 18.875 143.234 19.3672 143.515 19.9297L140.023 21.4062C139.835 21.1094 139.617 20.8125 139.367 20.5156C139.132 20.2031 138.867 19.9219 138.57 19.6719C138.288 19.4219 137.976 19.2188 137.632 19.0625C137.304 18.9062 136.96 18.8281 136.601 18.8281C136.07 18.8281 135.57 18.9531 135.101 19.2031C134.648 19.4531 134.226 19.7812 133.835 20.1875C133.46 20.5938 133.124 21.0625 132.828 21.5938C132.531 22.1094 132.281 22.6484 132.078 23.2109C131.874 23.7734 131.718 24.3281 131.609 24.875C131.515 25.4219 131.468 25.9141 131.468 26.3516C131.468 26.9453 131.523 27.6172 131.632 28.3672C131.757 29.1016 131.968 29.7969 132.265 30.4531C132.562 31.1094 132.953 31.6641 133.437 32.1172C133.921 32.5703 134.531 32.7969 135.265 32.7969C135.843 32.7969 136.343 32.6719 136.765 32.4219C137.187 32.1562 137.546 31.8203 137.843 31.4141C138.14 30.9922 138.382 30.5156 138.57 29.9844C138.773 29.4375 138.921 28.8828 139.015 28.3203C139.124 27.7578 139.195 27.2031 139.226 26.6562C139.273 26.0938 139.296 25.5938 139.296 25.1562V23.5391L143.562 22.0391V33.2656ZM189.932 18.2422C189.932 19.6797 189.775 21.1172 189.463 22.5547C189.15 23.9766 188.689 25.3359 188.08 26.6328C187.486 27.9141 186.752 29.1094 185.877 30.2188C185.018 31.3281 184.025 32.2969 182.9 33.125C181.775 33.9375 180.533 34.5703 179.174 35.0234C177.83 35.4922 176.377 35.7266 174.814 35.7266C173.252 35.7266 171.791 35.4922 170.432 35.0234C169.088 34.5703 167.853 33.9375 166.728 33.125C165.603 32.2969 164.603 31.3281 163.728 30.2188C162.853 29.1094 162.111 27.9141 161.502 26.6328C160.893 25.3359 160.432 23.9766 160.119 22.5547C159.807 21.1172 159.65 19.6797 159.65 18.2422C159.65 16.8047 159.807 15.375 160.119 13.9531C160.432 12.5312 160.893 11.1797 161.502 9.89844C162.111 8.60156 162.853 7.39844 163.728 6.28906C164.603 5.16406 165.603 4.19531 166.728 3.38281C167.853 2.57031 169.088 1.9375 170.432 1.48438C171.791 1.01562 173.252 0.78125 174.814 0.78125C176.377 0.78125 177.83 1.01562 179.174 1.48438C180.533 1.9375 181.775 2.57031 182.9 3.38281C184.025 4.19531 185.018 5.16406 185.877 6.28906C186.752 7.39844 187.486 8.60156 188.08 9.89844C188.689 11.1797 189.15 12.5312 189.463 13.9531C189.775 15.375 189.932 16.8047 189.932 18.2422ZM172.705 3.17188C171.689 3.17188 170.783 3.35156 169.986 3.71094C169.205 4.05469 168.51 4.53125 167.9 5.14062C167.291 5.73437 166.775 6.42969 166.353 7.22656C165.932 8.00781 165.588 8.83594 165.322 9.71094C165.057 10.5859 164.861 11.4766 164.736 12.3828C164.611 13.2891 164.549 14.1562 164.549 14.9844C164.549 16.2188 164.643 17.5312 164.83 18.9219C165.018 20.2969 165.314 21.6562 165.721 23C166.143 24.3438 166.674 25.6328 167.314 26.8672C167.971 28.0859 168.76 29.1641 169.682 30.1016C170.603 31.0391 171.658 31.7891 172.846 32.3516C174.049 32.8984 175.408 33.1719 176.924 33.1719C177.924 33.1719 178.814 33 179.596 32.6562C180.393 32.2969 181.096 31.8203 181.705 31.2266C182.314 30.6172 182.83 29.9141 183.252 29.1172C183.674 28.3203 184.018 27.4844 184.283 26.6094C184.564 25.7344 184.768 24.8438 184.893 23.9375C185.018 23.0156 185.08 22.1406 185.08 21.3125C185.08 20.0781 184.986 18.7734 184.799 17.3984C184.611 16.0234 184.307 14.6641 183.885 13.3203C183.478 11.9766 182.947 10.6953 182.291 9.47656C181.65 8.24219 180.869 7.16406 179.947 6.24219C179.025 5.30469 177.963 4.5625 176.76 4.01562C175.572 3.45312 174.221 3.17188 172.705 3.17188ZM213.972 32.2578C213.613 33.0234 213.191 33.6094 212.706 34.0156C212.222 34.4219 211.761 34.7188 211.323 34.9062C210.808 35.125 210.284 35.25 209.753 35.2812C209.05 35.2812 208.472 35.1719 208.019 34.9531C207.581 34.7344 207.23 34.4453 206.964 34.0859C206.698 33.7266 206.511 33.3203 206.402 32.8672C206.308 32.4141 206.261 31.9531 206.261 31.4844V24.0078C206.136 24.5703 205.972 25.2422 205.769 26.0234C205.581 26.8047 205.347 27.625 205.066 28.4844C204.784 29.3281 204.456 30.1719 204.081 31.0156C203.706 31.8438 203.269 32.5859 202.769 33.2422C202.284 33.8984 201.73 34.4375 201.105 34.8594C200.495 35.2656 199.808 35.4688 199.042 35.4688C198.402 35.4688 197.894 35.3438 197.519 35.0938C197.159 34.8594 196.886 34.5234 196.698 34.0859C196.527 33.6328 196.417 33.1016 196.37 32.4922C196.339 31.8672 196.323 31.1797 196.323 30.4297V20.2578C196.323 19.8828 196.238 19.5859 196.066 19.3672C195.894 19.1484 195.667 19.0391 195.386 19.0391C195.12 19.0234 194.823 19.1172 194.495 19.3203C194.167 19.5234 193.847 19.8516 193.534 20.3047L192.902 19.6016C193.261 18.8516 193.675 18.2734 194.144 17.8672C194.613 17.4453 195.073 17.1406 195.527 16.9531C196.042 16.7344 196.573 16.6094 197.12 16.5781C197.823 16.5781 198.394 16.6875 198.831 16.9062C199.284 17.125 199.636 17.4141 199.886 17.7734C200.152 18.1172 200.331 18.5156 200.425 18.9688C200.534 19.4219 200.589 19.8828 200.589 20.3516V30.0547C200.589 30.6641 200.698 31.0625 200.917 31.25C201.136 31.4375 201.417 31.4141 201.761 31.1797C202.12 30.9297 202.511 30.4844 202.933 29.8438C203.37 29.1875 203.808 28.3281 204.245 27.2656C204.527 26.25 204.8 25.2031 205.066 24.125C205.284 23.2031 205.503 22.1875 205.722 21.0781C205.956 19.9688 206.136 18.8984 206.261 17.8672L210.573 16.3672V31.6016C210.573 31.9766 210.659 32.2734 210.831 32.4922C211.003 32.7109 211.222 32.8281 211.488 32.8438C211.753 32.8438 212.042 32.7422 212.355 32.5391C212.683 32.3359 213.003 32.0078 213.316 31.5547L213.972 32.2578ZM226.083 32.2578C225.723 33.0234 225.309 33.6094 224.84 34.0156C224.372 34.4219 223.911 34.7188 223.458 34.9062C222.942 35.125 222.411 35.25 221.864 35.2812C221.161 35.2812 220.583 35.1719 220.129 34.9531C219.692 34.7344 219.34 34.4453 219.075 34.0859C218.825 33.7266 218.645 33.3203 218.536 32.8672C218.442 32.4141 218.395 31.9531 218.395 31.4844V19.2031H215.911L216.918 16.8594H218.395V8.5625L222.684 7.0625V16.8594H227.137L226.176 19.2031H222.684V31.6016C222.684 31.9766 222.77 32.2734 222.942 32.4922C223.114 32.7109 223.333 32.8281 223.598 32.8438C223.864 32.8438 224.161 32.7422 224.489 32.5391C224.817 32.3359 225.137 32.0078 225.45 31.5547L226.083 32.2578ZM236.248 33.2188C236.248 33.5938 236.17 33.9453 236.013 34.2734C235.873 34.6016 235.678 34.8828 235.428 35.1172C235.193 35.3672 234.904 35.5625 234.56 35.7031C234.232 35.8438 233.881 35.9141 233.506 35.9141C233.131 35.9141 232.779 35.8438 232.451 35.7031C232.138 35.5625 231.857 35.3672 231.607 35.1172C231.357 34.8828 231.162 34.6016 231.021 34.2734C230.881 33.9453 230.81 33.5938 230.81 33.2188C230.81 32.8438 230.881 32.4922 231.021 32.1641C231.162 31.8359 231.357 31.5469 231.607 31.2969C231.857 31.0469 232.138 30.8516 232.451 30.7109C232.779 30.5547 233.131 30.4766 233.506 30.4766C233.881 30.4766 234.232 30.5547 234.56 30.7109C234.904 30.8516 235.193 31.0469 235.428 31.2969C235.678 31.5469 235.873 31.8359 236.013 32.1641C236.17 32.4922 236.248 32.8438 236.248 33.2188ZM247.233 33.2188C247.233 33.5938 247.155 33.9453 246.999 34.2734C246.858 34.6016 246.663 34.8828 246.413 35.1172C246.179 35.3672 245.89 35.5625 245.546 35.7031C245.218 35.8438 244.866 35.9141 244.491 35.9141C244.116 35.9141 243.765 35.8438 243.437 35.7031C243.124 35.5625 242.843 35.3672 242.593 35.1172C242.343 34.8828 242.148 34.6016 242.007 34.2734C241.866 33.9453 241.796 33.5938 241.796 33.2188C241.796 32.8438 241.866 32.4922 242.007 32.1641C242.148 31.8359 242.343 31.5469 242.593 31.2969C242.843 31.0469 243.124 30.8516 243.437 30.7109C243.765 30.5547 244.116 30.4766 244.491 30.4766C244.866 30.4766 245.218 30.5547 245.546 30.7109C245.89 30.8516 246.179 31.0469 246.413 31.2969C246.663 31.5469 246.858 31.8359 246.999 32.1641C247.155 32.4922 247.233 32.8438 247.233 33.2188ZM258.219 33.2188C258.219 33.5938 258.141 33.9453 257.985 34.2734C257.844 34.6016 257.649 34.8828 257.399 35.1172C257.164 35.3672 256.875 35.5625 256.532 35.7031C256.203 35.8438 255.852 35.9141 255.477 35.9141C255.102 35.9141 254.75 35.8438 254.422 35.7031C254.11 35.5625 253.828 35.3672 253.578 35.1172C253.328 34.8828 253.133 34.6016 252.993 34.2734C252.852 33.9453 252.782 33.5938 252.782 33.2188C252.782 32.8438 252.852 32.4922 252.993 32.1641C253.133 31.8359 253.328 31.5469 253.578 31.2969C253.828 31.0469 254.11 30.8516 254.422 30.7109C254.75 30.5547 255.102 30.4766 255.477 30.4766C255.852 30.4766 256.203 30.5547 256.532 30.7109C256.875 30.8516 257.164 31.0469 257.399 31.2969C257.649 31.5469 257.844 31.8359 257.985 32.1641C258.141 32.4922 258.219 32.8438 258.219 33.2188Z" fill="#6950ED"/>
</g>
<defs>
<filter id="filter0_d" x="0.35907" y="0.476562" width="261.86" height="53.1875" filterUnits="userSpaceOnUse" color-interpolation-filters="sRGB">
<feFlood flood-opacity="0" result="BackgroundImageFix"/>
<feColorMatrix in="SourceAlpha" type="matrix" values="0 0 0 0 0 0 0 0 0 0 0 0 0 0 0 0 0 0 127 0"/>
<feOffset dy="4"/>
<feGaussianBlur stdDeviation="2"/>
<feColorMatrix type="matrix" values="0 0 0 0 0 0 0 0 0 0 0 0 0 0 0 0 0 0 0.35 0"/>
<feBlend mode="normal" in2="BackgroundImageFix" result="effect1_dropShadow"/>
<feBlend mode="normal" in="SourceGraphic" in2="effect1_dropShadow" result="shape"/>
</filter>
</defs>
</svg>
