<svg width="467" height="84" viewBox="0 0 467 84" fill="none" xmlns="http://www.w3.org/2000/svg">
<g filter="url(#filter0_d)">
<path d="M43.6531 46.9453L35.8016 59.6797C34.0307 59.3672 32.3901 59.0938 30.8797 58.8594C29.3953 58.625 27.924 58.4036 26.4656 58.1953C25.0333 58.013 23.562 57.8177 22.0516 57.6094C20.5411 57.401 18.9135 57.1536 17.1687 56.8672C16.4917 56.737 15.8146 56.6458 15.1375 56.5938C14.4865 56.5156 13.8224 56.4766 13.1453 56.4766C11.713 56.4766 10.3328 56.6719 9.00468 57.0625C7.7026 57.4531 6.4526 58.0651 5.25468 58.8984L4.04375 57.6094C4.59062 57.1406 5.05937 56.5807 5.45 55.9297C5.84062 55.2786 6.16614 54.5885 6.42656 53.8594C6.71302 53.1042 6.92135 52.349 7.05156 51.5938C7.18177 50.8385 7.24687 50.1224 7.24687 49.4453V26.3984C7.24687 22.7526 7.88489 19.3542 9.16093 16.2031C10.437 13.0521 12.1948 10.3177 14.4344 8C16.7 5.65625 19.3562 3.82031 22.4031 2.49219C25.476 1.13802 28.7964 0.460938 32.3641 0.460938C33.5099 0.460938 34.6167 0.591146 35.6844 0.851562C36.7521 1.11198 37.6896 1.52865 38.4969 2.10156C39.3302 2.67448 39.9943 3.41667 40.4891 4.32812C40.9839 5.23958 41.2312 6.35938 41.2312 7.6875C41.2312 8.85938 41.0099 9.99219 40.5672 11.0859C40.1245 12.1797 39.5125 13.2214 38.7312 14.2109C37.976 15.2005 37.0906 16.125 36.075 16.9844C35.0854 17.8177 34.0437 18.5729 32.95 19.25C31.8562 19.9271 30.7365 20.5 29.5906 20.9688C28.4448 21.4375 27.3641 21.8021 26.3484 22.0625L25.7234 20.5781C26.6089 20.0573 27.5203 19.4583 28.4578 18.7812C29.4214 18.1042 30.2937 17.362 31.075 16.5547C31.8562 15.7214 32.4943 14.8229 32.9891 13.8594C33.4839 12.8698 33.7312 11.8021 33.7312 10.6562C33.7312 9.74479 33.562 8.91146 33.2234 8.15625C32.8849 7.375 32.4161 6.71094 31.8172 6.16406C31.2443 5.61719 30.5672 5.1875 29.7859 4.875C29.0307 4.5625 28.2104 4.40625 27.325 4.40625C25.3719 4.40625 23.6531 4.82292 22.1687 5.65625C20.6844 6.48958 19.4344 7.58333 18.4187 8.9375C17.4031 10.2917 16.6349 11.8281 16.1141 13.5469C15.5932 15.2656 15.3328 17.0104 15.3328 18.7812V43.9375C15.3328 44.9271 15.1896 45.8906 14.9031 46.8281C14.6167 47.7396 14.226 48.625 13.7312 49.4844C13.2625 50.3177 12.7026 51.112 12.0516 51.8672C11.4005 52.6224 10.7104 53.3125 9.98125 53.9375C10.8146 53.3385 11.6219 52.7917 12.4031 52.2969C13.1844 51.776 13.9786 51.3333 14.7859 50.9688C15.6193 50.6042 16.4786 50.3307 17.3641 50.1484C18.2495 49.9401 19.226 49.8359 20.2937 49.8359C21.5958 49.8359 22.7547 49.901 23.7703 50.0312C24.7859 50.1615 25.7755 50.3047 26.7391 50.4609C27.7286 50.5911 28.7312 50.7214 29.7469 50.8516C30.7625 50.9818 31.9214 51.0469 33.2234 51.0469C34.1349 51.0469 35.0073 50.9167 35.8406 50.6562C36.7 50.3698 37.5073 49.9922 38.2625 49.5234C39.0177 49.0547 39.7208 48.5208 40.3719 47.9219C41.049 47.2969 41.6609 46.6328 42.2078 45.9297L43.6531 46.9453ZM63.3187 58.8984C61.3917 58.8984 59.5818 58.5599 57.8891 57.8828C56.2224 57.1797 54.7641 56.2161 53.5141 54.9922C52.2901 53.7682 51.3135 52.3359 50.5844 50.6953C49.8812 49.0286 49.5297 47.2188 49.5297 45.2656C49.5297 43.0521 49.8943 40.9818 50.6234 39.0547C51.3526 37.1016 52.3552 35.3438 53.6312 33.7812C54.9333 32.2188 56.4568 30.8646 58.2016 29.7188C59.9724 28.5729 61.8865 27.6745 63.9437 27.0234L65.0766 28.3906C63.9047 29.25 62.8109 30.2396 61.7953 31.3594C60.7797 32.4531 59.8943 33.651 59.1391 34.9531C58.3839 36.2292 57.7849 37.5833 57.3422 39.0156C56.8995 40.4219 56.6781 41.8672 56.6781 43.3516C56.6781 44.6016 56.8604 45.9167 57.225 47.2969C57.5896 48.6771 58.1365 49.9401 58.8656 51.0859C59.5948 52.2318 60.5062 53.1823 61.6 53.9375C62.7198 54.6667 64.0089 55.0312 65.4672 55.0312C66.7693 55.0312 67.8891 54.7969 68.8266 54.3281C69.7901 53.8594 70.5844 53.2214 71.2094 52.4141C71.8344 51.6068 72.3031 50.6693 72.6156 49.6016C72.9281 48.5078 73.0844 47.362 73.0844 46.1641C73.0844 44.7578 72.8109 43.3255 72.2641 41.8672C71.7172 40.3828 70.962 39.0156 69.9984 37.7656C69.0609 36.5156 67.9542 35.474 66.6781 34.6406C65.4021 33.8073 64.0349 33.3255 62.5766 33.1953C63.488 32.1536 64.4906 31.1901 65.5844 30.3047C66.6781 29.4193 67.7849 28.5729 68.9047 27.7656C70.4151 28.2604 71.7432 28.9896 72.8891 29.9531C74.0609 30.9167 75.0375 32.0234 75.8187 33.2734C76.626 34.5234 77.238 35.8906 77.6547 37.375C78.0714 38.8333 78.2797 40.3177 78.2797 41.8281C78.2797 43.8854 77.9151 45.9297 77.1859 47.9609C76.4828 49.9922 75.4672 51.8281 74.1391 53.4688C72.837 55.0833 71.2615 56.3984 69.4125 57.4141C67.5896 58.4036 65.5583 58.8984 63.3187 58.8984ZM112.086 55.1094C112.086 56.6458 111.878 58.2083 111.461 59.7969C111.044 61.4115 110.445 62.987 109.664 64.5234C108.909 66.0599 107.997 67.5052 106.93 68.8594C105.862 70.2396 104.664 71.4375 103.336 72.4531C102.034 73.4688 100.615 74.276 99.0781 74.875C97.5677 75.474 95.9922 75.7734 94.3516 75.7734C93.3099 75.7734 92.3073 75.6042 91.3438 75.2656C90.4062 74.9271 89.5599 74.3932 88.8047 73.6641L93.9609 68.7812C94.5078 69.5104 95.1458 70.0964 95.875 70.5391C96.6042 70.9818 97.4245 71.2031 98.3359 71.2031C99.6641 71.2031 100.745 70.9427 101.578 70.4219C102.411 69.9271 103.076 69.25 103.57 68.3906C104.065 67.5573 104.417 66.5938 104.625 65.5C104.833 64.4323 104.964 63.3255 105.016 62.1797C105.068 61.0339 105.068 59.9141 105.016 58.8203C104.99 57.7266 104.977 56.737 104.977 55.8516V51.3594C104.508 52.2448 103.974 53.1302 103.375 54.0156C102.802 54.901 102.138 55.6953 101.383 56.3984C100.654 57.1016 99.8333 57.6745 98.9219 58.1172C98.0104 58.5599 96.9948 58.7812 95.875 58.7812C94.1823 58.7812 92.6849 58.4557 91.3828 57.8047C90.0807 57.1536 88.987 56.2812 88.1016 55.1875C87.2161 54.0677 86.5521 52.7656 86.1094 51.2812C85.6667 49.7969 85.4453 48.2214 85.4453 46.5547C85.4453 45.0443 85.6276 43.5208 85.9922 41.9844C86.3568 40.4219 86.8646 38.9245 87.5156 37.4922C88.1927 36.0599 89.013 34.7188 89.9766 33.4688C90.9661 32.2188 92.0599 31.138 93.2578 30.2266C94.4818 29.2891 95.8229 28.5599 97.2812 28.0391C98.7396 27.4922 100.289 27.2188 101.93 27.2188C102.919 27.2188 103.909 27.3359 104.898 27.5703C105.888 27.8047 106.826 28.1693 107.711 28.6641C108.622 29.1328 109.443 29.7188 110.172 30.4219C110.927 31.125 111.539 31.9453 112.008 32.8828L106.188 35.3438C105.875 34.849 105.51 34.3542 105.094 33.8594C104.703 33.3385 104.26 32.8698 103.766 32.4531C103.297 32.0365 102.776 31.6979 102.203 31.4375C101.656 31.1771 101.083 31.0469 100.484 31.0469C99.599 31.0469 98.7656 31.2552 97.9844 31.6719C97.2292 32.0885 96.526 32.6354 95.875 33.3125C95.25 33.9896 94.6901 34.7708 94.1953 35.6562C93.7005 36.5156 93.2839 37.4141 92.9453 38.3516C92.6068 39.2891 92.3464 40.2135 92.1641 41.125C92.0078 42.0365 91.9297 42.8568 91.9297 43.5859C91.9297 44.5755 92.0208 45.6953 92.2031 46.9453C92.4115 48.1693 92.763 49.3281 93.2578 50.4219C93.7526 51.5156 94.4036 52.4401 95.2109 53.1953C96.0182 53.9505 97.0339 54.3281 98.2578 54.3281C99.2214 54.3281 100.055 54.1198 100.758 53.7031C101.461 53.2604 102.06 52.7005 102.555 52.0234C103.049 51.3203 103.453 50.526 103.766 49.6406C104.104 48.7292 104.352 47.8047 104.508 46.8672C104.69 45.9297 104.807 45.0052 104.859 44.0938C104.938 43.1562 104.977 42.3229 104.977 41.5938V38.8984L112.086 36.3984V55.1094ZM147.689 55.1094C147.689 56.6458 147.481 58.2083 147.064 59.7969C146.647 61.4115 146.048 62.987 145.267 64.5234C144.512 66.0599 143.601 67.5052 142.533 68.8594C141.465 70.2396 140.267 71.4375 138.939 72.4531C137.637 73.4688 136.218 74.276 134.681 74.875C133.171 75.474 131.595 75.7734 129.955 75.7734C128.913 75.7734 127.91 75.6042 126.947 75.2656C126.009 74.9271 125.163 74.3932 124.408 73.6641L129.564 68.7812C130.111 69.5104 130.749 70.0964 131.478 70.5391C132.207 70.9818 133.028 71.2031 133.939 71.2031C135.267 71.2031 136.348 70.9427 137.181 70.4219C138.015 69.9271 138.679 69.25 139.173 68.3906C139.668 67.5573 140.02 66.5938 140.228 65.5C140.436 64.4323 140.567 63.3255 140.619 62.1797C140.671 61.0339 140.671 59.9141 140.619 58.8203C140.593 57.7266 140.58 56.737 140.58 55.8516V51.3594C140.111 52.2448 139.577 53.1302 138.978 54.0156C138.405 54.901 137.741 55.6953 136.986 56.3984C136.257 57.1016 135.436 57.6745 134.525 58.1172C133.614 58.5599 132.598 58.7812 131.478 58.7812C129.785 58.7812 128.288 58.4557 126.986 57.8047C125.684 57.1536 124.59 56.2812 123.705 55.1875C122.819 54.0677 122.155 52.7656 121.712 51.2812C121.27 49.7969 121.048 48.2214 121.048 46.5547C121.048 45.0443 121.231 43.5208 121.595 41.9844C121.96 40.4219 122.468 38.9245 123.119 37.4922C123.796 36.0599 124.616 34.7188 125.58 33.4688C126.569 32.2188 127.663 31.138 128.861 30.2266C130.085 29.2891 131.426 28.5599 132.884 28.0391C134.343 27.4922 135.892 27.2188 137.533 27.2188C138.522 27.2188 139.512 27.3359 140.502 27.5703C141.491 27.8047 142.429 28.1693 143.314 28.6641C144.226 29.1328 145.046 29.7188 145.775 30.4219C146.53 31.125 147.142 31.9453 147.611 32.8828L141.791 35.3438C141.478 34.849 141.114 34.3542 140.697 33.8594C140.306 33.3385 139.864 32.8698 139.369 32.4531C138.9 32.0365 138.379 31.6979 137.806 31.4375C137.259 31.1771 136.686 31.0469 136.087 31.0469C135.202 31.0469 134.369 31.2552 133.587 31.6719C132.832 32.0885 132.129 32.6354 131.478 33.3125C130.853 33.9896 130.293 34.7708 129.798 35.6562C129.304 36.5156 128.887 37.4141 128.548 38.3516C128.21 39.2891 127.949 40.2135 127.767 41.125C127.611 42.0365 127.533 42.8568 127.533 43.5859C127.533 44.5755 127.624 45.6953 127.806 46.9453C128.015 48.1693 128.366 49.3281 128.861 50.4219C129.356 51.5156 130.007 52.4401 130.814 53.1953C131.621 53.9505 132.637 54.3281 133.861 54.3281C134.824 54.3281 135.658 54.1198 136.361 53.7031C137.064 53.2604 137.663 52.7005 138.158 52.0234C138.653 51.3203 139.056 50.526 139.369 49.6406C139.707 48.7292 139.955 47.8047 140.111 46.8672C140.293 45.9297 140.41 45.0052 140.462 44.0938C140.541 43.1562 140.58 42.3229 140.58 41.5938V38.8984L147.689 36.3984V55.1094ZM166.417 7.02344L164.347 21.2812L160.519 22.4922L158.175 9.83594L166.417 7.02344ZM171.808 53.4297C171.209 54.7057 170.506 55.6823 169.698 56.3594C168.917 57.0365 168.162 57.5312 167.433 57.8438C166.573 58.2083 165.701 58.4167 164.816 58.4688C163.67 58.4688 162.719 58.2865 161.964 57.9219C161.209 57.5573 160.61 57.0755 160.167 56.4766C159.724 55.8776 159.412 55.2005 159.23 54.4453C159.073 53.6901 158.995 52.9219 158.995 52.1406V30.2266L166.183 27.7656V52.3359C166.183 52.9609 166.326 53.4557 166.613 53.8203C166.899 54.1849 167.264 54.3802 167.706 54.4062C168.175 54.4062 168.67 54.237 169.191 53.8984C169.738 53.5599 170.258 53.013 170.753 52.2578L171.808 53.4297ZM211.356 53.4297C211.044 54.1068 210.64 54.7448 210.145 55.3438C209.651 55.9427 209.091 56.4766 208.466 56.9453C207.867 57.4141 207.216 57.7786 206.512 58.0391C205.809 58.3255 205.08 58.4688 204.325 58.4688C202.268 58.4688 200.77 57.9089 199.833 56.7891C198.921 55.6432 198.466 54.0938 198.466 52.1406V36.2422C198.466 36.0599 198.453 35.8516 198.427 35.6172C198.427 35.3568 198.387 35.1224 198.309 34.9141C198.231 34.6797 198.127 34.4844 197.997 34.3281C197.867 34.1719 197.684 34.0938 197.45 34.0938C196.721 34.0938 195.979 34.5365 195.223 35.4219C194.494 36.3073 193.778 37.4531 193.075 38.8594C192.398 40.2656 191.76 41.8411 191.161 43.5859C190.588 45.3307 190.08 47.0625 189.637 48.7812C189.195 50.474 188.843 52.0625 188.583 53.5469C188.348 55.0312 188.231 56.2161 188.231 57.1016L181.122 59.6016V33.3516C181.122 32.8307 180.992 32.362 180.731 31.9453C180.471 31.5026 180.067 31.2812 179.52 31.2812C178.869 31.2812 178.27 31.5286 177.723 32.0234C177.203 32.4922 176.786 32.9609 176.473 33.4297L175.419 32.2578C175.731 31.6068 176.122 30.9818 176.591 30.3828C177.085 29.7578 177.632 29.2109 178.231 28.7422C178.856 28.2734 179.52 27.9089 180.223 27.6484C180.953 27.362 181.708 27.2188 182.489 27.2188C184.52 27.2188 185.979 27.7917 186.864 28.9375C187.776 30.0573 188.231 31.5807 188.231 33.5078V46.2422C188.466 45.1745 188.778 43.9635 189.169 42.6094C189.585 41.2292 190.08 39.8359 190.653 38.4297C191.226 37.0234 191.864 35.6562 192.567 34.3281C193.296 32.974 194.091 31.776 194.95 30.7344C195.809 29.6667 196.747 28.8203 197.762 28.1953C198.778 27.5443 199.872 27.2188 201.044 27.2188C202.268 27.2188 203.192 27.4922 203.817 28.0391C204.442 28.5599 204.885 29.237 205.145 30.0703C205.432 30.8776 205.588 31.776 205.614 32.7656C205.64 33.7552 205.653 34.7057 205.653 35.6172V52.3359C205.653 52.8568 205.783 53.3385 206.044 53.7812C206.304 54.1979 206.708 54.4062 207.255 54.4062C207.854 54.4062 208.414 54.1719 208.934 53.7031C209.481 53.2083 209.911 52.7266 210.223 52.2578L211.356 53.4297ZM243.248 55.1094C243.248 56.6458 243.04 58.2083 242.623 59.7969C242.207 61.4115 241.608 62.987 240.827 64.5234C240.071 66.0599 239.16 67.5052 238.092 68.8594C237.024 70.2396 235.827 71.4375 234.498 72.4531C233.196 73.4688 231.777 74.276 230.241 74.875C228.73 75.474 227.155 75.7734 225.514 75.7734C224.472 75.7734 223.47 75.6042 222.506 75.2656C221.569 74.9271 220.722 74.3932 219.967 73.6641L225.123 68.7812C225.67 69.5104 226.308 70.0964 227.037 70.5391C227.767 70.9818 228.587 71.2031 229.498 71.2031C230.827 71.2031 231.907 70.9427 232.741 70.4219C233.574 69.9271 234.238 69.25 234.733 68.3906C235.228 67.5573 235.579 66.5938 235.787 65.5C235.996 64.4323 236.126 63.3255 236.178 62.1797C236.23 61.0339 236.23 59.9141 236.178 58.8203C236.152 57.7266 236.139 56.737 236.139 55.8516V51.3594C235.67 52.2448 235.136 53.1302 234.537 54.0156C233.965 54.901 233.301 55.6953 232.545 56.3984C231.816 57.1016 230.996 57.6745 230.084 58.1172C229.173 58.5599 228.157 58.7812 227.037 58.7812C225.345 58.7812 223.847 58.4557 222.545 57.8047C221.243 57.1536 220.149 56.2812 219.264 55.1875C218.379 54.0677 217.715 52.7656 217.272 51.2812C216.829 49.7969 216.608 48.2214 216.608 46.5547C216.608 45.0443 216.79 43.5208 217.155 41.9844C217.519 40.4219 218.027 38.9245 218.678 37.4922C219.355 36.0599 220.176 34.7188 221.139 33.4688C222.129 32.2188 223.222 31.138 224.42 30.2266C225.644 29.2891 226.985 28.5599 228.444 28.0391C229.902 27.4922 231.452 27.2188 233.092 27.2188C234.082 27.2188 235.071 27.3359 236.061 27.5703C237.051 27.8047 237.988 28.1693 238.873 28.6641C239.785 29.1328 240.605 29.7188 241.334 30.4219C242.09 31.125 242.702 31.9453 243.17 32.8828L237.35 35.3438C237.037 34.849 236.673 34.3542 236.256 33.8594C235.866 33.3385 235.423 32.8698 234.928 32.4531C234.459 32.0365 233.939 31.6979 233.366 31.4375C232.819 31.1771 232.246 31.0469 231.647 31.0469C230.761 31.0469 229.928 31.2552 229.147 31.6719C228.392 32.0885 227.689 32.6354 227.037 33.3125C226.412 33.9896 225.853 34.7708 225.358 35.6562C224.863 36.5156 224.446 37.4141 224.108 38.3516C223.769 39.2891 223.509 40.2135 223.327 41.125C223.17 42.0365 223.092 42.8568 223.092 43.5859C223.092 44.5755 223.183 45.6953 223.366 46.9453C223.574 48.1693 223.926 49.3281 224.42 50.4219C224.915 51.5156 225.566 52.4401 226.373 53.1953C227.181 53.9505 228.196 54.3281 229.42 54.3281C230.384 54.3281 231.217 54.1198 231.92 53.7031C232.623 53.2604 233.222 52.7005 233.717 52.0234C234.212 51.3203 234.616 50.526 234.928 49.6406C235.267 48.7292 235.514 47.8047 235.67 46.8672C235.853 45.9297 235.97 45.0052 236.022 44.0938C236.1 43.1562 236.139 42.3229 236.139 41.5938V38.8984L243.248 36.3984V55.1094ZM322.931 30.0703C322.931 32.4661 322.671 34.862 322.15 37.2578C321.629 39.6276 320.861 41.8932 319.845 44.0547C318.856 46.1901 317.632 48.1823 316.173 50.0312C314.741 51.8802 313.088 53.4948 311.213 54.875C309.338 56.2292 307.267 57.2839 305.002 58.0391C302.762 58.8203 300.34 59.2109 297.736 59.2109C295.132 59.2109 292.697 58.8203 290.431 58.0391C288.192 57.2839 286.134 56.2292 284.259 54.875C282.384 53.4948 280.718 51.8802 279.259 50.0312C277.801 48.1823 276.564 46.1901 275.548 44.0547C274.533 41.8932 273.765 39.6276 273.244 37.2578C272.723 34.862 272.463 32.4661 272.463 30.0703C272.463 27.6745 272.723 25.2917 273.244 22.9219C273.765 20.5521 274.533 18.2995 275.548 16.1641C276.564 14.0026 277.801 11.9974 279.259 10.1484C280.718 8.27344 282.384 6.65885 284.259 5.30469C286.134 3.95052 288.192 2.89583 290.431 2.14062C292.697 1.35938 295.132 0.96875 297.736 0.96875C300.34 0.96875 302.762 1.35938 305.002 2.14062C307.267 2.89583 309.338 3.95052 311.213 5.30469C313.088 6.65885 314.741 8.27344 316.173 10.1484C317.632 11.9974 318.856 14.0026 319.845 16.1641C320.861 18.2995 321.629 20.5521 322.15 22.9219C322.671 25.2917 322.931 27.6745 322.931 30.0703ZM294.22 4.95312C292.528 4.95312 291.017 5.2526 289.689 5.85156C288.387 6.42448 287.228 7.21875 286.213 8.23438C285.197 9.22396 284.338 10.3828 283.634 11.7109C282.931 13.013 282.358 14.3932 281.916 15.8516C281.473 17.3099 281.147 18.7943 280.939 20.3047C280.731 21.8151 280.627 23.2604 280.627 24.6406C280.627 26.6979 280.783 28.8854 281.095 31.2031C281.408 33.4948 281.903 35.7604 282.58 38C283.283 40.2396 284.168 42.388 285.236 44.4453C286.33 46.4766 287.645 48.2734 289.181 49.8359C290.718 51.3984 292.476 52.6484 294.455 53.5859C296.46 54.4974 298.726 54.9531 301.252 54.9531C302.918 54.9531 304.403 54.6667 305.705 54.0938C307.033 53.4948 308.205 52.7005 309.22 51.7109C310.236 50.6953 311.095 49.5234 311.798 48.1953C312.502 46.8672 313.075 45.474 313.517 44.0156C313.986 42.5573 314.325 41.0729 314.533 39.5625C314.741 38.026 314.845 36.5677 314.845 35.1875C314.845 33.1302 314.689 30.9557 314.377 28.6641C314.064 26.3724 313.556 24.1068 312.853 21.8672C312.176 19.6276 311.291 17.4922 310.197 15.4609C309.129 13.4036 307.827 11.6068 306.291 10.0703C304.754 8.50781 302.983 7.27083 300.978 6.35938C298.999 5.42188 296.746 4.95312 294.22 4.95312ZM364.198 53.4297C363.599 54.7057 362.896 55.6823 362.089 56.3594C361.282 57.0365 360.514 57.5312 359.784 57.8438C358.925 58.2083 358.053 58.4167 357.167 58.4688C355.995 58.4688 355.032 58.2865 354.277 57.9219C353.547 57.5573 352.961 57.0755 352.519 56.4766C352.076 55.8776 351.764 55.2005 351.581 54.4453C351.425 53.6901 351.347 52.9219 351.347 52.1406V39.6797C351.139 40.6172 350.865 41.737 350.527 43.0391C350.214 44.3411 349.823 45.7083 349.355 47.1406C348.886 48.5469 348.339 49.9531 347.714 51.3594C347.089 52.7396 346.36 53.9766 345.527 55.0703C344.719 56.1641 343.795 57.0625 342.753 57.7656C341.737 58.4427 340.592 58.7812 339.316 58.7812C338.248 58.7812 337.402 58.5729 336.777 58.1562C336.178 57.7656 335.722 57.2057 335.409 56.4766C335.123 55.7214 334.941 54.8359 334.862 53.8203C334.81 52.7786 334.784 51.6328 334.784 50.3828V33.4297C334.784 32.8047 334.641 32.3099 334.355 31.9453C334.068 31.5807 333.691 31.3984 333.222 31.3984C332.779 31.3724 332.284 31.5286 331.737 31.8672C331.191 32.2057 330.657 32.7526 330.136 33.5078L329.081 32.3359C329.68 31.0859 330.37 30.1224 331.152 29.4453C331.933 28.7422 332.701 28.2344 333.456 27.9219C334.316 27.5573 335.201 27.349 336.112 27.2969C337.284 27.2969 338.235 27.4792 338.964 27.8438C339.719 28.2083 340.305 28.6901 340.722 29.2891C341.165 29.862 341.464 30.526 341.62 31.2812C341.803 32.0365 341.894 32.8047 341.894 33.5859V49.7578C341.894 50.7734 342.076 51.4375 342.441 51.75C342.805 52.0625 343.274 52.0234 343.847 51.6328C344.446 51.2161 345.097 50.474 345.8 49.4062C346.529 48.3125 347.258 46.8802 347.987 45.1094C348.456 43.4167 348.912 41.6719 349.355 39.875C349.719 38.3385 350.084 36.6458 350.448 34.7969C350.839 32.9479 351.139 31.1641 351.347 29.4453L358.534 26.9453V52.3359C358.534 52.9609 358.678 53.4557 358.964 53.8203C359.251 54.1849 359.615 54.3802 360.058 54.4062C360.501 54.4062 360.982 54.237 361.503 53.8984C362.05 53.5599 362.584 53.013 363.105 52.2578L364.198 53.4297ZM385.583 53.4297C384.984 54.7057 384.294 55.6823 383.513 56.3594C382.731 57.0365 381.963 57.5312 381.208 57.8438C380.348 58.2083 379.463 58.4167 378.552 58.4688C377.38 58.4688 376.416 58.2865 375.661 57.9219C374.932 57.5573 374.346 57.0755 373.903 56.4766C373.486 55.8776 373.187 55.2005 373.005 54.4453C372.848 53.6901 372.77 52.9219 372.77 52.1406V31.6719H368.63L370.309 27.7656H372.77V13.9375L379.919 11.4375V27.7656H387.341L385.739 31.6719H379.919V52.3359C379.919 52.9609 380.062 53.4557 380.348 53.8203C380.635 54.1849 380.999 54.3802 381.442 54.4062C381.885 54.4062 382.38 54.237 382.927 53.8984C383.473 53.5599 384.007 53.013 384.528 52.2578L385.583 53.4297ZM403.725 55.0312C403.725 55.6562 403.595 56.2422 403.334 56.7891C403.1 57.3359 402.774 57.8047 402.358 58.1953C401.967 58.612 401.485 58.9375 400.912 59.1719C400.366 59.4062 399.78 59.5234 399.155 59.5234C398.53 59.5234 397.944 59.4062 397.397 59.1719C396.876 58.9375 396.407 58.612 395.991 58.1953C395.574 57.8047 395.248 57.3359 395.014 56.7891C394.78 56.2422 394.662 55.6562 394.662 55.0312C394.662 54.4062 394.78 53.8203 395.014 53.2734C395.248 52.7266 395.574 52.2448 395.991 51.8281C396.407 51.4115 396.876 51.0859 397.397 50.8516C397.944 50.5911 398.53 50.4609 399.155 50.4609C399.78 50.4609 400.366 50.5911 400.912 50.8516C401.485 51.0859 401.967 51.4115 402.358 51.8281C402.774 52.2448 403.1 52.7266 403.334 53.2734C403.595 53.8203 403.725 54.4062 403.725 55.0312ZM423.234 55.0312C423.234 55.6562 423.104 56.2422 422.844 56.7891C422.609 57.3359 422.284 57.8047 421.867 58.1953C421.477 58.612 420.995 58.9375 420.422 59.1719C419.875 59.4062 419.289 59.5234 418.664 59.5234C418.039 59.5234 417.453 59.4062 416.906 59.1719C416.385 58.9375 415.917 58.612 415.5 58.1953C415.083 57.8047 414.758 57.3359 414.523 56.7891C414.289 56.2422 414.172 55.6562 414.172 55.0312C414.172 54.4062 414.289 53.8203 414.523 53.2734C414.758 52.7266 415.083 52.2448 415.5 51.8281C415.917 51.4115 416.385 51.0859 416.906 50.8516C417.453 50.5911 418.039 50.4609 418.664 50.4609C419.289 50.4609 419.875 50.5911 420.422 50.8516C420.995 51.0859 421.477 51.4115 421.867 51.8281C422.284 52.2448 422.609 52.7266 422.844 53.2734C423.104 53.8203 423.234 54.4062 423.234 55.0312ZM442.744 55.0312C442.744 55.6562 442.614 56.2422 442.353 56.7891C442.119 57.3359 441.793 57.8047 441.377 58.1953C440.986 58.612 440.504 58.9375 439.931 59.1719C439.384 59.4062 438.798 59.5234 438.173 59.5234C437.548 59.5234 436.963 59.4062 436.416 59.1719C435.895 58.9375 435.426 58.612 435.009 58.1953C434.593 57.8047 434.267 57.3359 434.033 56.7891C433.798 56.2422 433.681 55.6562 433.681 55.0312C433.681 54.4062 433.798 53.8203 434.033 53.2734C434.267 52.7266 434.593 52.2448 435.009 51.8281C435.426 51.4115 435.895 51.0859 436.416 50.8516C436.963 50.5911 437.548 50.4609 438.173 50.4609C438.798 50.4609 439.384 50.5911 439.931 50.8516C440.504 51.0859 440.986 51.4115 441.377 51.8281C441.793 52.2448 442.119 52.7266 442.353 53.2734C442.614 53.8203 442.744 54.4062 442.744 55.0312ZM462.253 55.0312C462.253 55.6562 462.123 56.2422 461.862 56.7891C461.628 57.3359 461.303 57.8047 460.886 58.1953C460.495 58.612 460.014 58.9375 459.441 59.1719C458.894 59.4062 458.308 59.5234 457.683 59.5234C457.058 59.5234 456.472 59.4062 455.925 59.1719C455.404 58.9375 454.935 58.612 454.519 58.1953C454.102 57.8047 453.777 57.3359 453.542 56.7891C453.308 56.2422 453.191 55.6562 453.191 55.0312C453.191 54.4062 453.308 53.8203 453.542 53.2734C453.777 52.7266 454.102 52.2448 454.519 51.8281C454.935 51.4115 455.404 51.0859 455.925 50.8516C456.472 50.5911 457.058 50.4609 457.683 50.4609C458.308 50.4609 458.894 50.5911 459.441 50.8516C460.014 51.0859 460.495 51.4115 460.886 51.8281C461.303 52.2448 461.628 52.7266 461.862 53.2734C462.123 53.8203 462.253 54.4062 462.253 55.0312Z" fill="#6950ED"/>
</g>
<defs>
<filter id="filter0_d" x="0.0437622" y="0.460938" width="466.209" height="83.3125" filterUnits="userSpaceOnUse" color-interpolation-filters="sRGB">
<feFlood flood-opacity="0" result="BackgroundImageFix"/>
<feColorMatrix in="SourceAlpha" type="matrix" values="0 0 0 0 0 0 0 0 0 0 0 0 0 0 0 0 0 0 127 0"/>
<feOffset dy="4"/>
<feGaussianBlur stdDeviation="2"/>
<feColorMatrix type="matrix" values="0 0 0 0 0 0 0 0 0 0 0 0 0 0 0 0 0 0 0.35 0"/>
<feBlend mode="normal" in2="BackgroundImageFix" result="effect1_dropShadow"/>
<feBlend mode="normal" in="SourceGraphic" in2="effect1_dropShadow" result="shape"/>
</filter>
</defs>
</svg>
