<svg width="1440" height="920" viewBox="0 0 1440 920" fill="none" xmlns="http://www.w3.org/2000/svg">
<rect width="1440" height="920" fill="url(#paint0_linear)"/>
<g filter="url(#filter0_d)">
<path d="M108.391 47.0811L103.633 52.8301C103.218 51.584 102.68 50.3945 102.019 49.2617C101.358 48.1289 100.575 47.1377 99.6686 46.2881C98.7623 45.4385 97.7333 44.7588 96.5816 44.249C95.4299 43.7393 94.1461 43.4844 92.7301 43.4844C91.7105 43.4844 90.7665 43.6732 89.898 44.0508C89.0296 44.4095 88.2649 44.9193 87.6041 45.5801C86.9622 46.222 86.4524 46.9867 86.0748 47.874C85.7161 48.7614 85.5367 49.7148 85.5367 50.7344C85.5367 51.7917 85.735 52.7829 86.1314 53.708C86.5279 54.6331 87.0566 55.4733 87.7174 56.2285C88.3782 56.9648 89.1334 57.6068 89.983 58.1543C90.8515 58.7018 91.7483 59.1266 92.6734 59.4287C93.5986 59.7497 94.5709 60.1084 95.5904 60.5049C96.61 60.9014 97.6106 61.3639 98.5924 61.8926C99.5742 62.4212 100.509 63.016 101.396 63.6768C102.283 64.3187 103.067 65.0456 103.747 65.8574C104.426 66.6693 104.964 67.5755 105.361 68.5762C105.757 69.5579 105.956 70.6341 105.956 71.8047C105.956 73.5039 105.578 75.0332 104.823 76.3926C104.087 77.7331 103.114 78.8659 101.906 79.791C100.698 80.7161 99.3098 81.4242 97.7428 81.915C96.1946 82.4059 94.6181 82.6514 93.0133 82.6514C91.9182 82.6514 90.8043 82.4909 89.6715 82.1699C88.5576 81.849 87.4814 81.4147 86.443 80.8672C85.4234 80.3008 84.4605 79.6494 83.5543 78.9131C82.6669 78.1768 81.8928 77.3838 81.232 76.5342L85.8199 71.2666C86.1031 72.1729 86.594 73.1357 87.2926 74.1553C88.01 75.1748 88.8408 76.1188 89.7848 76.9873C90.7288 77.8558 91.7389 78.5827 92.815 79.168C93.9101 79.7344 94.9674 80.0176 95.9869 80.0176C96.5722 80.0176 97.1764 79.8665 97.7994 79.5645C98.4225 79.2624 98.9889 78.8753 99.4986 78.4033C100.027 77.9124 100.462 77.3838 100.801 76.8174C101.141 76.251 101.311 75.694 101.311 75.1465C101.311 74.3158 101.141 73.5322 100.801 72.7959C100.462 72.0407 100.008 71.3327 99.442 70.6719C98.8945 70.0111 98.2525 69.4069 97.5162 68.8594C96.7988 68.293 96.0436 67.7926 95.2506 67.3584C94.4765 66.9053 93.693 66.5182 92.9 66.1973C92.1259 65.8574 91.4085 65.5931 90.7477 65.4043C89.4449 65.0078 88.1705 64.4414 86.9244 63.7051C85.6972 62.9688 84.6021 62.0814 83.6393 61.043C82.6764 60.0046 81.9023 58.8434 81.317 57.5596C80.7317 56.2568 80.4391 54.8691 80.4391 53.3965C80.4391 52.1315 80.6373 50.9326 81.0338 49.7998C81.4303 48.667 81.9778 47.6191 82.6764 46.6562C83.3749 45.6934 84.1962 44.8249 85.1402 44.0508C86.0842 43.2578 87.1038 42.597 88.1988 42.0684C89.2939 41.5208 90.4361 41.1055 91.6256 40.8223C92.815 40.5202 94.0139 40.3691 95.2223 40.3691C97.8655 40.3691 100.32 40.9639 102.586 42.1533C104.851 43.3239 106.786 44.9665 108.391 47.0811ZM122.232 78.6865C121.798 79.6117 121.297 80.3197 120.731 80.8105C120.165 81.3014 119.608 81.6602 119.06 81.8867C118.437 82.151 117.795 82.3021 117.134 82.3398C116.285 82.3398 115.586 82.2077 115.039 81.9434C114.51 81.679 114.085 81.3298 113.764 80.8955C113.462 80.4613 113.245 79.9704 113.113 79.4229C112.999 78.8753 112.943 78.3184 112.943 77.752V62.9121H109.941L111.159 60.0801H112.943V50.0547L118.125 48.2422V60.0801H123.506L122.345 62.9121H118.125V77.8936C118.125 78.3467 118.229 78.7054 118.437 78.9697C118.645 79.234 118.909 79.3757 119.23 79.3945C119.551 79.3945 119.91 79.2718 120.306 79.0264C120.703 78.7809 121.09 78.3844 121.467 77.8369L122.232 78.6865ZM143.436 78.9131C143.096 79.4417 142.681 79.9232 142.19 80.3574C141.699 80.7728 141.161 81.1315 140.576 81.4336C139.99 81.7357 139.377 81.9717 138.735 82.1416C138.093 82.3115 137.46 82.3965 136.837 82.3965C136.007 82.3965 135.289 82.2454 134.685 81.9434C134.1 81.6224 133.618 81.207 133.241 80.6973C132.863 80.1875 132.58 79.5928 132.391 78.9131C132.221 78.2334 132.136 77.5254 132.136 76.7891C132.136 75.8262 132.278 74.7972 132.561 73.7021C132.863 72.5882 133.259 71.4932 133.75 70.417C134.26 69.3408 134.836 68.3402 135.478 67.415C136.12 66.4899 136.8 65.7253 137.517 65.1211C136.856 65.5553 136.129 65.8952 135.336 66.1406C134.562 66.3861 133.769 66.5088 132.957 66.5088C132.372 66.5088 131.862 66.4616 131.428 66.3672C130.994 66.2728 130.512 66.0934 129.984 65.8291L127.038 71.9746L125.821 71.4932L128.879 65.2344C128.558 65.0078 128.209 64.7246 127.831 64.3848C127.473 64.026 127.208 63.6768 127.038 63.3369L130.975 58.9189C131.145 59.4287 131.381 59.9479 131.683 60.4766C131.985 60.9863 132.334 61.4489 132.731 61.8643C133.146 62.2607 133.599 62.5911 134.09 62.8555C134.6 63.1198 135.147 63.252 135.733 63.252C136.733 63.252 137.706 63.0726 138.65 62.7139C139.594 62.3363 140.472 61.8831 141.284 61.3545L142.048 62.1191C141.331 62.7799 140.604 63.5163 139.868 64.3281C139.15 65.1211 138.499 65.9707 137.913 66.877C137.328 67.7832 136.856 68.7367 136.497 69.7373C136.139 70.738 135.959 71.748 135.959 72.7676C135.959 73.3529 136.035 74.0137 136.186 74.75C136.356 75.4674 136.611 76.1566 136.951 76.8174C137.29 77.4593 137.715 78.0068 138.225 78.46C138.735 78.8942 139.348 79.1113 140.066 79.1113C140.557 79.1113 141.029 79.0264 141.482 78.8564C141.954 78.6676 142.379 78.4411 142.756 78.1768L143.436 78.9131ZM167.33 76.4775C166.67 77.3271 165.943 78.1201 165.15 78.8564C164.376 79.5928 163.526 80.2347 162.601 80.7822C161.695 81.3298 160.732 81.764 159.712 82.085C158.693 82.4059 157.635 82.5664 156.54 82.5664C155.143 82.5664 153.859 82.321 152.689 81.8301C151.518 81.3203 150.508 80.6312 149.658 79.7627C148.809 78.8753 148.148 77.8369 147.676 76.6475C147.204 75.4391 146.968 74.1458 146.968 72.7676C146.968 71.6348 147.128 70.5208 147.449 69.4258C147.77 68.3307 148.224 67.3018 148.809 66.3389C149.394 65.376 150.083 64.4886 150.876 63.6768C151.688 62.846 152.575 62.138 153.538 61.5527C154.501 60.9674 155.521 60.5143 156.597 60.1934C157.673 59.8535 158.778 59.6836 159.91 59.6836C160.703 59.6836 161.449 59.778 162.148 59.9668C162.865 60.1556 163.498 60.4577 164.045 60.873C164.593 61.2695 165.027 61.7887 165.348 62.4307C165.669 63.0537 165.829 63.7995 165.829 64.668C165.829 65.3854 165.612 66.1406 165.178 66.9336C164.763 67.7266 164.206 68.5195 163.507 69.3125C162.827 70.1055 162.053 70.889 161.185 71.6631C160.316 72.4183 159.429 73.1263 158.523 73.7871C157.635 74.429 156.776 74.9954 155.946 75.4863C155.115 75.9772 154.388 76.3548 153.765 76.6191C154.463 77.4876 155.275 78.1956 156.2 78.7432C157.126 79.2907 158.107 79.5645 159.146 79.5645C159.807 79.5645 160.477 79.4417 161.156 79.1963C161.836 78.932 162.488 78.6016 163.111 78.2051C163.753 77.8086 164.357 77.3743 164.923 76.9023C165.508 76.4303 166.028 75.9867 166.481 75.5713L167.33 76.4775ZM160.505 65.7158C160.505 65.2816 160.43 64.8662 160.279 64.4697C160.146 64.0732 159.948 63.7334 159.684 63.4502C159.42 63.1481 159.099 62.9121 158.721 62.7422C158.362 62.5534 157.947 62.459 157.475 62.459C156.625 62.459 155.842 62.7611 155.124 63.3652C154.407 63.9505 153.784 64.6774 153.255 65.5459C152.745 66.4144 152.339 67.3395 152.037 68.3213C151.754 69.2842 151.613 70.1338 151.613 70.8701C151.613 71.5876 151.726 72.3239 151.952 73.0791C152.179 73.8343 152.49 74.5612 152.887 75.2598C153.642 74.8444 154.463 74.2686 155.351 73.5322C156.238 72.7959 157.059 71.9935 157.815 71.125C158.589 70.2376 159.231 69.3219 159.74 68.3779C160.25 67.4339 160.505 66.5465 160.505 65.7158ZM194.453 78.6299C194.227 79.1208 193.943 79.5833 193.604 80.0176C193.264 80.4518 192.867 80.8389 192.414 81.1787C191.98 81.5186 191.498 81.7923 190.97 82C190.46 82.1888 189.922 82.2832 189.356 82.2832C187.864 82.2832 186.788 81.8773 186.127 81.0654C185.485 80.2347 185.164 79.1113 185.164 77.6953V77.1855C184.824 77.8275 184.437 78.4694 184.003 79.1113C183.588 79.7533 183.106 80.3291 182.559 80.8389C182.03 81.3486 181.435 81.764 180.775 82.085C180.114 82.4059 179.377 82.5664 178.566 82.5664C177.338 82.5664 176.253 82.3304 175.309 81.8584C174.365 81.3864 173.572 80.7539 172.93 79.9609C172.288 79.1491 171.806 78.2051 171.485 77.1289C171.165 76.0527 171.004 74.9105 171.004 73.7021C171.004 72.0596 171.287 70.4264 171.854 68.8027C172.439 67.1602 173.251 65.6969 174.289 64.4131C175.346 63.1292 176.602 62.0908 178.056 61.2979C179.528 60.486 181.162 60.0801 182.955 60.0801C183.673 60.0801 184.39 60.1462 185.108 60.2783C185.825 60.4105 186.505 60.6276 187.147 60.9297C187.807 61.2129 188.402 61.5905 188.931 62.0625C189.478 62.5345 189.922 63.1104 190.262 63.79L186.042 65.5742C185.816 65.2155 185.551 64.8757 185.249 64.5547C184.966 64.2148 184.645 63.9222 184.286 63.6768C183.946 63.4313 183.578 63.2331 183.182 63.082C182.785 62.931 182.37 62.8555 181.936 62.8555C180.954 62.8555 180.076 63.1576 179.302 63.7617C178.547 64.3659 177.895 65.1117 177.348 65.999C176.819 66.8864 176.413 67.8304 176.13 68.8311C175.847 69.8317 175.705 70.738 175.705 71.5498C175.705 72.2673 175.771 73.0791 175.903 73.9854C176.054 74.8727 176.309 75.7129 176.668 76.5059C177.027 77.2988 177.499 77.9691 178.084 78.5166C178.669 79.0641 179.406 79.3379 180.293 79.3379C180.992 79.3379 181.596 79.1868 182.106 78.8848C182.615 78.5638 183.05 78.1579 183.408 77.667C183.767 77.1572 184.06 76.5814 184.286 75.9395C184.532 75.2786 184.711 74.6084 184.824 73.9287C184.957 73.249 185.041 72.5788 185.079 71.918C185.136 71.2383 185.164 70.6341 185.164 70.1055V68.1514L190.318 66.3389V77.8369C190.318 78.2145 190.413 78.5638 190.602 78.8848C190.79 79.1868 191.083 79.3379 191.48 79.3379C191.952 79.3379 192.376 79.168 192.754 78.8281C193.151 78.4694 193.462 78.1107 193.689 77.752L194.453 78.6299ZM229.676 78.6865C229.242 79.6117 228.732 80.3197 228.146 80.8105C227.561 81.3014 227.004 81.6602 226.476 81.8867C225.853 82.151 225.22 82.3021 224.578 82.3398C223.729 82.3398 223.03 82.2077 222.482 81.9434C221.954 81.679 221.529 81.3298 221.208 80.8955C220.887 80.4613 220.66 79.9704 220.528 79.4229C220.415 78.8753 220.358 78.3184 220.358 77.752V65.8857C220.358 65.5837 220.302 65.3193 220.188 65.0928C220.075 64.8473 219.924 64.7057 219.735 64.668C219.547 64.6302 219.32 64.7246 219.056 64.9512C218.791 65.1777 218.508 65.5837 218.206 66.1689C217.696 67.6794 217.234 69.2653 216.818 70.9268C216.46 72.3617 216.129 73.9854 215.827 75.7979C215.544 77.5915 215.383 79.4417 215.346 81.3486L210.135 83.1611V65.8857C210.135 65.5837 210.078 65.3193 209.965 65.0928C209.852 64.8473 209.691 64.7057 209.483 64.668C209.295 64.6302 209.068 64.7246 208.804 64.9512C208.539 65.1777 208.266 65.5837 207.982 66.1689C207.416 67.7549 206.925 69.4069 206.51 71.125C206.321 71.8613 206.142 72.6449 205.972 73.4756C205.802 74.3063 205.651 75.1654 205.519 76.0527C205.405 76.9212 205.311 77.8086 205.235 78.7148C205.16 79.6022 205.132 80.4801 205.15 81.3486L199.996 83.1611V64.1299C199.996 63.6768 199.892 63.318 199.685 63.0537C199.477 62.7894 199.203 62.6572 198.863 62.6572C198.542 62.6383 198.184 62.7516 197.787 62.9971C197.391 63.2425 197.004 63.639 196.626 64.1865L195.861 63.3369C196.296 62.4307 196.796 61.7321 197.362 61.2412C197.948 60.7314 198.514 60.3633 199.062 60.1367C199.685 59.8724 200.326 59.7214 200.987 59.6836C201.818 59.6836 202.498 59.8158 203.026 60.0801C203.574 60.3444 203.999 60.6937 204.301 61.1279C204.622 61.5433 204.839 62.0247 204.952 62.5723C205.084 63.1198 205.15 63.6768 205.15 64.2432V70.2188C205.49 68.5195 206 67.0186 206.68 65.7158C207.359 64.4131 208.067 63.318 208.804 62.4307C209.559 61.5244 210.295 60.8447 211.013 60.3916C211.73 59.9196 212.306 59.6836 212.74 59.6836C213.288 59.6836 213.731 59.778 214.071 59.9668C214.411 60.1367 214.675 60.401 214.864 60.7598C215.053 61.1185 215.176 61.5622 215.232 62.0908C215.308 62.6006 215.346 63.2048 215.346 63.9033V70.2188C215.704 68.5195 216.214 67.0186 216.875 65.7158C217.555 64.4131 218.272 63.318 219.027 62.4307C219.783 61.5244 220.519 60.8447 221.236 60.3916C221.954 59.9196 222.53 59.6836 222.964 59.6836C224.04 59.6836 224.739 60.0423 225.06 60.7598C225.399 61.4583 225.569 62.5062 225.569 63.9033V77.8936C225.569 78.3467 225.673 78.7054 225.881 78.9697C226.089 79.234 226.353 79.3757 226.674 79.3945C226.995 79.3945 227.344 79.2718 227.722 79.0264C228.118 78.7809 228.505 78.3844 228.883 77.8369L229.676 78.6865ZM263.426 40.4258C262.84 41.332 262.132 42.1816 261.302 42.9746C260.471 43.7676 259.565 44.4661 258.583 45.0703C257.601 45.6745 256.563 46.1559 255.468 46.5146C254.373 46.8545 253.278 47.0244 252.182 47.0244L246.603 47.0811C245.848 47.9873 245.291 48.8652 244.932 49.7148C244.574 50.5645 244.394 51.5651 244.394 52.7168V60.6465H245.216C245.971 60.6465 246.887 60.6654 247.963 60.7031C249.039 60.722 250.125 60.6937 251.22 60.6182C252.334 60.5426 253.391 60.3822 254.391 60.1367C255.392 59.8724 256.204 59.4665 256.827 58.9189L257.507 59.7402C256.921 60.6276 256.213 61.3734 255.383 61.9775C254.552 62.5817 253.646 63.082 252.664 63.4785C251.682 63.8561 250.644 64.1393 249.549 64.3281C248.454 64.498 247.359 64.5924 246.264 64.6113H244.394V75.4014C244.394 77.9124 243.856 80.1403 242.78 82.085C241.704 84.0485 240.137 85.7383 238.079 87.1543L237.088 86.0498C237.409 85.6911 237.664 85.2852 237.852 84.832C238.041 84.3789 238.183 83.9069 238.277 83.416C238.391 82.9251 238.457 82.4342 238.475 81.9434C238.513 81.4336 238.532 80.9521 238.532 80.499V64.6113H233.038L236.04 60.6465H238.532V56.002C238.532 55.1146 238.711 54.2555 239.07 53.4248C239.448 52.5752 239.92 51.7728 240.486 51.0176C241.053 50.2624 241.676 49.5544 242.355 48.8936C243.035 48.2327 243.696 47.6286 244.338 47.0811C243.545 47.0811 242.79 47.0811 242.072 47.0811C241.374 47.0622 240.666 47.0527 239.948 47.0527C239.231 47.0527 238.494 47.0527 237.739 47.0527C236.984 47.0339 236.153 47.0244 235.247 47.0244C234.53 47.0244 233.888 47.0999 233.321 47.251C232.774 47.3831 232.264 47.5814 231.792 47.8457C231.32 48.11 230.867 48.4404 230.432 48.8369C229.998 49.2334 229.555 49.696 229.101 50.2246L228.28 49.3467C228.922 48.4593 229.687 47.5531 230.574 46.6279C231.461 45.6839 232.415 44.8249 233.434 44.0508C234.473 43.2767 235.558 42.6442 236.691 42.1533C237.843 41.6436 239.004 41.3887 240.175 41.3887H251.135C251.871 41.3887 252.777 41.3792 253.853 41.3604C254.93 41.3415 256.025 41.2848 257.139 41.1904C258.252 41.0771 259.31 40.9072 260.31 40.6807C261.311 40.4352 262.113 40.0954 262.718 39.6611L263.426 40.4258ZM274.774 78.6865C274.548 79.1774 274.255 79.64 273.896 80.0742C273.556 80.5085 273.169 80.8955 272.735 81.2354C272.301 81.5752 271.819 81.8395 271.291 82.0283C270.781 82.236 270.252 82.3398 269.705 82.3398C268.232 82.3398 267.156 81.9339 266.476 81.1221C265.816 80.2913 265.485 79.168 265.485 77.752V43.2012L270.696 41.3887V77.8936C270.696 78.2712 270.781 78.6204 270.951 78.9414C271.121 79.2435 271.423 79.3945 271.857 79.3945C272.291 79.3945 272.697 79.2246 273.075 78.8848C273.471 78.526 273.783 78.1768 274.01 77.8369L274.774 78.6865ZM287.794 82.6514C286.396 82.6514 285.084 82.4059 283.857 81.915C282.649 81.4053 281.591 80.7067 280.685 79.8193C279.798 78.932 279.09 77.8936 278.561 76.7041C278.051 75.4958 277.797 74.1836 277.797 72.7676C277.797 71.1628 278.061 69.6618 278.59 68.2646C279.118 66.8486 279.845 65.5742 280.77 64.4414C281.714 63.3086 282.819 62.3268 284.084 61.4961C285.368 60.6654 286.755 60.014 288.247 59.542L289.068 60.5332C288.218 61.1562 287.425 61.8737 286.689 62.6855C285.953 63.4785 285.311 64.347 284.763 65.291C284.216 66.2161 283.782 67.1979 283.461 68.2363C283.14 69.2559 282.979 70.3037 282.979 71.3799C282.979 72.2861 283.111 73.2396 283.376 74.2402C283.64 75.2409 284.036 76.1566 284.565 76.9873C285.094 77.818 285.755 78.5072 286.548 79.0547C287.359 79.5833 288.294 79.8477 289.351 79.8477C290.295 79.8477 291.107 79.6777 291.787 79.3379C292.485 78.998 293.061 78.5355 293.514 77.9502C293.967 77.3649 294.307 76.6852 294.534 75.9111C294.76 75.1182 294.874 74.2874 294.874 73.4189C294.874 72.3994 294.675 71.361 294.279 70.3037C293.882 69.2275 293.335 68.2363 292.636 67.3301C291.957 66.4238 291.154 65.6686 290.229 65.0645C289.304 64.4603 288.313 64.111 287.256 64.0166C287.916 63.2614 288.643 62.5628 289.436 61.9209C290.229 61.279 291.032 60.6654 291.843 60.0801C292.938 60.4388 293.901 60.9674 294.732 61.666C295.582 62.3646 296.29 63.167 296.856 64.0732C297.441 64.9795 297.885 65.9707 298.187 67.0469C298.489 68.1042 298.64 69.1803 298.64 70.2754C298.64 71.7669 298.376 73.249 297.847 74.7217C297.338 76.1943 296.601 77.5254 295.638 78.7148C294.694 79.8854 293.552 80.8389 292.212 81.5752C290.89 82.2926 289.417 82.6514 287.794 82.6514ZM331.399 63.6201C331.399 64.2054 331.323 64.8568 331.172 65.5742C331.04 66.2728 330.842 66.8958 330.578 67.4434L323.979 81.6035C323.866 81.8112 323.705 81.9434 323.498 82C323.309 82.0755 323.101 82.1133 322.875 82.1133C322.61 82.1133 322.355 82.0661 322.11 81.9717C321.864 81.8773 321.695 81.6979 321.6 81.4336L317.182 65.8291L313.246 81.2354C313.095 81.5563 312.877 81.8018 312.594 81.9717C312.33 82.1416 312.028 82.2266 311.688 82.2266C311.443 82.2266 311.207 82.1794 310.98 82.085C310.772 81.9906 310.64 81.8112 310.584 81.5469L305.599 65.6309C305.524 65.4043 305.42 65.1683 305.288 64.9229C305.174 64.6585 305.023 64.4225 304.835 64.2148C304.665 63.9883 304.466 63.8089 304.24 63.6768C304.032 63.5257 303.787 63.4502 303.503 63.4502C303.126 63.4502 302.777 63.554 302.456 63.7617C302.154 63.9694 301.88 64.1865 301.634 64.4131L301.068 63.6768C301.351 63.1481 301.71 62.6572 302.144 62.2041C302.578 61.7321 303.06 61.3167 303.588 60.958C304.117 60.5993 304.674 60.3161 305.259 60.1084C305.863 59.9007 306.477 59.7969 307.1 59.7969C307.629 59.7969 308.072 59.9479 308.431 60.25C308.79 60.5521 309.092 60.9202 309.337 61.3545C309.583 61.7887 309.781 62.2513 309.932 62.7422C310.102 63.2331 310.244 63.6768 310.357 64.0732C310.923 65.848 311.48 67.6322 312.028 69.4258C312.594 71.2194 313.151 72.9941 313.699 74.75L316.502 63.3936L315.794 61.1279L320.552 59.542L325.197 76.0244L327.859 69.9355C327.972 69.6523 328.067 69.2936 328.142 68.8594C328.218 68.4062 328.255 68.0286 328.255 67.7266C328.255 66.5938 327.963 65.6214 327.377 64.8096C326.811 63.9977 326.046 63.3464 325.084 62.8555L328.312 58.3809C329.369 58.9095 330.143 59.627 330.634 60.5332C331.144 61.4206 331.399 62.4495 331.399 63.6201Z" fill="white"/>
</g>
<defs>
<filter id="filter0_d" x="76.4391" y="39.6611" width="258.96" height="55.4932" filterUnits="userSpaceOnUse" color-interpolation-filters="sRGB">
<feFlood flood-opacity="0" result="BackgroundImageFix"/>
<feColorMatrix in="SourceAlpha" type="matrix" values="0 0 0 0 0 0 0 0 0 0 0 0 0 0 0 0 0 0 127 0"/>
<feOffset dy="4"/>
<feGaussianBlur stdDeviation="2"/>
<feColorMatrix type="matrix" values="0 0 0 0 0 0 0 0 0 0 0 0 0 0 0 0 0 0 0.35 0"/>
<feBlend mode="normal" in2="BackgroundImageFix" result="effect1_dropShadow"/>
<feBlend mode="normal" in="SourceGraphic" in2="effect1_dropShadow" result="shape"/>
</filter>
<linearGradient id="paint0_linear" x1="2.14016e-05" y1="920" x2="1019.56" y2="-340.163" gradientUnits="userSpaceOnUse">
<stop stop-color="#6D57DE"/>
<stop stop-color="#5B3CB4"/>
<stop stop-color="#4B228E" stop-opacity="0.997195"/>
<stop offset="0.516808" stop-color="#6134C1" stop-opacity="0.96"/>
<stop offset="0.71956" stop-color="#664BF6" stop-opacity="0.976783"/>
<stop offset="0.993261" stop-color="#6950ED"/>
<stop offset="0.999399" stop-color="#49218A" stop-opacity="0.45"/>
</linearGradient>
</defs>
</svg>
