<svg width="1440" height="920" viewBox="0 0 1440 920" fill="none" xmlns="http://www.w3.org/2000/svg">
<rect width="1440" height="920" fill="url(#paint0_linear)"/>
<g filter="url(#filter0_d)">
<path d="M113.562 50.0605L107.984 56.8008C107.497 55.3398 106.866 53.9453 106.091 52.6172C105.317 51.2891 104.398 50.127 103.336 49.1309C102.273 48.1348 101.067 47.3379 99.7164 46.7402C98.3661 46.1426 96.8609 45.8438 95.2008 45.8438C94.0055 45.8438 92.8987 46.0651 91.8805 46.5078C90.8622 46.9284 89.9657 47.526 89.191 48.3008C88.4384 49.0534 87.8407 49.9499 87.398 50.9902C86.9775 52.0306 86.7672 53.1484 86.7672 54.3438C86.7672 55.5833 86.9996 56.7454 87.4644 57.8301C87.9293 58.9147 88.5491 59.8997 89.3238 60.7852C90.0986 61.6484 90.984 62.401 91.9801 63.043C92.9983 63.6849 94.0497 64.1829 95.1344 64.5371C96.219 64.9134 97.359 65.334 98.5543 65.7988C99.7496 66.2637 100.923 66.806 102.074 67.4258C103.225 68.0456 104.321 68.7428 105.361 69.5176C106.401 70.2702 107.32 71.1224 108.117 72.0742C108.914 73.026 109.545 74.0885 110.009 75.2617C110.474 76.4128 110.707 77.6745 110.707 79.0469C110.707 81.0391 110.264 82.832 109.379 84.4258C108.515 85.9974 107.375 87.3255 105.959 88.4102C104.542 89.4948 102.915 90.3249 101.078 90.9004C99.2626 91.4759 97.4143 91.7637 95.5328 91.7637C94.249 91.7637 92.943 91.5755 91.6148 91.1992C90.3088 90.8229 89.0471 90.3138 87.8297 89.6719C86.6344 89.0078 85.5055 88.2441 84.443 87.3809C83.4026 86.5176 82.495 85.5879 81.7203 84.5918L87.0992 78.416C87.4312 79.4785 88.0068 80.6074 88.8258 81.8027C89.6669 82.998 90.6409 84.1048 91.7477 85.123C92.8544 86.1413 94.0387 86.9935 95.3004 87.6797C96.5842 88.3438 97.8238 88.6758 99.0191 88.6758C99.7053 88.6758 100.414 88.4987 101.144 88.1445C101.875 87.7904 102.539 87.3366 103.136 86.7832C103.756 86.2077 104.265 85.5879 104.664 84.9238C105.062 84.2598 105.261 83.6068 105.261 82.9648C105.261 81.9909 105.062 81.0723 104.664 80.209C104.265 79.3236 103.734 78.4935 103.07 77.7188C102.428 76.944 101.675 76.2357 100.812 75.5938C99.971 74.9297 99.0855 74.3431 98.1559 73.834C97.2483 73.3027 96.3297 72.849 95.4 72.4727C94.4924 72.0742 93.6513 71.7643 92.8766 71.543C91.3492 71.0781 89.8551 70.4141 88.3941 69.5508C86.9553 68.6875 85.6715 67.6471 84.5426 66.4297C83.4137 65.2122 82.5061 63.8509 81.8199 62.3457C81.1337 60.8184 80.7906 59.1914 80.7906 57.4648C80.7906 55.9818 81.023 54.5762 81.4879 53.248C81.9527 51.9199 82.5947 50.6914 83.4137 49.5625C84.2327 48.4336 85.1956 47.4154 86.3023 46.5078C87.4091 45.5781 88.6044 44.8034 89.8883 44.1836C91.1721 43.5417 92.5113 43.0547 93.9059 42.7227C95.3004 42.3685 96.706 42.1914 98.1227 42.1914C101.222 42.1914 104.099 42.8887 106.755 44.2832C109.412 45.6556 111.681 47.5814 113.562 50.0605ZM129.789 87.1152C129.28 88.1999 128.693 89.0299 128.029 89.6055C127.365 90.181 126.712 90.6016 126.07 90.8672C125.34 91.1771 124.587 91.3542 123.813 91.3984C122.816 91.3984 121.997 91.2435 121.356 90.9336C120.736 90.6237 120.238 90.2142 119.861 89.7051C119.507 89.196 119.253 88.6204 119.098 87.9785C118.965 87.3366 118.899 86.6836 118.899 86.0195V68.6211H115.379L116.807 65.3008H118.899V53.5469L124.975 51.4219V65.3008H131.283L129.922 68.6211H124.975V86.1855C124.975 86.7168 125.096 87.1374 125.34 87.4473C125.583 87.7572 125.893 87.9232 126.27 87.9453C126.646 87.9453 127.066 87.8014 127.531 87.5137C127.996 87.2259 128.45 86.7611 128.893 86.1191L129.789 87.1152ZM154.649 87.3809C154.251 88.0007 153.764 88.5651 153.188 89.0742C152.613 89.5612 151.982 89.9818 151.295 90.3359C150.609 90.6901 149.89 90.9668 149.137 91.166C148.385 91.3652 147.643 91.4648 146.913 91.4648C145.939 91.4648 145.098 91.2878 144.389 90.9336C143.703 90.5573 143.139 90.0703 142.696 89.4727C142.253 88.875 141.921 88.1777 141.7 87.3809C141.501 86.584 141.401 85.7539 141.401 84.8906C141.401 83.7617 141.567 82.5553 141.899 81.2715C142.253 79.9655 142.718 78.6816 143.294 77.4199C143.891 76.1582 144.566 74.985 145.319 73.9004C146.072 72.8158 146.868 71.9193 147.71 71.2109C146.935 71.7201 146.083 72.1185 145.153 72.4062C144.245 72.694 143.316 72.8379 142.364 72.8379C141.678 72.8379 141.08 72.7826 140.571 72.6719C140.062 72.5612 139.497 72.3509 138.877 72.041L135.424 79.2461L133.997 78.6816L137.583 71.3438C137.206 71.0781 136.797 70.7461 136.354 70.3477C135.933 69.9271 135.624 69.5176 135.424 69.1191L140.04 63.9395C140.239 64.5371 140.516 65.1458 140.87 65.7656C141.224 66.3633 141.633 66.9056 142.098 67.3926C142.585 67.8574 143.116 68.2448 143.692 68.5547C144.29 68.8646 144.932 69.0195 145.618 69.0195C146.791 69.0195 147.931 68.8092 149.038 68.3887C150.144 67.946 151.174 67.4147 152.126 66.7949L153.022 67.6914C152.181 68.4661 151.329 69.3294 150.465 70.2812C149.624 71.2109 148.861 72.207 148.174 73.2695C147.488 74.332 146.935 75.4499 146.514 76.623C146.094 77.7962 145.883 78.9805 145.883 80.1758C145.883 80.862 145.972 81.6367 146.149 82.5C146.348 83.3411 146.647 84.1491 147.045 84.9238C147.444 85.6764 147.942 86.3184 148.54 86.8496C149.137 87.3587 149.857 87.6133 150.698 87.6133C151.273 87.6133 151.827 87.5137 152.358 87.3145C152.911 87.0931 153.409 86.8275 153.852 86.5176L154.649 87.3809ZM182.663 84.5254C181.888 85.5215 181.036 86.4512 180.106 87.3145C179.199 88.1777 178.203 88.9303 177.118 89.5723C176.056 90.2142 174.927 90.7233 173.731 91.0996C172.536 91.4759 171.297 91.6641 170.013 91.6641C168.375 91.6641 166.869 91.3763 165.497 90.8008C164.125 90.2031 162.94 89.3952 161.944 88.377C160.948 87.3366 160.174 86.1191 159.62 84.7246C159.067 83.3079 158.79 81.7917 158.79 80.1758C158.79 78.8477 158.978 77.5417 159.355 76.2578C159.731 74.974 160.262 73.7676 160.948 72.6387C161.634 71.5098 162.442 70.4694 163.372 69.5176C164.324 68.5436 165.364 67.7135 166.493 67.0273C167.622 66.3411 168.817 65.8099 170.079 65.4336C171.341 65.0352 172.636 64.8359 173.964 64.8359C174.894 64.8359 175.768 64.9466 176.587 65.168C177.428 65.3893 178.17 65.7435 178.812 66.2305C179.453 66.6953 179.963 67.304 180.339 68.0566C180.715 68.7871 180.903 69.6615 180.903 70.6797C180.903 71.5208 180.649 72.4062 180.14 73.3359C179.653 74.2656 179 75.1953 178.181 76.125C177.384 77.0547 176.476 77.9733 175.458 78.8809C174.44 79.7663 173.399 80.5964 172.337 81.3711C171.297 82.1237 170.289 82.7878 169.315 83.3633C168.342 83.9388 167.489 84.3815 166.759 84.6914C167.578 85.7096 168.53 86.5397 169.614 87.1816C170.699 87.8236 171.85 88.1445 173.067 88.1445C173.842 88.1445 174.628 88.0007 175.425 87.7129C176.222 87.403 176.985 87.0156 177.716 86.5508C178.468 86.0859 179.177 85.5768 179.841 85.0234C180.527 84.4701 181.136 83.9499 181.667 83.4629L182.663 84.5254ZM174.661 71.9082C174.661 71.3991 174.573 70.9121 174.396 70.4473C174.241 69.9824 174.008 69.584 173.698 69.252C173.388 68.8978 173.012 68.6211 172.569 68.4219C172.149 68.2005 171.662 68.0898 171.108 68.0898C170.112 68.0898 169.194 68.444 168.353 69.1523C167.511 69.8385 166.781 70.6908 166.161 71.709C165.564 72.7272 165.088 73.8118 164.733 74.9629C164.401 76.0918 164.235 77.0879 164.235 77.9512C164.235 78.7923 164.368 79.6556 164.634 80.541C164.899 81.4264 165.265 82.2786 165.73 83.0977C166.615 82.6107 167.578 81.9355 168.618 81.0723C169.659 80.209 170.621 79.2682 171.507 78.25C172.414 77.2096 173.167 76.1361 173.765 75.0293C174.362 73.9225 174.661 72.8822 174.661 71.9082ZM214.462 87.0488C214.197 87.6243 213.865 88.1667 213.466 88.6758C213.068 89.1849 212.603 89.6387 212.072 90.0371C211.563 90.4355 210.998 90.7565 210.378 91C209.781 91.2214 209.15 91.332 208.486 91.332C206.737 91.332 205.475 90.8561 204.701 89.9043C203.948 88.9303 203.572 87.6133 203.572 85.9531V85.3555C203.173 86.1081 202.72 86.8607 202.21 87.6133C201.723 88.3659 201.159 89.041 200.517 89.6387C199.897 90.2363 199.2 90.7233 198.425 91.0996C197.651 91.4759 196.787 91.6641 195.835 91.6641C194.397 91.6641 193.124 91.3874 192.017 90.834C190.91 90.2806 189.981 89.5391 189.228 88.6094C188.475 87.6576 187.911 86.5508 187.535 85.2891C187.158 84.0273 186.97 82.6882 186.97 81.2715C186.97 79.3457 187.302 77.431 187.966 75.5273C188.653 73.6016 189.604 71.8861 190.822 70.3809C192.061 68.8757 193.533 67.6582 195.238 66.7285C196.964 65.7767 198.879 65.3008 200.982 65.3008C201.823 65.3008 202.664 65.3783 203.505 65.5332C204.347 65.6882 205.143 65.9427 205.896 66.2969C206.671 66.6289 207.368 67.0716 207.988 67.625C208.63 68.1784 209.15 68.8535 209.548 69.6504L204.601 71.7422C204.335 71.3216 204.026 70.9232 203.671 70.5469C203.339 70.1484 202.963 69.8053 202.542 69.5176C202.144 69.2298 201.712 68.9974 201.248 68.8203C200.783 68.6432 200.296 68.5547 199.787 68.5547C198.636 68.5547 197.606 68.9089 196.699 69.6172C195.813 70.3255 195.05 71.1999 194.408 72.2402C193.788 73.2806 193.312 74.3874 192.98 75.5605C192.648 76.7337 192.482 77.7962 192.482 78.748C192.482 79.5892 192.559 80.541 192.714 81.6035C192.891 82.6439 193.19 83.6289 193.611 84.5586C194.031 85.4883 194.585 86.2741 195.271 86.916C195.957 87.5579 196.82 87.8789 197.861 87.8789C198.68 87.8789 199.388 87.7018 199.986 87.3477C200.584 86.9714 201.093 86.4954 201.513 85.9199C201.934 85.3223 202.277 84.6471 202.542 83.8945C202.83 83.1198 203.041 82.334 203.173 81.5371C203.328 80.7402 203.428 79.9544 203.472 79.1797C203.539 78.3828 203.572 77.6745 203.572 77.0547V74.7637L209.615 72.6387V86.1191C209.615 86.5618 209.725 86.9714 209.947 87.3477C210.168 87.7018 210.511 87.8789 210.976 87.8789C211.529 87.8789 212.028 87.6797 212.47 87.2812C212.935 86.8607 213.3 86.4401 213.566 86.0195L214.462 87.0488ZM255.758 87.1152C255.249 88.1999 254.651 89.0299 253.965 89.6055C253.279 90.181 252.626 90.6016 252.006 90.8672C251.275 91.1771 250.534 91.3542 249.781 91.3984C248.785 91.3984 247.966 91.2435 247.324 90.9336C246.704 90.6237 246.206 90.2142 245.83 89.7051C245.454 89.196 245.188 88.6204 245.033 87.9785C244.9 87.3366 244.834 86.6836 244.834 86.0195V72.1074C244.834 71.7533 244.768 71.4434 244.635 71.1777C244.502 70.89 244.325 70.724 244.104 70.6797C243.882 70.6354 243.617 70.7461 243.307 71.0117C242.997 71.2773 242.665 71.7533 242.311 72.4395C241.713 74.2103 241.171 76.0697 240.684 78.0176C240.263 79.6999 239.876 81.6035 239.521 83.7285C239.189 85.8314 239.001 88.0007 238.957 90.2363L232.848 92.3613V72.1074C232.848 71.7533 232.781 71.4434 232.648 71.1777C232.516 70.89 232.327 70.724 232.084 70.6797C231.863 70.6354 231.597 70.7461 231.287 71.0117C230.977 71.2773 230.656 71.7533 230.324 72.4395C229.66 74.2988 229.085 76.2357 228.598 78.25C228.376 79.1133 228.166 80.0319 227.967 81.0059C227.768 81.9798 227.59 82.987 227.436 84.0273C227.303 85.0456 227.192 86.0859 227.104 87.1484C227.015 88.1888 226.982 89.2181 227.004 90.2363L220.961 92.3613V70.0488C220.961 69.5176 220.839 69.097 220.596 68.7871C220.352 68.4772 220.031 68.3223 219.633 68.3223C219.257 68.3001 218.836 68.4329 218.371 68.7207C217.906 69.0085 217.452 69.4733 217.01 70.1152L216.113 69.1191C216.622 68.0566 217.209 67.2376 217.873 66.6621C218.559 66.0645 219.223 65.6328 219.865 65.3672C220.596 65.0573 221.348 64.8802 222.123 64.8359C223.097 64.8359 223.894 64.9909 224.514 65.3008C225.156 65.6107 225.654 66.0202 226.008 66.5293C226.384 67.0163 226.639 67.5807 226.771 68.2227C226.926 68.8646 227.004 69.5176 227.004 70.1816V77.1875C227.402 75.1953 228 73.4355 228.797 71.9082C229.594 70.3809 230.424 69.097 231.287 68.0566C232.173 66.9941 233.036 66.1973 233.877 65.666C234.718 65.1126 235.393 64.8359 235.902 64.8359C236.544 64.8359 237.064 64.9466 237.463 65.168C237.861 65.3672 238.171 65.6771 238.393 66.0977C238.614 66.5182 238.758 67.0384 238.824 67.6582C238.913 68.2559 238.957 68.9642 238.957 69.7832V77.1875C239.378 75.1953 239.975 73.4355 240.75 71.9082C241.547 70.3809 242.388 69.097 243.273 68.0566C244.159 66.9941 245.022 66.1973 245.863 65.666C246.704 65.1126 247.38 64.8359 247.889 64.8359C249.15 64.8359 249.969 65.2565 250.346 66.0977C250.744 66.9167 250.943 68.1452 250.943 69.7832V86.1855C250.943 86.7168 251.065 87.1374 251.309 87.4473C251.552 87.7572 251.862 87.9232 252.238 87.9453C252.615 87.9453 253.024 87.8014 253.467 87.5137C253.932 87.2259 254.385 86.7611 254.828 86.1191L255.758 87.1152ZM295.327 42.2578C294.64 43.3203 293.81 44.3164 292.836 45.2461C291.862 46.1758 290.8 46.9948 289.649 47.7031C288.498 48.4115 287.28 48.9759 285.997 49.3965C284.713 49.7949 283.429 49.9941 282.145 49.9941L275.604 50.0605C274.719 51.123 274.066 52.1523 273.645 53.1484C273.224 54.1445 273.014 55.3177 273.014 56.668V65.9648H273.977C274.862 65.9648 275.936 65.987 277.198 66.0312C278.459 66.0534 279.732 66.0202 281.016 65.9316C282.322 65.8431 283.562 65.6549 284.735 65.3672C285.908 65.0573 286.86 64.5814 287.59 63.9395L288.387 64.9023C287.701 65.9427 286.871 66.8171 285.897 67.5254C284.923 68.2337 283.86 68.8203 282.709 69.2852C281.558 69.7279 280.341 70.0599 279.057 70.2812C277.773 70.4805 276.489 70.5911 275.206 70.6133H273.014V83.2637C273.014 86.2077 272.383 88.8197 271.122 91.0996C269.86 93.4017 268.023 95.3828 265.61 97.043L264.448 95.748C264.824 95.3275 265.123 94.8516 265.344 94.3203C265.566 93.7891 265.732 93.2357 265.842 92.6602C265.975 92.0846 266.053 91.5091 266.075 90.9336C266.119 90.3359 266.141 89.7715 266.141 89.2402V70.6133H259.7L263.219 65.9648H266.141V60.5195C266.141 59.4792 266.351 58.472 266.772 57.498C267.215 56.502 267.768 55.5612 268.432 54.6758C269.096 53.7904 269.827 52.9603 270.624 52.1855C271.42 51.4108 272.195 50.7025 272.948 50.0605C272.018 50.0605 271.133 50.0605 270.291 50.0605C269.472 50.0384 268.642 50.0273 267.801 50.0273C266.96 50.0273 266.097 50.0273 265.211 50.0273C264.326 50.0052 263.352 49.9941 262.29 49.9941C261.448 49.9941 260.696 50.0827 260.032 50.2598C259.39 50.4147 258.792 50.6471 258.239 50.957C257.685 51.2669 257.154 51.6543 256.645 52.1191C256.136 52.584 255.616 53.1263 255.084 53.7461L254.122 52.7168C254.874 51.6764 255.771 50.6139 256.811 49.5293C257.851 48.4225 258.969 47.4154 260.165 46.5078C261.382 45.6003 262.655 44.8587 263.983 44.2832C265.333 43.6855 266.694 43.3867 268.067 43.3867H280.916C281.78 43.3867 282.842 43.3757 284.104 43.3535C285.366 43.3314 286.65 43.265 287.956 43.1543C289.262 43.0215 290.501 42.8223 291.674 42.5566C292.847 42.2689 293.788 41.8704 294.497 41.3613L295.327 42.2578ZM308.632 87.1152C308.366 87.6908 308.023 88.2331 307.602 88.7422C307.204 89.2513 306.75 89.7051 306.241 90.1035C305.732 90.502 305.168 90.8118 304.548 91.0332C303.95 91.2767 303.33 91.3984 302.688 91.3984C300.962 91.3984 299.7 90.9225 298.903 89.9707C298.129 88.9967 297.741 87.6797 297.741 86.0195V45.5117L303.851 43.3867V86.1855C303.851 86.6283 303.95 87.0378 304.149 87.4141C304.349 87.7682 304.703 87.9453 305.212 87.9453C305.721 87.9453 306.197 87.7461 306.64 87.3477C307.104 86.9271 307.47 86.5176 307.735 86.1191L308.632 87.1152ZM323.896 91.7637C322.258 91.7637 320.72 91.4759 319.281 90.9004C317.864 90.3027 316.624 89.4837 315.562 88.4434C314.522 87.403 313.692 86.1855 313.072 84.791C312.474 83.3743 312.175 81.8359 312.175 80.1758C312.175 78.2943 312.485 76.5345 313.105 74.8965C313.725 73.2363 314.577 71.7422 315.662 70.4141C316.768 69.0859 318.063 67.9349 319.546 66.9609C321.052 65.987 322.678 65.2233 324.427 64.6699L325.39 65.832C324.394 66.5625 323.464 67.4036 322.601 68.3555C321.738 69.2852 320.985 70.3034 320.343 71.4102C319.701 72.4948 319.192 73.6458 318.816 74.8633C318.44 76.0586 318.251 77.2871 318.251 78.5488C318.251 79.6113 318.406 80.7292 318.716 81.9023C319.026 83.0755 319.491 84.1491 320.111 85.123C320.731 86.097 321.505 86.9049 322.435 87.5469C323.387 88.1667 324.483 88.4766 325.722 88.4766C326.829 88.4766 327.781 88.2773 328.578 87.8789C329.397 87.4805 330.072 86.9382 330.603 86.252C331.134 85.5658 331.533 84.7689 331.798 83.8613C332.064 82.9316 332.197 81.9577 332.197 80.9395C332.197 79.7441 331.964 78.5267 331.499 77.2871C331.035 76.0254 330.393 74.8633 329.574 73.8008C328.777 72.7383 327.836 71.8529 326.751 71.1445C325.667 70.4362 324.505 70.0267 323.265 69.916C324.04 69.0306 324.892 68.2116 325.822 67.459C326.751 66.7064 327.692 65.987 328.644 65.3008C329.928 65.7214 331.057 66.3411 332.031 67.1602C333.027 67.9792 333.857 68.9199 334.521 69.9824C335.207 71.0449 335.727 72.207 336.081 73.4688C336.436 74.7083 336.613 75.9701 336.613 77.2539C336.613 79.0026 336.303 80.7402 335.683 82.4668C335.085 84.1934 334.222 85.7539 333.093 87.1484C331.986 88.5208 330.647 89.6387 329.076 90.502C327.526 91.3431 325.8 91.7637 323.896 91.7637ZM375.019 69.4512C375.019 70.1374 374.931 70.901 374.754 71.7422C374.599 72.5612 374.366 73.2917 374.057 73.9336L366.32 90.5352C366.187 90.7786 365.999 90.9336 365.756 91C365.534 91.0885 365.291 91.1328 365.025 91.1328C364.715 91.1328 364.417 91.0775 364.129 90.9668C363.841 90.8561 363.642 90.6458 363.531 90.3359L358.351 72.041L353.736 90.1035C353.559 90.4798 353.305 90.7676 352.973 90.9668C352.663 91.166 352.309 91.2656 351.91 91.2656C351.622 91.2656 351.346 91.2103 351.08 91.0996C350.836 90.9889 350.682 90.7786 350.615 90.4688L344.771 71.8086C344.683 71.543 344.561 71.2663 344.406 70.9785C344.273 70.6686 344.096 70.3919 343.875 70.1484C343.676 69.8828 343.443 69.6725 343.178 69.5176C342.934 69.3405 342.646 69.252 342.314 69.252C341.872 69.252 341.462 69.3737 341.086 69.6172C340.732 69.8607 340.411 70.1152 340.123 70.3809L339.459 69.5176C339.791 68.8978 340.211 68.3223 340.721 67.791C341.23 67.2376 341.794 66.7507 342.414 66.3301C343.034 65.9095 343.687 65.5775 344.373 65.334C345.081 65.0905 345.801 64.9688 346.531 64.9688C347.151 64.9688 347.671 65.1458 348.092 65.5C348.512 65.8542 348.866 66.2858 349.154 66.7949C349.442 67.304 349.674 67.8464 349.851 68.4219C350.051 68.9974 350.217 69.5176 350.35 69.9824C351.014 72.0632 351.667 74.1549 352.309 76.2578C352.973 78.3607 353.626 80.4414 354.267 82.5L357.555 69.1855L356.725 66.5293L362.303 64.6699L367.748 83.9941L370.869 76.8555C371.002 76.5234 371.113 76.1029 371.201 75.5938C371.29 75.0625 371.334 74.6198 371.334 74.2656C371.334 72.9375 370.991 71.7975 370.305 70.8457C369.641 69.8939 368.744 69.1302 367.615 68.5547L371.4 63.3086C372.64 63.9284 373.547 64.7695 374.123 65.832C374.721 66.8724 375.019 68.0788 375.019 69.4512Z" fill="white"/>
</g>
<defs>
<filter id="filter0_d" x="76.7906" y="41.3613" width="302.229" height="63.6816" filterUnits="userSpaceOnUse" color-interpolation-filters="sRGB">
<feFlood flood-opacity="0" result="BackgroundImageFix"/>
<feColorMatrix in="SourceAlpha" type="matrix" values="0 0 0 0 0 0 0 0 0 0 0 0 0 0 0 0 0 0 127 0"/>
<feOffset dy="4"/>
<feGaussianBlur stdDeviation="2"/>
<feColorMatrix type="matrix" values="0 0 0 0 0 0 0 0 0 0 0 0 0 0 0 0 0 0 0.35 0"/>
<feBlend mode="normal" in2="BackgroundImageFix" result="effect1_dropShadow"/>
<feBlend mode="normal" in="SourceGraphic" in2="effect1_dropShadow" result="shape"/>
</filter>
<linearGradient id="paint0_linear" x1="2.14016e-05" y1="920" x2="1019.56" y2="-340.163" gradientUnits="userSpaceOnUse">
<stop stop-color="#6D57DE"/>
<stop stop-color="#5B3CB4"/>
<stop stop-color="#4B228E" stop-opacity="0.997195"/>
<stop offset="0.516808" stop-color="#6134C1" stop-opacity="0.96"/>
<stop offset="0.71956" stop-color="#664BF6" stop-opacity="0.976783"/>
<stop offset="0.993261" stop-color="#6950ED"/>
<stop offset="0.999399" stop-color="#49218A" stop-opacity="0.45"/>
</linearGradient>
</defs>
</svg>
