<svg width="217" height="49" viewBox="0 0 217 49" fill="none" xmlns="http://www.w3.org/2000/svg">
<g filter="url(#filter0_d)">
<path d="M28.0803 7.10156L24.1428 11.8594C23.7991 10.8281 23.3538 9.84375 22.8069 8.90625C22.26 7.96875 21.6116 7.14844 20.8616 6.44531C20.1116 5.74219 19.26 5.17969 18.3069 4.75781C17.3538 4.33594 16.2913 4.125 15.1194 4.125C14.2756 4.125 13.4944 4.28125 12.7756 4.59375C12.0569 4.89063 11.4241 5.3125 10.8772 5.85938C10.3459 6.39063 9.92406 7.02344 9.61156 7.75781C9.31469 8.49219 9.16625 9.28125 9.16625 10.125C9.16625 11 9.33031 11.8203 9.65844 12.5859C9.98656 13.3516 10.4241 14.0469 10.9709 14.6719C11.5178 15.2812 12.1428 15.8125 12.8459 16.2656C13.5647 16.7188 14.3069 17.0703 15.0725 17.3203C15.8381 17.5859 16.6428 17.8828 17.4866 18.2109C18.3303 18.5391 19.1584 18.9219 19.9709 19.3594C20.7834 19.7969 21.5569 20.2891 22.2913 20.8359C23.0256 21.3672 23.6741 21.9688 24.2366 22.6406C24.7991 23.3125 25.2444 24.0625 25.5725 24.8906C25.9006 25.7031 26.0647 26.5938 26.0647 27.5625C26.0647 28.9688 25.7522 30.2344 25.1272 31.3594C24.5178 32.4688 23.7131 33.4062 22.7131 34.1719C21.7131 34.9375 20.5647 35.5234 19.2678 35.9297C17.9866 36.3359 16.6819 36.5391 15.3538 36.5391C14.4475 36.5391 13.5256 36.4062 12.5881 36.1406C11.6663 35.875 10.7756 35.5156 9.91625 35.0625C9.0725 34.5938 8.27563 34.0547 7.52563 33.4453C6.79125 32.8359 6.15063 32.1797 5.60375 31.4766L9.40063 27.1172C9.635 27.8672 10.0413 28.6641 10.6194 29.5078C11.2131 30.3516 11.9006 31.1328 12.6819 31.8516C13.4631 32.5703 14.2991 33.1719 15.1897 33.6562C16.0959 34.125 16.9709 34.3594 17.8147 34.3594C18.2991 34.3594 18.7991 34.2344 19.3147 33.9844C19.8303 33.7344 20.2991 33.4141 20.7209 33.0234C21.1584 32.6172 21.5178 32.1797 21.7991 31.7109C22.0803 31.2422 22.2209 30.7812 22.2209 30.3281C22.2209 29.6406 22.0803 28.9922 21.7991 28.3828C21.5178 27.7578 21.1428 27.1719 20.6741 26.625C20.2209 26.0781 19.6897 25.5781 19.0803 25.125C18.4866 24.6562 17.8616 24.2422 17.2053 23.8828C16.5647 23.5078 15.9163 23.1875 15.26 22.9219C14.6194 22.6406 14.0256 22.4219 13.4788 22.2656C12.4006 21.9375 11.3459 21.4688 10.3147 20.8594C9.29906 20.25 8.39281 19.5156 7.59594 18.6562C6.79906 17.7969 6.15844 16.8359 5.67406 15.7734C5.18969 14.6953 4.9475 13.5469 4.9475 12.3281C4.9475 11.2812 5.11156 10.2891 5.43969 9.35156C5.76781 8.41406 6.22094 7.54688 6.79906 6.75C7.37719 5.95312 8.05688 5.23437 8.83813 4.59375C9.61938 3.9375 10.4631 3.39063 11.3694 2.95312C12.2756 2.5 13.2209 2.15625 14.2053 1.92188C15.1897 1.67187 16.1819 1.54688 17.1819 1.54688C19.3694 1.54688 21.4006 2.03906 23.2756 3.02344C25.1506 3.99219 26.7522 5.35156 28.0803 7.10156ZM39.5347 33.2578C39.1753 34.0234 38.7613 34.6094 38.2925 35.0156C37.8238 35.4219 37.3628 35.7188 36.9097 35.9062C36.3941 36.125 35.8628 36.25 35.3159 36.2812C34.6128 36.2812 34.0347 36.1719 33.5816 35.9531C33.1441 35.7344 32.7925 35.4453 32.5269 35.0859C32.2769 34.7266 32.0972 34.3203 31.9878 33.8672C31.8941 33.4141 31.8472 32.9531 31.8472 32.4844V20.2031H29.3628L30.3706 17.8594H31.8472V9.5625L36.1363 8.0625V17.8594H40.5894L39.6284 20.2031H36.1363V32.6016C36.1363 32.9766 36.2222 33.2734 36.3941 33.4922C36.5659 33.7109 36.7847 33.8281 37.0503 33.8438C37.3159 33.8438 37.6128 33.7422 37.9409 33.5391C38.2691 33.3359 38.5894 33.0078 38.9019 32.5547L39.5347 33.2578ZM57.0828 33.4453C56.8016 33.8828 56.4578 34.2812 56.0516 34.6406C55.6453 34.9844 55.2 35.2812 54.7156 35.5312C54.2313 35.7812 53.7234 35.9766 53.1922 36.1172C52.6609 36.2578 52.1375 36.3281 51.6219 36.3281C50.9344 36.3281 50.3406 36.2031 49.8406 35.9531C49.3563 35.6875 48.9578 35.3438 48.6453 34.9219C48.3328 34.5 48.0984 34.0078 47.9422 33.4453C47.8016 32.8828 47.7313 32.2969 47.7313 31.6875C47.7313 30.8906 47.8484 30.0391 48.0828 29.1328C48.3328 28.2109 48.6609 27.3047 49.0672 26.4141C49.4891 25.5234 49.9656 24.6953 50.4969 23.9297C51.0281 23.1641 51.5906 22.5312 52.1844 22.0312C51.6375 22.3906 51.0359 22.6719 50.3797 22.875C49.7391 23.0781 49.0828 23.1797 48.4109 23.1797C47.9266 23.1797 47.5047 23.1406 47.1453 23.0625C46.7859 22.9844 46.3875 22.8359 45.95 22.6172L43.5125 27.7031L42.5047 27.3047L45.0359 22.125C44.7703 21.9375 44.4813 21.7031 44.1688 21.4219C43.8719 21.125 43.6531 20.8359 43.5125 20.5547L46.7703 16.8984C46.9109 17.3203 47.1063 17.75 47.3563 18.1875C47.6063 18.6094 47.8953 18.9922 48.2234 19.3359C48.5672 19.6641 48.9422 19.9375 49.3484 20.1562C49.7703 20.375 50.2234 20.4844 50.7078 20.4844C51.5359 20.4844 52.3406 20.3359 53.1219 20.0391C53.9031 19.7266 54.6297 19.3516 55.3016 18.9141L55.9344 19.5469C55.3406 20.0938 54.7391 20.7031 54.1297 21.375C53.5359 22.0312 52.9969 22.7344 52.5125 23.4844C52.0281 24.2344 51.6375 25.0234 51.3406 25.8516C51.0438 26.6797 50.8953 27.5156 50.8953 28.3594C50.8953 28.8438 50.9578 29.3906 51.0828 30C51.2234 30.5938 51.4344 31.1641 51.7156 31.7109C51.9969 32.2422 52.3484 32.6953 52.7703 33.0703C53.1922 33.4297 53.7 33.6094 54.2938 33.6094C54.7 33.6094 55.0906 33.5391 55.4656 33.3984C55.8563 33.2422 56.2078 33.0547 56.5203 32.8359L57.0828 33.4453ZM76.8575 31.4297C76.3106 32.1328 75.7091 32.7891 75.0528 33.3984C74.4122 34.0078 73.7091 34.5391 72.9434 34.9922C72.1934 35.4453 71.3966 35.8047 70.5528 36.0703C69.7091 36.3359 68.8341 36.4688 67.9278 36.4688C66.7716 36.4688 65.7091 36.2656 64.7403 35.8594C63.7716 35.4375 62.9356 34.8672 62.2325 34.1484C61.5294 33.4141 60.9825 32.5547 60.5919 31.5703C60.2013 30.5703 60.0059 29.5 60.0059 28.3594C60.0059 27.4219 60.1388 26.5 60.4044 25.5938C60.67 24.6875 61.045 23.8359 61.5294 23.0391C62.0138 22.2422 62.5841 21.5078 63.2403 20.8359C63.9122 20.1484 64.6466 19.5625 65.4434 19.0781C66.2403 18.5938 67.0841 18.2188 67.9747 17.9531C68.8653 17.6719 69.7794 17.5312 70.7169 17.5312C71.3731 17.5312 71.9903 17.6094 72.5684 17.7656C73.1622 17.9219 73.6856 18.1719 74.1388 18.5156C74.5919 18.8438 74.9513 19.2734 75.2169 19.8047C75.4825 20.3203 75.6153 20.9375 75.6153 21.6562C75.6153 22.25 75.4356 22.875 75.0763 23.5312C74.7325 24.1875 74.2716 24.8438 73.6934 25.5C73.1309 26.1562 72.4903 26.8047 71.7716 27.4453C71.0528 28.0703 70.3184 28.6562 69.5684 29.2031C68.8341 29.7344 68.1231 30.2031 67.4356 30.6094C66.7481 31.0156 66.1466 31.3281 65.6309 31.5469C66.2091 32.2656 66.8809 32.8516 67.6466 33.3047C68.4122 33.7578 69.2247 33.9844 70.0841 33.9844C70.6309 33.9844 71.1856 33.8828 71.7481 33.6797C72.3106 33.4609 72.8497 33.1875 73.3653 32.8594C73.8966 32.5312 74.3966 32.1719 74.8653 31.7812C75.3497 31.3906 75.7794 31.0234 76.1544 30.6797L76.8575 31.4297ZM71.2091 22.5234C71.2091 22.1641 71.1466 21.8203 71.0216 21.4922C70.9122 21.1641 70.7481 20.8828 70.5294 20.6484C70.3106 20.3984 70.045 20.2031 69.7325 20.0625C69.4356 19.9062 69.0919 19.8281 68.7013 19.8281C67.9981 19.8281 67.3497 20.0781 66.7559 20.5781C66.1622 21.0625 65.6466 21.6641 65.2091 22.3828C64.7872 23.1016 64.4513 23.8672 64.2013 24.6797C63.9669 25.4766 63.8497 26.1797 63.8497 26.7891C63.8497 27.3828 63.9434 27.9922 64.1309 28.6172C64.3184 29.2422 64.5763 29.8438 64.9044 30.4219C65.5294 30.0781 66.2091 29.6016 66.9434 28.9922C67.6778 28.3828 68.3575 27.7188 68.9825 27C69.6231 26.2656 70.1544 25.5078 70.5763 24.7266C70.9981 23.9453 71.2091 23.2109 71.2091 22.5234ZM99.3041 33.2109C99.1166 33.6172 98.8822 34 98.6009 34.3594C98.3197 34.7188 97.9916 35.0391 97.6166 35.3203C97.2572 35.6016 96.8587 35.8281 96.4212 36C95.9994 36.1562 95.5541 36.2344 95.0853 36.2344C93.8509 36.2344 92.9603 35.8984 92.4134 35.2266C91.8822 34.5391 91.6166 33.6094 91.6166 32.4375V32.0156C91.3353 32.5469 91.015 33.0781 90.6556 33.6094C90.3119 34.1406 89.9134 34.6172 89.4603 35.0391C89.0228 35.4609 88.5306 35.8047 87.9837 36.0703C87.4369 36.3359 86.8275 36.4688 86.1556 36.4688C85.14 36.4688 84.2416 36.2734 83.4603 35.8828C82.6791 35.4922 82.0228 34.9688 81.4916 34.3125C80.9603 33.6406 80.5619 32.8594 80.2962 31.9688C80.0306 31.0781 79.8978 30.1328 79.8978 29.1328C79.8978 27.7734 80.1322 26.4219 80.6009 25.0781C81.0853 23.7188 81.7572 22.5078 82.6166 21.4453C83.4916 20.3828 84.5306 19.5234 85.7337 18.8672C86.9525 18.1953 88.3041 17.8594 89.7884 17.8594C90.3822 17.8594 90.9759 17.9141 91.5697 18.0234C92.1634 18.1328 92.7259 18.3125 93.2572 18.5625C93.8041 18.7969 94.2962 19.1094 94.7337 19.5C95.1869 19.8906 95.5541 20.3672 95.8353 20.9297L92.3431 22.4062C92.1556 22.1094 91.9369 21.8281 91.6869 21.5625C91.4525 21.2812 91.1869 21.0391 90.89 20.8359C90.6087 20.6328 90.3041 20.4688 89.9759 20.3438C89.6478 20.2188 89.3041 20.1562 88.9447 20.1562C88.1322 20.1562 87.4056 20.4062 86.765 20.9062C86.14 21.4062 85.6009 22.0234 85.1478 22.7578C84.7103 23.4922 84.3744 24.2734 84.14 25.1016C83.9056 25.9297 83.7884 26.6797 83.7884 27.3516C83.7884 27.9453 83.8431 28.6172 83.9525 29.3672C84.0775 30.1016 84.2884 30.7969 84.5853 31.4531C84.8822 32.1094 85.2728 32.6641 85.7572 33.1172C86.2416 33.5703 86.8509 33.7969 87.5853 33.7969C88.1634 33.7969 88.6634 33.6719 89.0853 33.4219C89.5072 33.1562 89.8666 32.8203 90.1634 32.4141C90.4603 31.9922 90.7025 31.5156 90.89 30.9844C91.0931 30.4375 91.2416 29.8828 91.3353 29.3203C91.4447 28.7578 91.515 28.2031 91.5462 27.6562C91.5931 27.0938 91.6166 26.5938 91.6166 26.1562V24.5391L95.8822 23.0391V32.5547C95.8822 32.8672 95.9603 33.1562 96.1166 33.4219C96.2728 33.6719 96.515 33.7969 96.8431 33.7969C97.2337 33.7969 97.5853 33.6562 97.8978 33.375C98.2259 33.0781 98.4837 32.7812 98.6712 32.4844L99.3041 33.2109ZM128.454 33.2578C128.094 34.0234 127.673 34.6094 127.188 35.0156C126.704 35.4219 126.243 35.7188 125.805 35.9062C125.29 36.125 124.766 36.25 124.235 36.2812C123.532 36.2812 122.954 36.1719 122.501 35.9531C122.063 35.7344 121.712 35.4453 121.446 35.0859C121.18 34.7266 120.993 34.3203 120.883 33.8672C120.79 33.4141 120.743 32.9531 120.743 32.4844V22.6641C120.743 22.4141 120.696 22.1953 120.602 22.0078C120.508 21.8047 120.383 21.6875 120.227 21.6562C120.071 21.625 119.883 21.7031 119.665 21.8906C119.446 22.0781 119.212 22.4141 118.962 22.8984C118.54 24.1484 118.157 25.4609 117.813 26.8359C117.516 28.0234 117.243 29.3672 116.993 30.8672C116.758 32.3516 116.626 33.8828 116.594 35.4609L112.282 36.9609V22.6641C112.282 22.4141 112.235 22.1953 112.141 22.0078C112.048 21.8047 111.915 21.6875 111.743 21.6562C111.587 21.625 111.399 21.7031 111.18 21.8906C110.962 22.0781 110.735 22.4141 110.501 22.8984C110.032 24.2109 109.626 25.5781 109.282 27C109.126 27.6094 108.977 28.2578 108.837 28.9453C108.696 29.6328 108.571 30.3438 108.462 31.0781C108.368 31.7969 108.29 32.5312 108.227 33.2812C108.165 34.0156 108.141 34.7422 108.157 35.4609L103.891 36.9609V21.2109C103.891 20.8359 103.805 20.5391 103.633 20.3203C103.462 20.1016 103.235 19.9922 102.954 19.9922C102.688 19.9766 102.391 20.0703 102.063 20.2734C101.735 20.4766 101.415 20.8047 101.102 21.2578L100.469 20.5547C100.829 19.8047 101.243 19.2266 101.712 18.8203C102.196 18.3984 102.665 18.0938 103.118 17.9062C103.633 17.6875 104.165 17.5625 104.712 17.5312C105.399 17.5312 105.962 17.6406 106.399 17.8594C106.852 18.0781 107.204 18.3672 107.454 18.7266C107.719 19.0703 107.899 19.4688 107.993 19.9219C108.102 20.375 108.157 20.8359 108.157 21.3047V26.25C108.438 24.8438 108.86 23.6016 109.423 22.5234C109.985 21.4453 110.571 20.5391 111.18 19.8047C111.805 19.0547 112.415 18.4922 113.008 18.1172C113.602 17.7266 114.079 17.5312 114.438 17.5312C114.891 17.5312 115.258 17.6094 115.54 17.7656C115.821 17.9062 116.04 18.125 116.196 18.4219C116.352 18.7188 116.454 19.0859 116.501 19.5234C116.563 19.9453 116.594 20.4453 116.594 21.0234V26.25C116.891 24.8438 117.313 23.6016 117.86 22.5234C118.423 21.4453 119.016 20.5391 119.641 19.8047C120.266 19.0547 120.876 18.4922 121.469 18.1172C122.063 17.7266 122.54 17.5312 122.899 17.5312C123.79 17.5312 124.368 17.8281 124.633 18.4219C124.915 19 125.055 19.8672 125.055 21.0234V32.6016C125.055 32.9766 125.141 33.2734 125.313 33.4922C125.485 33.7109 125.704 33.8281 125.969 33.8438C126.235 33.8438 126.524 33.7422 126.837 33.5391C127.165 33.3359 127.485 33.0078 127.798 32.5547L128.454 33.2578ZM156.385 1.59375C155.9 2.34375 155.314 3.04688 154.627 3.70312C153.939 4.35938 153.189 4.9375 152.377 5.4375C151.564 5.9375 150.705 6.33594 149.799 6.63281C148.893 6.91406 147.986 7.05469 147.08 7.05469L142.463 7.10156C141.838 7.85156 141.377 8.57812 141.08 9.28125C140.783 9.98438 140.635 10.8125 140.635 11.7656V18.3281H141.314C141.939 18.3281 142.697 18.3438 143.588 18.375C144.478 18.3906 145.377 18.3672 146.283 18.3047C147.205 18.2422 148.08 18.1094 148.908 17.9062C149.736 17.6875 150.408 17.3516 150.924 16.8984L151.486 17.5781C151.002 18.3125 150.416 18.9297 149.728 19.4297C149.041 19.9297 148.291 20.3438 147.478 20.6719C146.666 20.9844 145.807 21.2188 144.9 21.375C143.994 21.5156 143.088 21.5938 142.182 21.6094H140.635V30.5391C140.635 32.6172 140.189 34.4609 139.299 36.0703C138.408 37.6953 137.111 39.0938 135.408 40.2656L134.588 39.3516C134.853 39.0547 135.064 38.7188 135.221 38.3438C135.377 37.9688 135.494 37.5781 135.572 37.1719C135.666 36.7656 135.721 36.3594 135.736 35.9531C135.768 35.5312 135.783 35.1328 135.783 34.7578V21.6094H131.236L133.721 18.3281H135.783V14.4844C135.783 13.75 135.932 13.0391 136.228 12.3516C136.541 11.6484 136.932 10.9844 137.4 10.3594C137.869 9.73437 138.385 9.14844 138.947 8.60156C139.51 8.05469 140.057 7.55469 140.588 7.10156C139.932 7.10156 139.307 7.10156 138.713 7.10156C138.135 7.08594 137.549 7.07812 136.955 7.07812C136.361 7.07812 135.752 7.07812 135.127 7.07812C134.502 7.0625 133.814 7.05469 133.064 7.05469C132.471 7.05469 131.939 7.11719 131.471 7.24219C131.018 7.35156 130.596 7.51563 130.205 7.73438C129.814 7.95312 129.439 8.22656 129.08 8.55469C128.721 8.88281 128.353 9.26562 127.978 9.70312L127.299 8.97656C127.83 8.24219 128.463 7.49219 129.197 6.72656C129.932 5.94531 130.721 5.23437 131.564 4.59375C132.424 3.95313 133.322 3.42969 134.26 3.02344C135.213 2.60156 136.174 2.39062 137.143 2.39062H146.213C146.822 2.39062 147.572 2.38281 148.463 2.36719C149.353 2.35156 150.26 2.30469 151.182 2.22656C152.103 2.13281 152.978 1.99219 153.807 1.80469C154.635 1.60156 155.299 1.32031 155.799 0.960938L156.385 1.59375ZM165.777 33.2578C165.589 33.6641 165.347 34.0469 165.05 34.4062C164.769 34.7656 164.448 35.0859 164.089 35.3672C163.73 35.6484 163.331 35.8672 162.894 36.0234C162.472 36.1953 162.034 36.2812 161.581 36.2812C160.362 36.2812 159.472 35.9453 158.909 35.2734C158.362 34.5859 158.089 33.6562 158.089 32.4844V3.89062L162.402 2.39062V32.6016C162.402 32.9141 162.472 33.2031 162.612 33.4688C162.753 33.7188 163.003 33.8438 163.362 33.8438C163.722 33.8438 164.058 33.7031 164.37 33.4219C164.698 33.125 164.956 32.8359 165.144 32.5547L165.777 33.2578ZM176.551 36.5391C175.395 36.5391 174.309 36.3359 173.293 35.9297C172.293 35.5078 171.418 34.9297 170.668 34.1953C169.934 33.4609 169.348 32.6016 168.911 31.6172C168.489 30.6172 168.278 29.5312 168.278 28.3594C168.278 27.0312 168.497 25.7891 168.934 24.6328C169.372 23.4609 169.973 22.4062 170.739 21.4688C171.52 20.5312 172.434 19.7188 173.481 19.0312C174.543 18.3438 175.692 17.8047 176.926 17.4141L177.606 18.2344C176.903 18.75 176.247 19.3438 175.637 20.0156C175.028 20.6719 174.497 21.3906 174.043 22.1719C173.59 22.9375 173.231 23.75 172.965 24.6094C172.7 25.4531 172.567 26.3203 172.567 27.2109C172.567 27.9609 172.676 28.75 172.895 29.5781C173.114 30.4062 173.442 31.1641 173.879 31.8516C174.317 32.5391 174.864 33.1094 175.52 33.5625C176.192 34 176.965 34.2188 177.84 34.2188C178.622 34.2188 179.293 34.0781 179.856 33.7969C180.434 33.5156 180.911 33.1328 181.286 32.6484C181.661 32.1641 181.942 31.6016 182.129 30.9609C182.317 30.3047 182.411 29.6172 182.411 28.8984C182.411 28.0547 182.247 27.1953 181.918 26.3203C181.59 25.4297 181.137 24.6094 180.559 23.8594C179.997 23.1094 179.332 22.4844 178.567 21.9844C177.801 21.4844 176.981 21.1953 176.106 21.1172C176.653 20.4922 177.254 19.9141 177.911 19.3828C178.567 18.8516 179.231 18.3438 179.903 17.8594C180.809 18.1562 181.606 18.5938 182.293 19.1719C182.997 19.75 183.582 20.4141 184.051 21.1641C184.536 21.9141 184.903 22.7344 185.153 23.625C185.403 24.5 185.528 25.3906 185.528 26.2969C185.528 27.5312 185.309 28.7578 184.872 29.9766C184.45 31.1953 183.84 32.2969 183.043 33.2812C182.262 34.25 181.317 35.0391 180.207 35.6484C179.114 36.2422 177.895 36.5391 176.551 36.5391ZM212.638 20.7891C212.638 21.2734 212.576 21.8125 212.451 22.4062C212.342 22.9844 212.177 23.5 211.959 23.9531L206.498 35.6719C206.404 35.8438 206.271 35.9531 206.099 36C205.943 36.0625 205.771 36.0938 205.584 36.0938C205.365 36.0938 205.154 36.0547 204.951 35.9766C204.748 35.8984 204.607 35.75 204.529 35.5312L200.873 22.6172L197.615 35.3672C197.49 35.6328 197.31 35.8359 197.076 35.9766C196.857 36.1172 196.607 36.1875 196.326 36.1875C196.123 36.1875 195.927 36.1484 195.74 36.0703C195.568 35.9922 195.459 35.8438 195.412 35.625L191.287 22.4531C191.224 22.2656 191.138 22.0703 191.029 21.8672C190.935 21.6484 190.81 21.4531 190.654 21.2812C190.513 21.0938 190.349 20.9453 190.162 20.8359C189.99 20.7109 189.787 20.6484 189.552 20.6484C189.24 20.6484 188.951 20.7344 188.685 20.9062C188.435 21.0781 188.209 21.2578 188.006 21.4453L187.537 20.8359C187.771 20.3984 188.068 19.9922 188.427 19.6172C188.787 19.2266 189.185 18.8828 189.623 18.5859C190.06 18.2891 190.521 18.0547 191.006 17.8828C191.506 17.7109 192.013 17.625 192.529 17.625C192.967 17.625 193.334 17.75 193.631 18C193.927 18.25 194.177 18.5547 194.381 18.9141C194.584 19.2734 194.748 19.6562 194.873 20.0625C195.013 20.4688 195.131 20.8359 195.224 21.1641C195.693 22.6328 196.154 24.1094 196.607 25.5938C197.076 27.0781 197.537 28.5469 197.99 30L200.31 20.6016L199.724 18.7266L203.662 17.4141L207.506 31.0547L209.709 26.0156C209.802 25.7812 209.881 25.4844 209.943 25.125C210.006 24.75 210.037 24.4375 210.037 24.1875C210.037 23.25 209.795 22.4453 209.31 21.7734C208.842 21.1016 208.209 20.5625 207.412 20.1562L210.084 16.4531C210.959 16.8906 211.599 17.4844 212.006 18.2344C212.427 18.9688 212.638 19.8203 212.638 20.7891Z" fill="#6950ED"/>
</g>
<defs>
<filter id="filter0_d" x="0.94751" y="0.960938" width="215.691" height="47.3047" filterUnits="userSpaceOnUse" color-interpolation-filters="sRGB">
<feFlood flood-opacity="0" result="BackgroundImageFix"/>
<feColorMatrix in="SourceAlpha" type="matrix" values="0 0 0 0 0 0 0 0 0 0 0 0 0 0 0 0 0 0 127 0"/>
<feOffset dy="4"/>
<feGaussianBlur stdDeviation="2"/>
<feColorMatrix type="matrix" values="0 0 0 0 0 0 0 0 0 0 0 0 0 0 0 0 0 0 0.35 0"/>
<feBlend mode="normal" in2="BackgroundImageFix" result="effect1_dropShadow"/>
<feBlend mode="normal" in="SourceGraphic" in2="effect1_dropShadow" result="shape"/>
</filter>
</defs>
</svg>
