<svg width="365" height="109" viewBox="0 0 365 109" fill="none" xmlns="http://www.w3.org/2000/svg">
<g filter="url(#filter0_d)">
<path d="M42.5672 10.8359L36.0047 18.7656C35.4318 17.0469 34.6896 15.4062 33.7781 13.8438C32.8667 12.2812 31.7859 10.9141 30.5359 9.74219C29.2859 8.57031 27.8667 7.63281 26.2781 6.92969C24.6896 6.22656 22.9187 5.875 20.9656 5.875C19.5594 5.875 18.2573 6.13542 17.0594 6.65625C15.8615 7.15104 14.8068 7.85417 13.8953 8.76562C13.0099 9.65104 12.3068 10.7057 11.7859 11.9297C11.2911 13.1536 11.0437 14.4688 11.0437 15.875C11.0437 17.3333 11.3172 18.7005 11.8641 19.9766C12.4109 21.2526 13.1401 22.4115 14.0516 23.4531C14.963 24.4688 16.0047 25.3542 17.1766 26.1094C18.3745 26.8646 19.6115 27.4505 20.8875 27.8672C22.1635 28.3099 23.5047 28.8047 24.9109 29.3516C26.3172 29.8984 27.6974 30.5365 29.0516 31.2656C30.4057 31.9948 31.6948 32.8151 32.9187 33.7266C34.1427 34.612 35.2234 35.6146 36.1609 36.7344C37.0984 37.8542 37.8406 39.1042 38.3875 40.4844C38.9344 41.8385 39.2078 43.3229 39.2078 44.9375C39.2078 47.2812 38.687 49.3906 37.6453 51.2656C36.6297 53.1146 35.2885 54.6771 33.6219 55.9531C31.9552 57.2292 30.0411 58.2057 27.8797 58.8828C25.7443 59.5599 23.5698 59.8984 21.3562 59.8984C19.8458 59.8984 18.3094 59.6771 16.7469 59.2344C15.2104 58.7917 13.726 58.1927 12.2937 57.4375C10.8875 56.6562 9.55937 55.7578 8.30937 54.7422C7.08541 53.7266 6.01771 52.6328 5.10625 51.4609L11.4344 44.1953C11.825 45.4453 12.5021 46.7734 13.4656 48.1797C14.4552 49.5859 15.601 50.888 16.9031 52.0859C18.2052 53.2839 19.5984 54.2865 21.0828 55.0938C22.5932 55.875 24.0516 56.2656 25.4578 56.2656C26.2651 56.2656 27.0984 56.0573 27.9578 55.6406C28.8172 55.224 29.5984 54.6901 30.3016 54.0391C31.0307 53.362 31.6297 52.6328 32.0984 51.8516C32.5672 51.0703 32.8016 50.3021 32.8016 49.5469C32.8016 48.401 32.5672 47.3203 32.0984 46.3047C31.6297 45.263 31.0047 44.2865 30.2234 43.375C29.4682 42.4635 28.5828 41.6302 27.5672 40.875C26.5776 40.0938 25.5359 39.4036 24.4422 38.8047C23.3745 38.1797 22.2937 37.6458 21.2 37.2031C20.1323 36.7344 19.1427 36.3698 18.2312 36.1094C16.4344 35.5625 14.6766 34.7812 12.9578 33.7656C11.2651 32.75 9.75468 31.526 8.42656 30.0938C7.09843 28.6615 6.03073 27.0599 5.22343 25.2891C4.41614 23.4922 4.0125 21.5781 4.0125 19.5469C4.0125 17.8021 4.28593 16.1484 4.83281 14.5859C5.37968 13.0234 6.13489 11.5781 7.09843 10.25C8.06198 8.92188 9.19479 7.72396 10.4969 6.65625C11.799 5.5625 13.2052 4.65104 14.7156 3.92188C16.226 3.16667 17.8016 2.59375 19.4422 2.20312C21.0828 1.78646 22.7365 1.57812 24.4031 1.57812C28.049 1.57812 31.4344 2.39844 34.5594 4.03906C37.6844 5.65365 40.3536 7.91927 42.5672 10.8359ZM62.8578 54.4297C62.2589 55.7057 61.5687 56.6823 60.7875 57.3594C60.0062 58.0365 59.238 58.5312 58.4828 58.8438C57.6234 59.2083 56.738 59.4167 55.8266 59.4688C54.6547 59.4688 53.6911 59.2865 52.9359 58.9219C52.2068 58.5573 51.6208 58.0755 51.1781 57.4766C50.7615 56.8776 50.462 56.2005 50.2797 55.4453C50.1234 54.6901 50.0453 53.9219 50.0453 53.1406V32.6719H45.9047L47.5844 28.7656H50.0453V14.9375L57.1937 12.4375V28.7656H64.6156L63.0141 32.6719H57.1937V53.3359C57.1937 53.9609 57.337 54.4557 57.6234 54.8203C57.9099 55.1849 58.2745 55.3802 58.7172 55.4062C59.1599 55.4062 59.6547 55.237 60.2016 54.8984C60.7484 54.5599 61.2823 54.013 61.8031 53.2578L62.8578 54.4297ZM93.3047 54.7422C92.8359 55.4714 92.263 56.1354 91.5859 56.7344C90.9089 57.3073 90.1667 57.8021 89.3594 58.2188C88.5521 58.6354 87.7057 58.9609 86.8203 59.1953C85.9349 59.4297 85.0625 59.5469 84.2031 59.5469C83.0573 59.5469 82.0677 59.3385 81.2344 58.9219C80.4271 58.4792 79.763 57.9062 79.2422 57.2031C78.7214 56.5 78.3307 55.6797 78.0703 54.7422C77.8359 53.8047 77.7188 52.8281 77.7188 51.8125C77.7188 50.4844 77.9141 49.0651 78.3047 47.5547C78.7214 46.0182 79.2682 44.5078 79.9453 43.0234C80.6484 41.5391 81.4427 40.1589 82.3281 38.8828C83.2135 37.6068 84.151 36.5521 85.1406 35.7188C84.2292 36.3177 83.2266 36.7865 82.1328 37.125C81.0651 37.4635 79.9714 37.6328 78.8516 37.6328C78.0443 37.6328 77.3411 37.5677 76.7422 37.4375C76.1432 37.3073 75.4792 37.0599 74.75 36.6953L70.6875 45.1719L69.0078 44.5078L73.2266 35.875C72.7839 35.5625 72.3021 35.1719 71.7812 34.7031C71.2865 34.2083 70.9219 33.7266 70.6875 33.2578L76.1172 27.1641C76.3516 27.8672 76.6771 28.5833 77.0938 29.3125C77.5104 30.0156 77.9922 30.6536 78.5391 31.2266C79.112 31.7734 79.737 32.2292 80.4141 32.5938C81.1172 32.9583 81.8724 33.1406 82.6797 33.1406C84.0599 33.1406 85.401 32.8932 86.7031 32.3984C88.0052 31.8776 89.2161 31.2526 90.3359 30.5234L91.3906 31.5781C90.401 32.4896 89.3984 33.5052 88.3828 34.625C87.3932 35.7188 86.4948 36.8906 85.6875 38.1406C84.8802 39.3906 84.2292 40.7057 83.7344 42.0859C83.2396 43.4661 82.9922 44.8594 82.9922 46.2656C82.9922 47.0729 83.0964 47.9844 83.3047 49C83.5391 49.9896 83.8906 50.9401 84.3594 51.8516C84.8281 52.737 85.4141 53.4922 86.1172 54.1172C86.8203 54.7161 87.6667 55.0156 88.6562 55.0156C89.3333 55.0156 89.9844 54.8984 90.6094 54.6641C91.2604 54.4036 91.8464 54.0911 92.3672 53.7266L93.3047 54.7422ZM127.462 51.3828C126.551 52.5547 125.548 53.6484 124.455 54.6641C123.387 55.6797 122.215 56.5651 120.939 57.3203C119.689 58.0755 118.361 58.6745 116.955 59.1172C115.548 59.5599 114.09 59.7812 112.58 59.7812C110.653 59.7812 108.882 59.4427 107.267 58.7656C105.653 58.0625 104.259 57.112 103.087 55.9141C101.916 54.6901 101.004 53.2578 100.353 51.6172C99.7021 49.9505 99.3766 48.1667 99.3766 46.2656C99.3766 44.7031 99.5979 43.1667 100.041 41.6562C100.483 40.1458 101.108 38.7266 101.916 37.3984C102.723 36.0703 103.673 34.8464 104.767 33.7266C105.887 32.5807 107.111 31.6042 108.439 30.7969C109.767 29.9896 111.173 29.3646 112.658 28.9219C114.142 28.4531 115.666 28.2188 117.228 28.2188C118.322 28.2188 119.351 28.349 120.314 28.6094C121.304 28.8698 122.176 29.2865 122.931 29.8594C123.686 30.4062 124.285 31.1224 124.728 32.0078C125.171 32.8672 125.392 33.8958 125.392 35.0938C125.392 36.0833 125.093 37.125 124.494 38.2188C123.921 39.3125 123.153 40.4062 122.189 41.5C121.252 42.5938 120.184 43.6745 118.986 44.7422C117.788 45.7839 116.564 46.7604 115.314 47.6719C114.09 48.5573 112.905 49.3385 111.759 50.0156C110.614 50.6927 109.611 51.2135 108.752 51.5781C109.715 52.776 110.835 53.7526 112.111 54.5078C113.387 55.263 114.741 55.6406 116.173 55.6406C117.085 55.6406 118.009 55.4714 118.947 55.1328C119.884 54.7682 120.783 54.3125 121.642 53.7656C122.528 53.2188 123.361 52.6198 124.142 51.9688C124.949 51.3177 125.666 50.7057 126.291 50.1328L127.462 51.3828ZM118.048 36.5391C118.048 35.9401 117.944 35.3672 117.736 34.8203C117.554 34.2734 117.28 33.8047 116.916 33.4141C116.551 32.9974 116.108 32.6719 115.587 32.4375C115.093 32.1771 114.52 32.0469 113.869 32.0469C112.697 32.0469 111.616 32.4635 110.627 33.2969C109.637 34.1042 108.778 35.1068 108.048 36.3047C107.345 37.5026 106.785 38.7786 106.369 40.1328C105.978 41.4609 105.783 42.6328 105.783 43.6484C105.783 44.638 105.939 45.6536 106.252 46.6953C106.564 47.737 106.994 48.7396 107.541 49.7031C108.582 49.1302 109.715 48.3359 110.939 47.3203C112.163 46.3047 113.296 45.1979 114.337 44C115.405 42.776 116.291 41.513 116.994 40.2109C117.697 38.9089 118.048 37.6849 118.048 36.5391ZM166.073 54.3516C165.761 55.0286 165.37 55.6667 164.902 56.2656C164.433 56.8646 163.886 57.3984 163.261 57.8672C162.662 58.3359 161.998 58.7135 161.269 59C160.566 59.2604 159.823 59.3906 159.042 59.3906C156.985 59.3906 155.501 58.8307 154.589 57.7109C153.704 56.5651 153.261 55.0156 153.261 53.0625V52.3594C152.792 53.2448 152.258 54.1302 151.659 55.0156C151.086 55.901 150.422 56.6953 149.667 57.3984C148.938 58.1016 148.118 58.6745 147.206 59.1172C146.295 59.5599 145.279 59.7812 144.159 59.7812C142.467 59.7812 140.969 59.4557 139.667 58.8047C138.365 58.1536 137.271 57.2812 136.386 56.1875C135.501 55.0677 134.836 53.7656 134.394 52.2812C133.951 50.7969 133.73 49.2214 133.73 47.5547C133.73 45.2891 134.12 43.0365 134.902 40.7969C135.709 38.5312 136.829 36.513 138.261 34.7422C139.719 32.9714 141.451 31.5391 143.456 30.4453C145.488 29.3255 147.74 28.7656 150.214 28.7656C151.204 28.7656 152.193 28.8568 153.183 29.0391C154.172 29.2214 155.11 29.5208 155.995 29.9375C156.907 30.3281 157.727 30.849 158.456 31.5C159.211 32.151 159.823 32.9453 160.292 33.8828L154.472 36.3438C154.159 35.849 153.795 35.3802 153.378 34.9375C152.988 34.4688 152.545 34.0651 152.05 33.7266C151.581 33.388 151.073 33.1146 150.527 32.9062C149.98 32.6979 149.407 32.5938 148.808 32.5938C147.454 32.5938 146.243 33.0104 145.175 33.8438C144.133 34.6771 143.235 35.7057 142.48 36.9297C141.751 38.1536 141.191 39.4557 140.8 40.8359C140.409 42.2161 140.214 43.4661 140.214 44.5859C140.214 45.5755 140.305 46.6953 140.488 47.9453C140.696 49.1693 141.047 50.3281 141.542 51.4219C142.037 52.5156 142.688 53.4401 143.495 54.1953C144.303 54.9505 145.318 55.3281 146.542 55.3281C147.506 55.3281 148.339 55.1198 149.042 54.7031C149.745 54.2604 150.344 53.7005 150.839 53.0234C151.334 52.3203 151.738 51.526 152.05 50.6406C152.389 49.7292 152.636 48.8047 152.792 47.8672C152.974 46.9297 153.092 46.0052 153.144 45.0938C153.222 44.1562 153.261 43.3229 153.261 42.5938V39.8984L160.37 37.3984V53.2578C160.37 53.7786 160.501 54.2604 160.761 54.7031C161.021 55.1198 161.425 55.3281 161.972 55.3281C162.623 55.3281 163.209 55.0938 163.73 54.625C164.277 54.1302 164.706 53.6354 165.019 53.1406L166.073 54.3516ZM215.856 54.4297C215.257 55.7057 214.554 56.6823 213.747 57.3594C212.94 58.0365 212.171 58.5312 211.442 58.8438C210.583 59.2083 209.71 59.4167 208.825 59.4688C207.653 59.4688 206.69 59.2865 205.934 58.9219C205.205 58.5573 204.619 58.0755 204.177 57.4766C203.734 56.8776 203.421 56.2005 203.239 55.4453C203.083 54.6901 203.005 53.9219 203.005 53.1406V36.7734C203.005 36.3568 202.927 35.9922 202.77 35.6797C202.614 35.3411 202.406 35.1458 202.145 35.0938C201.885 35.0417 201.572 35.1719 201.208 35.4844C200.843 35.7969 200.453 36.3568 200.036 37.1641C199.333 39.2474 198.695 41.4349 198.122 43.7266C197.627 45.7057 197.171 47.9453 196.755 50.4453C196.364 52.9193 196.143 55.4714 196.091 58.1016L188.903 60.6016V36.7734C188.903 36.3568 188.825 35.9922 188.669 35.6797C188.512 35.3411 188.291 35.1458 188.005 35.0938C187.744 35.0417 187.432 35.1719 187.067 35.4844C186.703 35.7969 186.325 36.3568 185.934 37.1641C185.153 39.3516 184.476 41.6302 183.903 44C183.643 45.0156 183.395 46.0964 183.161 47.2422C182.927 48.388 182.718 49.5729 182.536 50.7969C182.38 51.9948 182.249 53.2188 182.145 54.4688C182.041 55.6927 182.002 56.9036 182.028 58.1016L174.919 60.6016V34.3516C174.919 33.7266 174.776 33.2318 174.489 32.8672C174.203 32.5026 173.825 32.3203 173.356 32.3203C172.914 32.2943 172.419 32.4505 171.872 32.7891C171.325 33.1276 170.791 33.6745 170.27 34.4297L169.216 33.2578C169.815 32.0078 170.505 31.0443 171.286 30.3672C172.093 29.6641 172.874 29.1562 173.63 28.8438C174.489 28.4792 175.374 28.2708 176.286 28.2188C177.432 28.2188 178.369 28.401 179.098 28.7656C179.854 29.1302 180.44 29.612 180.856 30.2109C181.299 30.7839 181.598 31.4479 181.755 32.2031C181.937 32.9583 182.028 33.7266 182.028 34.5078V42.75C182.497 40.4062 183.2 38.3359 184.137 36.5391C185.075 34.7422 186.052 33.2318 187.067 32.0078C188.109 30.7578 189.124 29.8203 190.114 29.1953C191.104 28.5443 191.898 28.2188 192.497 28.2188C193.252 28.2188 193.864 28.349 194.333 28.6094C194.802 28.8438 195.166 29.2083 195.427 29.7031C195.687 30.1979 195.856 30.8099 195.934 31.5391C196.039 32.2422 196.091 33.0755 196.091 34.0391V42.75C196.585 40.4062 197.289 38.3359 198.2 36.5391C199.137 34.7422 200.127 33.2318 201.169 32.0078C202.21 30.7578 203.226 29.8203 204.216 29.1953C205.205 28.5443 205.999 28.2188 206.598 28.2188C208.083 28.2188 209.046 28.7135 209.489 29.7031C209.958 30.6667 210.192 32.112 210.192 34.0391V53.3359C210.192 53.9609 210.335 54.4557 210.622 54.8203C210.908 55.1849 211.273 55.3802 211.716 55.4062C212.158 55.4062 212.64 55.237 213.161 54.8984C213.708 54.5599 214.242 54.013 214.762 53.2578L215.856 54.4297ZM263.608 1.65625C262.8 2.90625 261.824 4.07812 260.678 5.17188C259.532 6.26562 258.282 7.22917 256.928 8.0625C255.574 8.89583 254.142 9.5599 252.631 10.0547C251.121 10.5234 249.61 10.7578 248.1 10.7578L240.405 10.8359C239.363 12.0859 238.595 13.2969 238.1 14.4688C237.605 15.6406 237.358 17.0208 237.358 18.6094V29.5469H238.491C239.532 29.5469 240.795 29.5729 242.28 29.625C243.764 29.651 245.261 29.612 246.772 29.5078C248.308 29.4036 249.767 29.1823 251.147 28.8438C252.527 28.4792 253.647 27.9193 254.506 27.1641L255.444 28.2969C254.636 29.5208 253.66 30.5495 252.514 31.3828C251.368 32.2161 250.118 32.9062 248.764 33.4531C247.41 33.974 245.978 34.3646 244.467 34.625C242.957 34.8594 241.446 34.9896 239.936 35.0156H237.358V49.8984C237.358 53.362 236.616 56.4349 235.131 59.1172C233.647 61.8255 231.485 64.1562 228.647 66.1094L227.28 64.5859C227.722 64.0911 228.074 63.5312 228.334 62.9062C228.595 62.2812 228.79 61.6302 228.92 60.9531C229.077 60.276 229.168 59.599 229.194 58.9219C229.246 58.2188 229.272 57.5547 229.272 56.9297V35.0156H221.694L225.834 29.5469H229.272V23.1406C229.272 21.9167 229.519 20.7318 230.014 19.5859C230.535 18.4141 231.186 17.3073 231.967 16.2656C232.748 15.224 233.608 14.2474 234.545 13.3359C235.483 12.4245 236.394 11.5911 237.28 10.8359C236.186 10.8359 235.144 10.8359 234.155 10.8359C233.191 10.8099 232.215 10.7969 231.225 10.7969C230.235 10.7969 229.22 10.7969 228.178 10.7969C227.136 10.7708 225.991 10.7578 224.741 10.7578C223.751 10.7578 222.866 10.862 222.084 11.0703C221.329 11.2526 220.626 11.526 219.975 11.8906C219.324 12.2552 218.699 12.7109 218.1 13.2578C217.501 13.8047 216.889 14.4427 216.264 15.1719L215.131 13.9609C216.017 12.737 217.071 11.487 218.295 10.2109C219.519 8.90885 220.834 7.72396 222.241 6.65625C223.673 5.58854 225.17 4.71615 226.733 4.03906C228.321 3.33594 229.923 2.98438 231.537 2.98438H246.655C247.67 2.98438 248.92 2.97135 250.405 2.94531C251.889 2.91927 253.399 2.84115 254.936 2.71094C256.472 2.55469 257.931 2.32031 259.311 2.00781C260.691 1.66927 261.798 1.20052 262.631 0.601562L263.608 1.65625ZM280.461 54.4297C280.148 55.1068 279.745 55.7448 279.25 56.3438C278.781 56.9427 278.247 57.4766 277.648 57.9453C277.049 58.4141 276.385 58.7786 275.656 59.0391C274.953 59.3255 274.224 59.4688 273.469 59.4688C271.438 59.4688 269.953 58.9089 269.016 57.7891C268.104 56.6432 267.648 55.0938 267.648 53.1406V5.48438L274.836 2.98438V53.3359C274.836 53.8568 274.953 54.3385 275.188 54.7812C275.422 55.1979 275.839 55.4062 276.438 55.4062C277.036 55.4062 277.596 55.1719 278.117 54.7031C278.664 54.2083 279.094 53.7266 279.406 53.2578L280.461 54.4297ZM299.619 59.8984C297.692 59.8984 295.882 59.5599 294.189 58.8828C292.522 58.1797 291.064 57.2161 289.814 55.9922C288.59 54.7682 287.614 53.3359 286.884 51.6953C286.181 50.0286 285.83 48.2188 285.83 46.2656C285.83 44.0521 286.194 41.9818 286.923 40.0547C287.653 38.1016 288.655 36.3438 289.931 34.7812C291.233 33.2188 292.757 31.8646 294.502 30.7188C296.272 29.5729 298.186 28.6745 300.244 28.0234L301.377 29.3906C300.205 30.25 299.111 31.2396 298.095 32.3594C297.08 33.4531 296.194 34.651 295.439 35.9531C294.684 37.2292 294.085 38.5833 293.642 40.0156C293.2 41.4219 292.978 42.8672 292.978 44.3516C292.978 45.6016 293.16 46.9167 293.525 48.2969C293.89 49.6771 294.436 50.9401 295.166 52.0859C295.895 53.2318 296.806 54.1823 297.9 54.9375C299.02 55.6667 300.309 56.0312 301.767 56.0312C303.069 56.0312 304.189 55.7969 305.127 55.3281C306.09 54.8594 306.884 54.2214 307.509 53.4141C308.134 52.6068 308.603 51.6693 308.916 50.6016C309.228 49.5078 309.384 48.362 309.384 47.1641C309.384 45.7578 309.111 44.3255 308.564 42.8672C308.017 41.3828 307.262 40.0156 306.298 38.7656C305.361 37.5156 304.254 36.474 302.978 35.6406C301.702 34.8073 300.335 34.3255 298.877 34.1953C299.788 33.1536 300.791 32.1901 301.884 31.3047C302.978 30.4193 304.085 29.5729 305.205 28.7656C306.715 29.2604 308.043 29.9896 309.189 30.9531C310.361 31.9167 311.338 33.0234 312.119 34.2734C312.926 35.5234 313.538 36.8906 313.955 38.375C314.371 39.8333 314.58 41.3177 314.58 42.8281C314.58 44.8854 314.215 46.9297 313.486 48.9609C312.783 50.9922 311.767 52.8281 310.439 54.4688C309.137 56.0833 307.561 57.3984 305.713 58.4141C303.89 59.4036 301.858 59.8984 299.619 59.8984ZM360.964 33.6484C360.964 34.4557 360.86 35.3542 360.652 36.3438C360.469 37.3073 360.196 38.1667 359.831 38.9219L350.73 58.4531C350.573 58.7396 350.352 58.9219 350.066 59C349.805 59.1042 349.519 59.1562 349.206 59.1562C348.842 59.1562 348.49 59.0911 348.152 58.9609C347.813 58.8307 347.579 58.5833 347.448 58.2188L341.355 36.6953L335.925 57.9453C335.717 58.388 335.417 58.7266 335.027 58.9609C334.662 59.1953 334.245 59.3125 333.777 59.3125C333.438 59.3125 333.112 59.2474 332.8 59.1172C332.514 58.987 332.331 58.7396 332.253 58.375L325.378 36.4219C325.274 36.1094 325.131 35.7839 324.948 35.4453C324.792 35.0807 324.584 34.7552 324.323 34.4688C324.089 34.1562 323.816 33.9089 323.503 33.7266C323.217 33.5182 322.878 33.4141 322.487 33.4141C321.967 33.4141 321.485 33.5573 321.042 33.8438C320.626 34.1302 320.248 34.4297 319.909 34.7422L319.128 33.7266C319.519 32.9974 320.014 32.3203 320.612 31.6953C321.211 31.0443 321.876 30.4714 322.605 29.9766C323.334 29.4818 324.102 29.0911 324.909 28.8047C325.743 28.5182 326.589 28.375 327.448 28.375C328.178 28.375 328.79 28.5833 329.284 29C329.779 29.4167 330.196 29.9245 330.534 30.5234C330.873 31.1224 331.146 31.7604 331.355 32.4375C331.589 33.1146 331.784 33.7266 331.941 34.2734C332.722 36.7214 333.49 39.1823 334.245 41.6562C335.027 44.1302 335.795 46.5781 336.55 49L340.417 33.3359L339.441 30.2109L346.003 28.0234L352.409 50.7578L356.081 42.3594C356.237 41.9688 356.368 41.474 356.472 40.875C356.576 40.25 356.628 39.7292 356.628 39.3125C356.628 37.75 356.224 36.4089 355.417 35.2891C354.636 34.1693 353.581 33.2708 352.253 32.5938L356.706 26.4219C358.165 27.151 359.232 28.1406 359.909 29.3906C360.612 30.6146 360.964 32.0339 360.964 33.6484ZM117.087 96.0312C117.087 96.6562 116.957 97.2422 116.697 97.7891C116.462 98.3359 116.137 98.8047 115.72 99.1953C115.33 99.612 114.848 99.9375 114.275 100.172C113.728 100.406 113.142 100.523 112.517 100.523C111.892 100.523 111.306 100.406 110.759 100.172C110.239 99.9375 109.77 99.612 109.353 99.1953C108.936 98.8047 108.611 98.3359 108.377 97.7891C108.142 97.2422 108.025 96.6562 108.025 96.0312C108.025 95.4062 108.142 94.8203 108.377 94.2734C108.611 93.7266 108.936 93.2448 109.353 92.8281C109.77 92.4115 110.239 92.0859 110.759 91.8516C111.306 91.5911 111.892 91.4609 112.517 91.4609C113.142 91.4609 113.728 91.5911 114.275 91.8516C114.848 92.0859 115.33 92.4115 115.72 92.8281C116.137 93.2448 116.462 93.7266 116.697 94.2734C116.957 94.8203 117.087 95.4062 117.087 96.0312ZM136.597 96.0312C136.597 96.6562 136.467 97.2422 136.206 97.7891C135.972 98.3359 135.646 98.8047 135.23 99.1953C134.839 99.612 134.357 99.9375 133.784 100.172C133.237 100.406 132.652 100.523 132.027 100.523C131.402 100.523 130.816 100.406 130.269 100.172C129.748 99.9375 129.279 99.612 128.862 99.1953C128.446 98.8047 128.12 98.3359 127.886 97.7891C127.652 97.2422 127.534 96.6562 127.534 96.0312C127.534 95.4062 127.652 94.8203 127.886 94.2734C128.12 93.7266 128.446 93.2448 128.862 92.8281C129.279 92.4115 129.748 92.0859 130.269 91.8516C130.816 91.5911 131.402 91.4609 132.027 91.4609C132.652 91.4609 133.237 91.5911 133.784 91.8516C134.357 92.0859 134.839 92.4115 135.23 92.8281C135.646 93.2448 135.972 93.7266 136.206 94.2734C136.467 94.8203 136.597 95.4062 136.597 96.0312ZM156.106 96.0312C156.106 96.6562 155.976 97.2422 155.716 97.7891C155.481 98.3359 155.156 98.8047 154.739 99.1953C154.348 99.612 153.867 99.9375 153.294 100.172C152.747 100.406 152.161 100.523 151.536 100.523C150.911 100.523 150.325 100.406 149.778 100.172C149.257 99.9375 148.789 99.612 148.372 99.1953C147.955 98.8047 147.63 98.3359 147.395 97.7891C147.161 97.2422 147.044 96.6562 147.044 96.0312C147.044 95.4062 147.161 94.8203 147.395 94.2734C147.63 93.7266 147.955 93.2448 148.372 92.8281C148.789 92.4115 149.257 92.0859 149.778 91.8516C150.325 91.5911 150.911 91.4609 151.536 91.4609C152.161 91.4609 152.747 91.5911 153.294 91.8516C153.867 92.0859 154.348 92.4115 154.739 92.8281C155.156 93.2448 155.481 93.7266 155.716 94.2734C155.976 94.8203 156.106 95.4062 156.106 96.0312ZM175.616 96.0312C175.616 96.6562 175.485 97.2422 175.225 97.7891C174.991 98.3359 174.665 98.8047 174.248 99.1953C173.858 99.612 173.376 99.9375 172.803 100.172C172.256 100.406 171.67 100.523 171.045 100.523C170.42 100.523 169.834 100.406 169.287 100.172C168.767 99.9375 168.298 99.612 167.881 99.1953C167.465 98.8047 167.139 98.3359 166.905 97.7891C166.67 97.2422 166.553 96.6562 166.553 96.0312C166.553 95.4062 166.67 94.8203 166.905 94.2734C167.139 93.7266 167.465 93.2448 167.881 92.8281C168.298 92.4115 168.767 92.0859 169.287 91.8516C169.834 91.5911 170.42 91.4609 171.045 91.4609C171.67 91.4609 172.256 91.5911 172.803 91.8516C173.376 92.0859 173.858 92.4115 174.248 92.8281C174.665 93.2448 174.991 93.7266 175.225 94.2734C175.485 94.8203 175.616 95.4062 175.616 96.0312ZM195.125 96.0312C195.125 96.6562 194.995 97.2422 194.734 97.7891C194.5 98.3359 194.174 98.8047 193.758 99.1953C193.367 99.612 192.885 99.9375 192.312 100.172C191.766 100.406 191.18 100.523 190.555 100.523C189.93 100.523 189.344 100.406 188.797 100.172C188.276 99.9375 187.807 99.612 187.391 99.1953C186.974 98.8047 186.648 98.3359 186.414 97.7891C186.18 97.2422 186.062 96.6562 186.062 96.0312C186.062 95.4062 186.18 94.8203 186.414 94.2734C186.648 93.7266 186.974 93.2448 187.391 92.8281C187.807 92.4115 188.276 92.0859 188.797 91.8516C189.344 91.5911 189.93 91.4609 190.555 91.4609C191.18 91.4609 191.766 91.5911 192.312 91.8516C192.885 92.0859 193.367 92.4115 193.758 92.8281C194.174 93.2448 194.5 93.7266 194.734 94.2734C194.995 94.8203 195.125 95.4062 195.125 96.0312ZM214.634 96.0312C214.634 96.6562 214.504 97.2422 214.244 97.7891C214.009 98.3359 213.684 98.8047 213.267 99.1953C212.877 99.612 212.395 99.9375 211.822 100.172C211.275 100.406 210.689 100.523 210.064 100.523C209.439 100.523 208.853 100.406 208.306 100.172C207.785 99.9375 207.317 99.612 206.9 99.1953C206.483 98.8047 206.158 98.3359 205.923 97.7891C205.689 97.2422 205.572 96.6562 205.572 96.0312C205.572 95.4062 205.689 94.8203 205.923 94.2734C206.158 93.7266 206.483 93.2448 206.9 92.8281C207.317 92.4115 207.785 92.0859 208.306 91.8516C208.853 91.5911 209.439 91.4609 210.064 91.4609C210.689 91.4609 211.275 91.5911 211.822 91.8516C212.395 92.0859 212.877 92.4115 213.267 92.8281C213.684 93.2448 214.009 93.7266 214.244 94.2734C214.504 94.8203 214.634 95.4062 214.634 96.0312ZM234.144 96.0312C234.144 96.6562 234.014 97.2422 233.753 97.7891C233.519 98.3359 233.193 98.8047 232.777 99.1953C232.386 99.612 231.904 99.9375 231.331 100.172C230.784 100.406 230.198 100.523 229.573 100.523C228.948 100.523 228.362 100.406 227.816 100.172C227.295 99.9375 226.826 99.612 226.409 99.1953C225.993 98.8047 225.667 98.3359 225.433 97.7891C225.198 97.2422 225.081 96.6562 225.081 96.0312C225.081 95.4062 225.198 94.8203 225.433 94.2734C225.667 93.7266 225.993 93.2448 226.409 92.8281C226.826 92.4115 227.295 92.0859 227.816 91.8516C228.362 91.5911 228.948 91.4609 229.573 91.4609C230.198 91.4609 230.784 91.5911 231.331 91.8516C231.904 92.0859 232.386 92.4115 232.777 92.8281C233.193 93.2448 233.519 93.7266 233.753 94.2734C234.014 94.8203 234.144 95.4062 234.144 96.0312ZM253.653 96.0312C253.653 96.6562 253.523 97.2422 253.263 97.7891C253.028 98.3359 252.703 98.8047 252.286 99.1953C251.895 99.612 251.414 99.9375 250.841 100.172C250.294 100.406 249.708 100.523 249.083 100.523C248.458 100.523 247.872 100.406 247.325 100.172C246.804 99.9375 246.335 99.612 245.919 99.1953C245.502 98.8047 245.177 98.3359 244.942 97.7891C244.708 97.2422 244.591 96.6562 244.591 96.0312C244.591 95.4062 244.708 94.8203 244.942 94.2734C245.177 93.7266 245.502 93.2448 245.919 92.8281C246.335 92.4115 246.804 92.0859 247.325 91.8516C247.872 91.5911 248.458 91.4609 249.083 91.4609C249.708 91.4609 250.294 91.5911 250.841 91.8516C251.414 92.0859 251.895 92.4115 252.286 92.8281C252.703 93.2448 253.028 93.7266 253.263 94.2734C253.523 94.8203 253.653 95.4062 253.653 96.0312Z" fill="#6950ED"/>
</g>
<defs>
<filter id="filter0_d" x="0.0125122" y="0.601562" width="364.952" height="107.922" filterUnits="userSpaceOnUse" color-interpolation-filters="sRGB">
<feFlood flood-opacity="0" result="BackgroundImageFix"/>
<feColorMatrix in="SourceAlpha" type="matrix" values="0 0 0 0 0 0 0 0 0 0 0 0 0 0 0 0 0 0 127 0"/>
<feOffset dy="4"/>
<feGaussianBlur stdDeviation="2"/>
<feColorMatrix type="matrix" values="0 0 0 0 0 0 0 0 0 0 0 0 0 0 0 0 0 0 0.35 0"/>
<feBlend mode="normal" in2="BackgroundImageFix" result="effect1_dropShadow"/>
<feBlend mode="normal" in="SourceGraphic" in2="effect1_dropShadow" result="shape"/>
</filter>
</defs>
</svg>
